<svg width="356" height="48" viewBox="0 0 356 48" fill="none" xmlns="http://www.w3.org/2000/svg">
<path d="M140.725 31.89V33H131.725V31.89L133.105 31.95C133.705 32.01 134.005 31.77 134.005 31.23C134.005 30.89 133.905 30.5 133.705 30.06L132.595 27.42H125.995L124.975 29.88C124.695 30.5 124.555 31 124.555 31.38C124.555 31.8 124.775 32 125.215 31.98L126.565 31.89V33H121.135V31.89L122.005 31.95H122.125C122.525 31.95 122.855 31.76 123.115 31.38C123.415 30.94 123.715 30.36 124.015 29.64L130.195 14.79H131.665L137.905 29.7C138.185 30.42 138.475 30.99 138.775 31.41C139.055 31.77 139.405 31.95 139.825 31.95H139.975L140.725 31.89ZM126.415 26.37H132.175L129.265 19.47L126.415 26.37ZM140.644 11.1H145.954V22.32C146.234 21.6 146.714 21.03 147.394 20.61C148.074 20.17 148.874 19.95 149.794 19.95C151.534 19.95 152.844 20.52 153.724 21.66C154.624 22.78 155.074 24.45 155.074 26.67C155.074 28.85 154.604 30.5 153.664 31.62C152.724 32.74 151.364 33.3 149.584 33.3C148.544 33.3 147.754 33.14 147.214 32.82C146.674 32.5 146.174 32.04 145.714 31.44C145.574 31.26 145.394 31.17 145.174 31.17C144.814 31.17 144.544 31.35 144.364 31.71C144.184 32.07 144.094 32.55 144.094 33.15H142.024V12.6C142.024 12.44 141.994 12.3 141.934 12.18C141.874 12.06 141.774 12 141.634 12L140.644 12.06V11.1ZM146.014 27.42C146.014 30.42 146.894 31.92 148.654 31.92C149.214 31.92 149.654 31.76 149.974 31.44C150.294 31.1 150.524 30.56 150.664 29.82C150.804 29.06 150.874 28.01 150.874 26.67C150.874 24.83 150.724 23.48 150.424 22.62C150.124 21.74 149.554 21.3 148.714 21.3C147.854 21.3 147.184 21.74 146.704 22.62C146.244 23.48 146.014 24.65 146.014 26.13V27.42ZM156.144 26.61C156.144 24.45 156.704 22.8 157.824 21.66C158.944 20.52 160.624 19.95 162.864 19.95C165.124 19.95 166.804 20.52 167.904 21.66C169.004 22.8 169.554 24.45 169.554 26.61C169.554 31.07 167.324 33.3 162.864 33.3C160.624 33.3 158.944 32.73 157.824 31.59C156.704 30.45 156.144 28.79 156.144 26.61ZM160.344 26.67C160.344 28.69 160.534 30.13 160.914 30.99C161.314 31.83 161.964 32.25 162.864 32.25C163.764 32.25 164.404 31.83 164.784 30.99C165.164 30.15 165.354 28.71 165.354 26.67C165.354 24.59 165.164 23.12 164.784 22.26C164.404 21.4 163.764 20.97 162.864 20.97C161.964 20.97 161.314 21.4 160.914 22.26C160.534 23.12 160.344 24.59 160.344 26.67ZM185.523 31.98V33H180.033C180.133 32.7 180.183 32.26 180.183 31.68V30.33C179.283 32.31 177.763 33.3 175.623 33.3C174.323 33.3 173.373 32.95 172.773 32.25C172.173 31.53 171.873 30.4 171.873 28.86V21.75C171.873 21.37 171.743 21.18 171.483 21.18L170.493 21.24V20.25H175.803V29.04C175.803 30.06 175.883 30.79 176.043 31.23C176.223 31.67 176.583 31.89 177.123 31.89C177.603 31.89 178.073 31.68 178.533 31.26C179.013 30.84 179.403 30.22 179.703 29.4C180.003 28.56 180.163 27.56 180.183 26.4V21.78C180.183 21.38 180.063 21.18 179.823 21.18L178.653 21.24V20.25H184.143V31.47C184.143 31.83 184.273 32.02 184.533 32.04L185.523 31.98ZM192.16 20.25H195.13V21.21H192.16V30.39C192.16 31.09 192.25 31.56 192.43 31.8C192.61 32.04 192.89 32.16 193.27 32.16C193.51 32.16 193.76 32.06 194.02 31.86C194.3 31.64 194.51 31.35 194.65 30.99L195.46 31.44C195.2 32.08 194.79 32.55 194.23 32.85C193.69 33.13 193 33.27 192.16 33.27C190.94 33.27 189.98 33.04 189.28 32.58C188.58 32.1 188.23 31.35 188.23 30.33V21.21H186.43V20.25C187.23 20.25 187.84 20.18 188.26 20.04C188.68 19.88 189.01 19.59 189.25 19.17C189.51 18.75 189.75 18.09 189.97 17.19H192.16V20.25ZM203.088 15.09H211.008V16.2L209.538 16.14H209.478C209.318 16.14 209.188 16.2 209.088 16.32C208.988 16.44 208.938 16.58 208.938 16.74V27.03C208.938 28.73 209.328 30 210.108 30.84C210.908 31.66 212.058 32.07 213.558 32.07C215.098 32.07 216.218 31.61 216.918 30.69C217.638 29.77 217.998 28.51 217.998 26.91V16.77C217.998 16.57 217.948 16.41 217.848 16.29C217.748 16.17 217.618 16.12 217.458 16.14L215.988 16.2V15.09H221.058V16.2L219.888 16.14H219.828C219.668 16.14 219.538 16.2 219.438 16.32C219.338 16.44 219.288 16.58 219.288 16.74V26.91C219.288 28.93 218.748 30.5 217.668 31.62C216.588 32.74 214.958 33.3 212.778 33.3C207.458 33.3 204.798 31.21 204.798 27.03V16.77C204.798 16.59 204.738 16.44 204.618 16.32C204.518 16.18 204.388 16.12 204.228 16.14L203.088 16.2V15.09ZM223.013 28.74L224.033 28.68C224.033 29.7 224.453 30.55 225.293 31.23C226.153 31.91 227.183 32.25 228.383 32.25C229.043 32.25 229.563 32.1 229.943 31.8C230.343 31.48 230.543 31.04 230.543 30.48C230.543 30.02 230.393 29.66 230.093 29.4C229.813 29.12 229.323 28.89 228.623 28.71L226.463 28.11C225.303 27.79 224.443 27.3 223.883 26.64C223.343 25.98 223.073 25.14 223.073 24.12C223.073 22.88 223.503 21.88 224.363 21.12C225.223 20.34 226.433 19.95 227.993 19.95C228.413 19.95 228.793 19.98 229.133 20.04C229.473 20.1 229.893 20.2 230.393 20.34C231.033 20.52 231.533 20.61 231.893 20.61C232.213 20.61 232.513 20.53 232.793 20.37L232.613 23.79H231.713C231.713 23.03 231.393 22.37 230.753 21.81C230.133 21.25 229.283 20.97 228.203 20.97C227.583 20.97 227.083 21.13 226.703 21.45C226.343 21.75 226.163 22.13 226.163 22.59C226.163 22.97 226.303 23.3 226.583 23.58C226.863 23.84 227.273 24.04 227.813 24.18L229.883 24.72C231.263 25.08 232.203 25.59 232.703 26.25C233.223 26.91 233.483 27.76 233.483 28.8C233.483 30.22 233.003 31.33 232.043 32.13C231.083 32.91 229.813 33.3 228.233 33.3C227.773 33.3 227.303 33.25 226.823 33.15C226.363 33.07 225.633 32.9 224.633 32.64C224.313 32.56 224.033 32.52 223.793 32.52C223.353 32.52 223.043 32.58 222.863 32.7L223.013 28.74Z" fill="#FFFFFE"/>
<path d="M260.5 36L260.711 29.9882C260.841 26.3102 263.641 23.3606 267.13 23.2261L273 23L267.13 22.7739C263.641 22.6394 260.841 19.6898 260.711 16.0118L260.5 10L260.289 16.0118C260.159 19.6898 257.359 22.6394 253.87 22.7739L248 23L253.87 23.2261C257.359 23.3606 260.159 26.3102 260.289 29.9882L260.5 36Z" fill="white"/>
<path d="M96.5 36L96.7114 29.9882C96.8407 26.3102 99.6405 23.3606 103.13 23.2261L109 23L103.13 22.7739C99.6405 22.6394 96.8407 19.6898 96.7114 16.0118L96.5 10L96.2886 16.0118C96.1593 19.6898 93.3595 22.6394 89.87 22.7739L84 23L89.87 23.2261C93.3595 23.3606 96.1593 26.3102 96.2886 29.9882L96.5 36Z" fill="white"/>
</svg>
