<svg width="367" height="91" viewBox="0 0 367 91" fill="none" xmlns="http://www.w3.org/2000/svg">
<path d="M94.9119 53.9017V55.0117H85.9119V53.9017L87.2919 53.9617C87.8919 54.0217 88.1919 53.7817 88.1919 53.2417C88.1919 52.9017 88.0919 52.5117 87.8919 52.0717L86.7819 49.4317H80.1819L79.1619 51.8917C78.8819 52.5117 78.7419 53.0117 78.7419 53.3917C78.7419 53.8117 78.9619 54.0117 79.4019 53.9917L80.7519 53.9017V55.0117H75.3219V53.9017L76.1919 53.9617H76.3119C76.7119 53.9617 77.0419 53.7717 77.3019 53.3917C77.6019 52.9517 77.9019 52.3717 78.2019 51.6517L84.3819 36.8017H85.8519L92.0919 51.7117C92.3719 52.4317 92.6619 53.0017 92.9619 53.4217C93.2419 53.7817 93.5919 53.9617 94.0119 53.9617H94.1619L94.9119 53.9017ZM80.6019 48.3817H86.3619L83.4519 41.4817L80.6019 48.3817ZM94.8303 33.1117H100.14V44.3317C100.42 43.6117 100.9 43.0417 101.58 42.6217C102.26 42.1817 103.06 41.9617 103.98 41.9617C105.72 41.9617 107.03 42.5317 107.91 43.6717C108.81 44.7917 109.26 46.4617 109.26 48.6817C109.26 50.8617 108.79 52.5117 107.85 53.6317C106.91 54.7517 105.55 55.3117 103.77 55.3117C102.73 55.3117 101.94 55.1517 101.4 54.8317C100.86 54.5117 100.36 54.0517 99.9003 53.4517C99.7603 53.2717 99.5803 53.1817 99.3603 53.1817C99.0003 53.1817 98.7303 53.3617 98.5503 53.7217C98.3703 54.0817 98.2803 54.5617 98.2803 55.1617H96.2103V34.6117C96.2103 34.4517 96.1803 34.3117 96.1203 34.1917C96.0603 34.0717 95.9603 34.0117 95.8203 34.0117L94.8303 34.0717V33.1117ZM100.2 49.4317C100.2 52.4317 101.08 53.9317 102.84 53.9317C103.4 53.9317 103.84 53.7717 104.16 53.4517C104.48 53.1117 104.71 52.5717 104.85 51.8317C104.99 51.0717 105.06 50.0217 105.06 48.6817C105.06 46.8417 104.91 45.4917 104.61 44.6317C104.31 43.7517 103.74 43.3117 102.9 43.3117C102.04 43.3117 101.37 43.7517 100.89 44.6317C100.43 45.4917 100.2 46.6617 100.2 48.1417V49.4317ZM110.33 48.6217C110.33 46.4617 110.89 44.8117 112.01 43.6717C113.13 42.5317 114.81 41.9617 117.05 41.9617C119.31 41.9617 120.99 42.5317 122.09 43.6717C123.19 44.8117 123.74 46.4617 123.74 48.6217C123.74 53.0817 121.51 55.3117 117.05 55.3117C114.81 55.3117 113.13 54.7417 112.01 53.6017C110.89 52.4617 110.33 50.8017 110.33 48.6217ZM114.53 48.6817C114.53 50.7017 114.72 52.1417 115.1 53.0017C115.5 53.8417 116.15 54.2617 117.05 54.2617C117.95 54.2617 118.59 53.8417 118.97 53.0017C119.35 52.1617 119.54 50.7217 119.54 48.6817C119.54 46.6017 119.35 45.1317 118.97 44.2717C118.59 43.4117 117.95 42.9817 117.05 42.9817C116.15 42.9817 115.5 43.4117 115.1 44.2717C114.72 45.1317 114.53 46.6017 114.53 48.6817ZM139.71 53.9917V55.0117H134.22C134.32 54.7117 134.37 54.2717 134.37 53.6917V52.3417C133.47 54.3217 131.95 55.3117 129.81 55.3117C128.51 55.3117 127.56 54.9617 126.96 54.2617C126.36 53.5417 126.06 52.4117 126.06 50.8717V43.7617C126.06 43.3817 125.93 43.1917 125.67 43.1917L124.68 43.2517V42.2617H129.99V51.0517C129.99 52.0717 130.07 52.8017 130.23 53.2417C130.41 53.6817 130.77 53.9017 131.31 53.9017C131.79 53.9017 132.26 53.6917 132.72 53.2717C133.2 52.8517 133.59 52.2317 133.89 51.4117C134.19 50.5717 134.35 49.5717 134.37 48.4117V43.7917C134.37 43.3917 134.25 43.1917 134.01 43.1917L132.84 43.2517V42.2617H138.33V53.4817C138.33 53.8417 138.46 54.0317 138.72 54.0517L139.71 53.9917ZM146.346 42.2617H149.316V43.2217H146.346V52.4017C146.346 53.1017 146.436 53.5717 146.616 53.8117C146.796 54.0517 147.076 54.1717 147.456 54.1717C147.696 54.1717 147.946 54.0717 148.206 53.8717C148.486 53.6517 148.696 53.3617 148.836 53.0017L149.646 53.4517C149.386 54.0917 148.976 54.5617 148.416 54.8617C147.876 55.1417 147.186 55.2817 146.346 55.2817C145.126 55.2817 144.166 55.0517 143.466 54.5917C142.766 54.1117 142.416 53.3617 142.416 52.3417V43.2217H140.616V42.2617C141.416 42.2617 142.026 42.1917 142.446 42.0517C142.866 41.8917 143.196 41.6017 143.436 41.1817C143.696 40.7617 143.936 40.1017 144.156 39.2017H146.346V42.2617ZM181.605 53.9017V55.0117H173.745V53.9017L175.215 53.9617C175.615 53.9617 175.815 53.7417 175.815 53.3017V39.9817L168.915 55.3117H167.955L160.245 39.2017V53.3017C160.245 53.7417 160.435 53.9617 160.815 53.9617L162.285 53.9017V55.0117H157.245V53.9017L158.415 53.9617C158.815 53.9617 159.015 53.7417 159.015 53.3017V38.3317C159.015 38.1917 158.915 38.1317 158.715 38.1517L157.455 38.2117V37.1017H163.635L169.935 50.1817L175.845 37.1017H181.455V38.2117L180.525 38.1517H180.465C180.305 38.1517 180.175 38.2117 180.075 38.3317C179.975 38.4517 179.925 38.5917 179.925 38.7517V53.3017C179.925 53.7817 180.125 54.0017 180.525 53.9617L181.605 53.9017ZM183.338 48.6217C183.338 46.4617 183.898 44.8117 185.018 43.6717C186.138 42.5317 187.818 41.9617 190.058 41.9617C192.318 41.9617 193.998 42.5317 195.098 43.6717C196.198 44.8117 196.748 46.4617 196.748 48.6217C196.748 53.0817 194.518 55.3117 190.058 55.3117C187.818 55.3117 186.138 54.7417 185.018 53.6017C183.898 52.4617 183.338 50.8017 183.338 48.6217ZM187.538 48.6817C187.538 50.7017 187.728 52.1417 188.108 53.0017C188.508 53.8417 189.158 54.2617 190.058 54.2617C190.958 54.2617 191.598 53.8417 191.978 53.0017C192.358 52.1617 192.548 50.7217 192.548 48.6817C192.548 46.6017 192.358 45.1317 191.978 44.2717C191.598 43.4117 190.958 42.9817 190.058 42.9817C189.158 42.9817 188.508 43.4117 188.108 44.2717C187.728 45.1317 187.538 46.6017 187.538 48.6817ZM197.957 48.6217C197.957 46.4617 198.517 44.8117 199.637 43.6717C200.757 42.5317 202.437 41.9617 204.677 41.9617C206.937 41.9617 208.617 42.5317 209.717 43.6717C210.817 44.8117 211.367 46.4617 211.367 48.6217C211.367 53.0817 209.137 55.3117 204.677 55.3117C202.437 55.3117 200.757 54.7417 199.637 53.6017C198.517 52.4617 197.957 50.8017 197.957 48.6217ZM202.157 48.6817C202.157 50.7017 202.347 52.1417 202.727 53.0017C203.127 53.8417 203.777 54.2617 204.677 54.2617C205.577 54.2617 206.217 53.8417 206.597 53.0017C206.977 52.1617 207.167 50.7217 207.167 48.6817C207.167 46.6017 206.977 45.1317 206.597 44.2717C206.217 43.4117 205.577 42.9817 204.677 42.9817C203.777 42.9817 203.127 43.4117 202.727 44.2717C202.347 45.1317 202.157 46.6017 202.157 48.6817ZM212.697 48.6817C212.697 46.4617 213.147 44.7917 214.047 43.6717C214.967 42.5317 216.317 41.9617 218.097 41.9617C219.017 41.9617 219.807 42.1917 220.467 42.6517C221.147 43.0917 221.597 43.6417 221.817 44.3017V34.6117C221.817 34.2117 221.687 34.0117 221.427 34.0117L220.047 34.0717V33.1117H225.747V53.4817C225.747 53.8617 225.877 54.0517 226.137 54.0517L227.127 53.9917V55.0117H221.607C221.647 54.8517 221.667 54.6917 221.667 54.5317V53.8717C221.667 53.6517 221.677 53.4817 221.697 53.3617C221.717 53.2417 221.727 53.1617 221.727 53.1217C221.467 53.8017 221.037 54.3417 220.437 54.7417C219.837 55.1217 219.067 55.3117 218.127 55.3117C216.187 55.3117 214.797 54.7717 213.957 53.6917C213.117 52.6117 212.697 50.9417 212.697 48.6817ZM216.897 48.6817C216.897 50.0217 216.957 51.0617 217.077 51.8017C217.217 52.5417 217.447 53.0817 217.767 53.4217C218.087 53.7617 218.537 53.9317 219.117 53.9317C220.017 53.9317 220.677 53.5617 221.097 52.8217C221.537 52.0617 221.757 50.9317 221.757 49.4317V48.1417C221.757 46.6217 221.527 45.4417 221.067 44.6017C220.607 43.7417 219.947 43.3117 219.087 43.3117C218.287 43.3117 217.717 43.7717 217.377 44.6917C217.057 45.5917 216.897 46.9217 216.897 48.6817ZM234.973 53.9017L236.023 53.9617H236.083C236.423 53.9617 236.593 53.7417 236.593 53.3017V38.7817C236.593 38.6017 236.533 38.4517 236.413 38.3317C236.313 38.1917 236.153 38.1317 235.933 38.1517L234.973 38.2117V37.1017H242.743C244.903 37.1017 246.493 37.4717 247.513 38.2117C248.553 38.9317 249.073 40.0617 249.073 41.6017C249.073 42.8217 248.683 43.8417 247.903 44.6617C247.143 45.4817 246.083 46.0317 244.723 46.3117C245.443 46.3117 246.173 46.5117 246.913 46.9117C247.653 47.3117 248.263 47.9017 248.743 48.6817C249.243 49.4417 249.493 50.3317 249.493 51.3517C249.493 51.9117 249.573 52.5117 249.733 53.1517C249.913 53.7717 250.123 54.1117 250.363 54.1717C250.483 54.2117 250.613 54.2317 250.753 54.2317C250.933 54.2317 251.093 54.1917 251.233 54.1117V55.0117H245.923C245.683 54.5117 245.543 53.8517 245.503 53.0317C245.463 52.5117 245.443 52.1317 245.443 51.8917V50.9017C245.443 49.5417 245.063 48.5317 244.303 47.8717C243.543 47.2117 242.623 46.8817 241.543 46.8817H240.733V53.3017C240.733 53.7417 240.933 53.9617 241.333 53.9617L242.803 53.9017V55.0117H234.973V53.9017ZM242.623 45.8317C243.343 45.8317 243.913 45.4917 244.333 44.8117C244.773 44.1117 244.993 43.1717 244.993 41.9917C244.993 40.6517 244.753 39.6817 244.273 39.0817C243.793 38.4617 243.053 38.1517 242.053 38.1517H241.093C240.853 38.1517 240.733 38.2517 240.733 38.4517V45.8317H242.623ZM255.573 35.3017C256.253 35.3017 256.803 35.4717 257.223 35.8117C257.663 36.1517 257.883 36.6017 257.883 37.1617C257.883 37.7417 257.663 38.2017 257.223 38.5417C256.803 38.8817 256.253 39.0517 255.573 39.0517C254.893 39.0517 254.333 38.8817 253.893 38.5417C253.473 38.2017 253.263 37.7417 253.263 37.1617C253.263 36.6017 253.473 36.1517 253.893 35.8117C254.333 35.4717 254.893 35.3017 255.573 35.3017ZM257.613 53.4817C257.613 53.8817 257.743 54.0717 258.003 54.0517L258.993 53.9917V55.0117H252.303V53.9917L253.293 54.0517H253.353C253.573 54.0517 253.683 53.8617 253.683 53.4817V43.7917C253.683 43.4517 253.563 43.2517 253.323 43.1917L252.333 43.2517V42.2617H257.613V53.4817ZM275.424 53.9917V55.0117H268.584V53.9917L269.724 54.0517C269.984 53.9917 270.114 53.8017 270.114 53.4817V46.2217C270.114 45.1817 270.024 44.4517 269.844 44.0317C269.684 43.5917 269.304 43.3717 268.704 43.3717C268.184 43.3717 267.674 43.5917 267.174 44.0317C266.694 44.4717 266.294 45.1217 265.974 45.9817C265.654 46.8417 265.494 47.8717 265.494 49.0717V53.4817C265.494 53.8617 265.624 54.0517 265.884 54.0517L267.054 53.9917V55.0117H260.184V53.9917L261.174 54.0517C261.434 53.9917 261.564 53.8017 261.564 53.4817V43.7917C261.564 43.4517 261.434 43.2517 261.174 43.1917L260.184 43.2517V42.2617H265.644C265.544 42.5617 265.494 42.9117 265.494 43.3117V44.9917C265.934 44.0317 266.544 43.2917 267.324 42.7717C268.124 42.2317 269.064 41.9617 270.144 41.9617C271.504 41.9617 272.494 42.3117 273.114 43.0117C273.734 43.6917 274.044 44.7717 274.044 46.2517V53.4817C274.044 53.8617 274.174 54.0517 274.434 54.0517L275.424 53.9917ZM288.056 41.5417C287.816 41.5417 287.536 41.6317 287.216 41.8117C286.896 41.9917 286.636 42.2117 286.436 42.4717C288.176 43.1517 289.046 44.3517 289.046 46.0717C289.046 47.3917 288.516 48.4217 287.456 49.1617C286.396 49.8817 284.966 50.2417 283.166 50.2417C282.326 50.2417 281.536 50.1517 280.796 49.9717C280.376 50.3317 280.166 50.7017 280.166 51.0817C280.166 51.7217 280.746 52.0417 281.906 52.0417H284.876C286.696 52.0417 288.086 52.4017 289.046 53.1217C290.006 53.8217 290.486 54.9617 290.486 56.5417C290.486 58.3617 289.796 59.7817 288.416 60.8017C287.036 61.8417 285.166 62.3617 282.806 62.3617C280.906 62.3617 279.436 62.0417 278.396 61.4017C277.356 60.7817 276.836 59.8817 276.836 58.7017C276.836 57.2217 277.836 56.0417 279.836 55.1617C279.056 55.0017 278.426 54.7217 277.946 54.3217C277.486 53.9017 277.256 53.3817 277.256 52.7617C277.256 52.3417 277.356 51.9617 277.556 51.6217C277.756 51.2817 278.126 50.8717 278.666 50.3917L279.596 49.5817C278.016 48.8817 277.226 47.7417 277.226 46.1617C277.226 44.8417 277.766 43.8117 278.846 43.0717C279.946 42.3317 281.396 41.9617 283.196 41.9617C284.096 41.9617 284.876 42.0417 285.536 42.2017C286.796 40.5417 288.046 39.7117 289.286 39.7117C289.946 39.7117 290.416 39.8717 290.696 40.1917C290.976 40.4917 291.116 40.8417 291.116 41.2417C291.116 41.5817 291.016 41.8917 290.816 42.1717C290.616 42.4517 290.296 42.5917 289.856 42.5917C289.556 42.5917 289.336 42.5417 289.196 42.4417C289.056 42.3417 288.906 42.1917 288.746 41.9917C288.626 41.8317 288.516 41.7217 288.416 41.6617C288.336 41.5817 288.216 41.5417 288.056 41.5417ZM283.076 49.3417C283.796 49.3417 284.296 49.1017 284.576 48.6217C284.876 48.1217 285.026 47.3017 285.026 46.1617C285.026 45.0217 284.876 44.2117 284.576 43.7317C284.296 43.2317 283.806 42.9817 283.106 42.9817C282.426 42.9817 281.946 43.2217 281.666 43.7017C281.386 44.1617 281.246 44.9917 281.246 46.1917C281.246 47.3717 281.376 48.1917 281.636 48.6517C281.916 49.1117 282.396 49.3417 283.076 49.3417ZM281.426 55.3417H281.366C280.866 55.5417 280.446 55.9317 280.106 56.5117C279.766 57.1117 279.596 57.7517 279.596 58.4317C279.596 59.3517 279.876 60.0717 280.436 60.5917C280.996 61.1117 281.866 61.3717 283.046 61.3717C284.326 61.3717 285.336 61.0317 286.076 60.3517C286.836 59.6717 287.216 58.7817 287.216 57.6817C287.216 56.8817 286.996 56.2917 286.556 55.9117C286.116 55.5317 285.406 55.3417 284.426 55.3417H281.426Z" fill="#FFFFFE"/>
<path d="M305.994 57.0254C305.994 60.9773 304.969 64.8618 303.02 68.2994C301.07 71.7369 298.262 74.6102 294.871 76.6386C291.479 78.667 287.619 79.7811 283.668 79.8723C279.717 79.9635 275.81 79.0285 272.329 77.1587C268.847 75.2889 265.91 72.5482 263.804 69.2042" stroke="white" stroke-width="0.330079"/>
<path d="M302.93 59.9158L303.537 58.3057C304.079 56.8656 303.644 55.2399 302.454 54.2641L301.123 53.173L302.733 53.7797C304.173 54.3223 305.799 53.8867 306.775 52.6968L307.866 51.3663L307.259 52.9764C306.717 54.4165 307.152 56.0422 308.342 57.018L309.673 58.1091L308.063 57.5024C306.622 56.9598 304.997 57.3954 304.021 58.5853L302.93 59.9158Z" fill="white"/>
<path d="M261.392 72.0852L261.999 70.4751C262.542 69.0351 262.106 67.4093 260.916 66.4335L259.586 65.3425L261.196 65.9492C262.636 66.4918 264.261 66.0562 265.237 64.8662L266.328 63.5358L265.722 65.1458C265.179 66.5859 265.615 68.2116 266.805 69.1875L268.135 70.2785L266.525 69.6718C265.085 69.1292 263.459 69.5648 262.483 70.7548L261.392 72.0852Z" fill="white"/>
<path d="M62.584 33.4004C62.584 29.4484 63.6088 25.564 65.5584 22.1264C67.508 18.6888 70.3158 15.8156 73.7075 13.7872C77.0992 11.7588 80.9589 10.6446 84.9098 10.5535C88.8608 10.4623 92.7678 11.3973 96.2494 13.2671C99.7311 15.1369 102.668 17.8776 104.774 21.2216" stroke="white" stroke-width="0.330079"/>
<path d="M65.6483 30.5105L65.0416 32.1206C64.499 33.5606 64.9346 35.1864 66.1245 36.1622L67.455 37.2532L65.8449 36.6466C64.4048 36.1039 62.7791 36.5395 61.8033 37.7295L60.7122 39.0599L61.3189 37.4499C61.8615 36.0098 61.4259 34.3841 60.236 33.4082L58.9055 32.3172L60.5156 32.9239C61.9557 33.4665 63.5814 33.0309 64.5572 31.8409L65.6483 30.5105Z" fill="white"/>
<path d="M107.186 18.3411L106.579 19.9512C106.037 21.3912 106.472 23.0169 107.662 23.9928L108.993 25.0838L107.382 24.4771C105.942 23.9345 104.317 24.3701 103.341 25.5601L102.25 26.8905L102.857 25.2804C103.399 23.8404 102.964 22.2146 101.774 21.2388L100.443 20.1478L102.053 20.7545C103.493 21.2971 105.119 20.8615 106.095 19.6715L107.186 18.3411Z" fill="white"/>
</svg>
