<svg width="35" height="35" viewBox="0 0 35 35" fill="none" xmlns="http://www.w3.org/2000/svg">
<path d="M12.7502 29.1282C13.1892 28.9899 13.4329 28.522 13.2947 28.083C13.1564 27.644 12.6885 27.4002 12.2495 27.5385L12.7502 29.1282ZM4.25312 22.8606L3.4471 22.649L3.02387 24.2611L3.82989 24.4727L4.25312 22.8606ZM21.6665 34.1667V35H23.3331V34.1667H21.6665ZM21.6665 22.5L21.5774 21.6714C21.2579 21.7058 20.9866 21.9208 20.8802 22.2241C20.7737 22.5273 20.8512 22.8647 21.0792 23.0912L21.6665 22.5ZM29.1665 13.7958L29.9998 13.7958L29.9998 13.7931L29.1665 13.7958ZM27.2225 9.11458L26.4457 8.81289C26.3263 9.12039 26.3995 9.4694 26.6324 9.70299L27.2225 9.11458ZM27.1059 4.40854L27.8668 4.06873C27.7663 3.84386 27.5716 3.67493 27.3348 3.60727L27.1059 4.40854ZM22.0367 6.25625L21.8265 7.06264C22.0524 7.12153 22.2927 7.08294 22.4888 6.95625L22.0367 6.25625ZM12.9629 6.25625L12.5109 6.95634C12.707 7.08295 12.9473 7.12152 13.1731 7.06264L12.9629 6.25625ZM7.89377 4.40854L7.66464 3.60733C7.42793 3.67502 7.23327 3.84393 7.13287 4.06873L7.89377 4.40854ZM7.77711 9.11458L8.36716 9.70304C8.60012 9.46945 8.67335 9.12042 8.55391 8.81289L7.77711 9.11458ZM5.83315 13.8337L6.66649 13.8337L6.66648 13.8316L5.83315 13.8337ZM13.3332 22.5L13.9214 23.0903C14.1476 22.8648 14.2251 22.53 14.1209 22.2282C14.0167 21.9263 13.7492 21.7105 13.4322 21.6726L13.3332 22.5ZM12.4998 26H13.3332C13.3332 25.9796 13.3324 25.9593 13.3309 25.939L12.4998 26ZM11.6665 34.1667V35H13.3332V34.1667H11.6665ZM12.2495 27.5385C10.798 27.9957 9.83091 27.9591 9.154 27.7357C8.47955 27.5131 7.97825 27.0676 7.5253 26.4772C7.29685 26.1793 7.08899 25.8557 6.87714 25.5128C6.67268 25.1818 6.45251 24.8124 6.22838 24.4818C5.78985 23.8351 5.19196 23.1071 4.25312 22.8606L3.82989 24.4727C4.14084 24.5543 4.44384 24.8198 4.84895 25.4172C5.04665 25.7088 5.23398 26.0241 5.45919 26.3887C5.67699 26.7413 5.92095 27.124 6.20292 27.4916C6.7708 28.2319 7.52476 28.9531 8.63167 29.3184C9.7361 29.6829 11.0765 29.6554 12.7502 29.1282L12.2495 27.5385ZM23.3331 25.8542C23.3331 24.4978 23.4199 23.0671 22.2538 21.9088L21.0792 23.0912C21.6602 23.6683 21.6665 24.2939 21.6665 25.8542H23.3331ZM21.7555 23.3286C23.8356 23.105 25.9393 22.6097 27.51 21.1505C29.1065 19.6672 29.9998 17.3374 29.9998 13.7958H28.3331C28.3331 17.0705 27.5116 18.8741 26.3756 19.9294C25.2138 21.0088 23.5676 21.4575 21.5774 21.6714L21.7555 23.3286ZM29.9998 13.7931C29.9934 11.8178 29.2074 9.92493 27.8126 8.52617L26.6324 9.70299C27.717 10.7907 28.3282 12.2625 28.3332 13.7985L29.9998 13.7931ZM27.9993 9.41627C28.3317 8.56039 28.4912 7.64711 28.4684 6.72923L26.8023 6.77053C26.8195 7.46819 26.6984 8.16236 26.4457 8.81289L27.9993 9.41627ZM28.4684 6.72923C28.4457 5.81135 28.2412 4.90709 27.8668 4.06873L26.345 4.74835C26.6295 5.38557 26.785 6.07288 26.8023 6.77053L28.4684 6.72923ZM27.1059 4.40854C27.3348 3.60727 27.334 3.60705 27.3332 3.60682C27.3329 3.60674 27.3321 3.60652 27.3316 3.60637C27.3305 3.60606 27.3294 3.60575 27.3283 3.60543C27.326 3.6048 27.3236 3.60416 27.3212 3.60349C27.3162 3.60217 27.3109 3.60077 27.3052 3.59933C27.2937 3.59644 27.2807 3.59335 27.2661 3.59016C27.237 3.58377 27.2015 3.57697 27.1598 3.57055C27.0762 3.55769 26.9677 3.54643 26.8336 3.54285C26.5649 3.53568 26.197 3.55941 25.7239 3.6605C24.7788 3.86242 23.4182 4.37187 21.5845 5.55624L22.4888 6.95625C24.1931 5.85542 25.3671 5.44102 26.0721 5.29038C26.424 5.2152 26.66 5.20548 26.7891 5.20892C26.8538 5.21065 26.8926 5.21571 26.9065 5.21786C26.9135 5.21894 26.9145 5.21931 26.9094 5.21821C26.9069 5.21766 26.903 5.21675 26.8975 5.21538C26.8948 5.21469 26.8917 5.21389 26.8883 5.21297C26.8866 5.21251 26.8848 5.21201 26.8829 5.21149C26.8819 5.21123 26.881 5.21095 26.88 5.21067C26.8795 5.21053 26.8787 5.21032 26.8785 5.21025C26.8777 5.21003 26.8769 5.20981 27.1059 4.40854ZM22.2469 5.44986C19.1342 4.63851 15.8655 4.63851 12.7527 5.44986L13.1731 7.06264C16.0102 6.32314 18.9894 6.32314 21.8265 7.06264L22.2469 5.44986ZM13.415 5.55616C11.5807 4.37185 10.2201 3.86242 9.27524 3.66051C8.80219 3.55942 8.4344 3.53568 8.16585 3.54285C8.03178 3.54643 7.9233 3.5577 7.8397 3.57056C7.79793 3.57699 7.76251 3.58379 7.73333 3.59019C7.71874 3.59339 7.70573 3.59648 7.69428 3.59937C7.68856 3.60082 7.68322 3.60221 7.67828 3.60354C7.67581 3.60421 7.67344 3.60486 7.67117 3.60549C7.67003 3.6058 7.66892 3.60612 7.66783 3.60642C7.66729 3.60658 7.66649 3.6068 7.66622 3.60688C7.66542 3.6071 7.66464 3.60733 7.89377 4.40854C8.12291 5.20975 8.12214 5.20997 8.12137 5.21019C8.12112 5.21026 8.12036 5.21048 8.11986 5.21062C8.11886 5.2109 8.11789 5.21117 8.11694 5.21143C8.11504 5.21196 8.11323 5.21246 8.11151 5.21292C8.10807 5.21385 8.10498 5.21465 8.10226 5.21533C8.09682 5.21671 8.09283 5.21763 8.09031 5.21818C8.08527 5.21928 8.08616 5.21892 8.09315 5.21785C8.10703 5.21571 8.14572 5.21065 8.21036 5.20892C8.33926 5.20548 8.57512 5.21519 8.92694 5.29037C9.63183 5.44101 10.8058 5.85543 12.5109 6.95634L13.415 5.55616ZM7.13287 4.06873C6.75847 4.90709 6.55398 5.81135 6.53123 6.72923L8.19738 6.77053C8.21468 6.07288 8.3701 5.38557 8.65468 4.74835L7.13287 4.06873ZM6.53123 6.72923C6.50847 7.64711 6.6679 8.56039 7.0003 9.41627L8.55391 8.81289C8.30127 8.16236 8.18009 7.46819 8.19738 6.77053L6.53123 6.72923ZM7.18706 8.52612C6.49121 9.22384 5.93983 10.052 5.56451 10.9631L7.10555 11.5979C7.39738 10.8895 7.8261 10.2456 8.36716 9.70304L7.18706 8.52612ZM5.56451 10.9631C5.18919 11.8743 4.9973 12.8505 4.99982 13.8359L6.66648 13.8316C6.66452 13.0654 6.81372 12.3064 7.10555 11.5979L5.56451 10.9631ZM4.99982 13.8337C4.99982 17.3529 5.89441 19.6612 7.49191 21.1343C9.06035 22.5806 11.161 23.0793 13.2342 23.3274L13.4322 21.6726C11.4351 21.4336 9.78577 20.9825 8.62175 19.9091C7.4868 18.8625 6.66648 17.0813 6.66648 13.8337H4.99982ZM12.7449 21.9097C12.1516 22.501 11.8697 23.2602 11.7404 23.9775C11.611 24.6954 11.6228 25.4349 11.6687 26.061L13.3309 25.939C13.2894 25.3736 13.287 24.7926 13.3806 24.2732C13.4744 23.7531 13.6529 23.3579 13.9214 23.0903L12.7449 21.9097ZM11.6665 26V34.1667H13.3332V26H11.6665ZM23.3331 34.1667V25.8542H21.6665V34.1667H23.3331Z" fill="white"/>
</svg>
