<svg width="355" height="91" viewBox="0 0 355 91" fill="none" xmlns="http://www.w3.org/2000/svg">
<path d="M341.319 57.3579C341.319 61.3099 340.508 65.1943 338.967 68.6319C337.425 72.0695 335.206 74.9427 332.524 76.9711C329.842 78.9995 326.791 80.1137 323.667 80.2048C320.543 80.296 317.454 79.361 314.701 77.4912C311.948 75.6214 309.626 72.8807 307.961 69.5367" stroke="white" stroke-width="0.330079"/>
<path d="M338.896 60.2483L339.375 58.6382C339.804 57.1981 339.46 55.5724 338.519 54.5966L337.467 53.5056L338.74 54.1122C339.879 54.6549 341.164 54.2192 341.936 53.0293L342.798 51.6988L342.319 53.3089C341.89 54.749 342.234 56.3747 343.175 57.3505L344.227 58.4416L342.954 57.8349C341.815 57.2923 340.53 57.7279 339.758 58.9178L338.896 60.2483Z" fill="white"/>
<path d="M306.054 72.4177L306.534 70.8076C306.963 69.3676 306.619 67.7418 305.678 66.766L304.626 65.675L305.899 66.2817C307.037 66.8243 308.323 66.3887 309.094 65.1987L309.957 63.8683L309.477 65.4784C309.048 66.9184 309.393 68.5442 310.333 69.52L311.385 70.611L310.112 70.0043C308.974 69.4617 307.688 69.8973 306.917 71.0873L306.054 72.4177Z" fill="white"/>
<path d="M18.9963 33.4004C18.9963 29.4484 19.8066 25.564 21.3481 22.1264C22.8895 18.6888 25.1094 15.8156 27.7911 13.7872C30.4727 11.7588 33.5244 10.6446 36.6482 10.5535C39.7719 10.4623 42.861 11.3973 45.6138 13.2671C48.3665 15.1369 50.6888 17.8776 52.354 21.2216" stroke="white" stroke-width="0.330079"/>
<path d="M21.4189 30.5105L20.9392 32.1206C20.5102 33.5606 20.8546 35.1864 21.7954 36.1622L22.8473 37.2532L21.5743 36.6466C20.4357 36.1039 19.1504 36.5395 18.3788 37.7295L17.5162 39.0599L17.9959 37.4499C18.4249 36.0098 18.0805 34.3841 17.1397 33.4082L16.0877 32.3172L17.3607 32.9239C18.4993 33.4665 19.7847 33.0309 20.5562 31.8409L21.4189 30.5105Z" fill="white"/>
<path d="M54.2607 18.3411L53.781 19.9512C53.352 21.3912 53.6964 23.0169 54.6372 23.9928L55.6891 25.0838L54.4161 24.4771C53.2775 23.9345 51.9922 24.3701 51.2206 25.5601L50.358 26.8905L50.8377 25.2804C51.2667 23.8404 50.9223 22.2146 49.9814 21.2388L48.9295 20.1478L50.2025 20.7545C51.3411 21.2971 52.6265 20.8615 53.398 19.6715L54.2607 18.3411Z" fill="white"/>
<path d="M33.6505 50.89L34.7005 50.95H34.7605C35.1005 50.95 35.2705 50.73 35.2705 50.29V35.77C35.2705 35.33 35.0805 35.12 34.7005 35.14L33.6505 35.2V34.09H41.4805V35.2L40.0105 35.14H39.9505C39.7705 35.14 39.6305 35.2 39.5305 35.32C39.4505 35.44 39.4105 35.59 39.4105 35.77V42.34H46.4305V35.77C46.4305 35.33 46.2405 35.12 45.8605 35.14L44.3905 35.2V34.09H52.1905V35.2L51.1405 35.14H51.0805C50.9205 35.14 50.7905 35.2 50.6905 35.32C50.6105 35.44 50.5705 35.59 50.5705 35.77V50.29C50.5705 50.75 50.7605 50.97 51.1405 50.95L52.1905 50.89V52H44.3905V50.89L45.8605 50.95C46.2405 50.95 46.4305 50.73 46.4305 50.29V43.39H39.4105V50.29C39.4105 50.73 39.6105 50.95 40.0105 50.95L41.4805 50.89V52H33.6505V50.89ZM53.9691 45.61C53.9691 43.45 54.5291 41.8 55.6491 40.66C56.7691 39.52 58.4491 38.95 60.6891 38.95C62.9491 38.95 64.6291 39.52 65.7291 40.66C66.8291 41.8 67.3791 43.45 67.3791 45.61C67.3791 50.07 65.1491 52.3 60.6891 52.3C58.4491 52.3 56.7691 51.73 55.6491 50.59C54.5291 49.45 53.9691 47.79 53.9691 45.61ZM58.1691 45.67C58.1691 47.69 58.3591 49.13 58.7391 49.99C59.1391 50.83 59.7891 51.25 60.6891 51.25C61.5891 51.25 62.2291 50.83 62.6091 49.99C62.9891 49.15 63.1791 47.71 63.1791 45.67C63.1791 43.59 62.9891 42.12 62.6091 41.26C62.2291 40.4 61.5891 39.97 60.6891 39.97C59.7891 39.97 59.1391 40.4 58.7391 41.26C58.3591 42.12 58.1691 43.59 58.1691 45.67ZM89.6853 39.25V40.24L88.5753 40.18C88.2953 40.18 88.0853 40.35 87.9453 40.69L83.5053 52.3H82.0953L78.4353 43.72L74.6253 52.3H73.3053L69.0753 40.57C68.9553 40.31 68.7853 40.18 68.5653 40.18L67.3053 40.24V39.25H74.9253V40.24L73.6053 40.18H73.5453C73.3653 40.18 73.2353 40.24 73.1553 40.36C73.0953 40.48 73.0953 40.62 73.1553 40.78L75.6153 47.68L79.2753 39.1H80.7153L84.2553 47.5L86.7453 40.69L86.8053 40.45C86.8053 40.25 86.6753 40.16 86.4153 40.18L84.8253 40.24V39.25H89.6853ZM121.493 50.89V52H113.633V50.89L115.103 50.95C115.503 50.95 115.703 50.73 115.703 50.29V36.97L108.803 52.3H107.843L100.133 36.19V50.29C100.133 50.73 100.323 50.95 100.703 50.95L102.173 50.89V52H97.1333V50.89L98.3033 50.95C98.7033 50.95 98.9033 50.73 98.9033 50.29V35.32C98.9033 35.18 98.8033 35.12 98.6033 35.14L97.3433 35.2V34.09H103.523L109.823 47.17L115.733 34.09H121.343V35.2L120.413 35.14H120.353C120.193 35.14 120.063 35.2 119.963 35.32C119.863 35.44 119.813 35.58 119.813 35.74V50.29C119.813 50.77 120.013 50.99 120.413 50.95L121.493 50.89ZM123.227 45.61C123.227 43.45 123.787 41.8 124.907 40.66C126.027 39.52 127.707 38.95 129.947 38.95C132.207 38.95 133.887 39.52 134.987 40.66C136.087 41.8 136.637 43.45 136.637 45.61C136.637 50.07 134.407 52.3 129.947 52.3C127.707 52.3 126.027 51.73 124.907 50.59C123.787 49.45 123.227 47.79 123.227 45.61ZM127.427 45.67C127.427 47.69 127.617 49.13 127.997 49.99C128.397 50.83 129.047 51.25 129.947 51.25C130.847 51.25 131.487 50.83 131.867 49.99C132.247 49.15 132.437 47.71 132.437 45.67C132.437 43.59 132.247 42.12 131.867 41.26C131.487 40.4 130.847 39.97 129.947 39.97C129.047 39.97 128.397 40.4 127.997 41.26C127.617 42.12 127.427 43.59 127.427 45.67ZM137.846 45.61C137.846 43.45 138.406 41.8 139.526 40.66C140.646 39.52 142.326 38.95 144.566 38.95C146.826 38.95 148.506 39.52 149.606 40.66C150.706 41.8 151.256 43.45 151.256 45.61C151.256 50.07 149.026 52.3 144.566 52.3C142.326 52.3 140.646 51.73 139.526 50.59C138.406 49.45 137.846 47.79 137.846 45.61ZM142.046 45.67C142.046 47.69 142.236 49.13 142.616 49.99C143.016 50.83 143.666 51.25 144.566 51.25C145.466 51.25 146.106 50.83 146.486 49.99C146.866 49.15 147.056 47.71 147.056 45.67C147.056 43.59 146.866 42.12 146.486 41.26C146.106 40.4 145.466 39.97 144.566 39.97C143.666 39.97 143.016 40.4 142.616 41.26C142.236 42.12 142.046 43.59 142.046 45.67ZM152.585 45.67C152.585 43.45 153.035 41.78 153.935 40.66C154.855 39.52 156.205 38.95 157.985 38.95C158.905 38.95 159.695 39.18 160.355 39.64C161.035 40.08 161.485 40.63 161.705 41.29V31.6C161.705 31.2 161.575 31 161.315 31L159.935 31.06V30.1H165.635V50.47C165.635 50.85 165.765 51.04 166.025 51.04L167.015 50.98V52H161.495C161.535 51.84 161.555 51.68 161.555 51.52V50.86C161.555 50.64 161.565 50.47 161.585 50.35C161.605 50.23 161.615 50.15 161.615 50.11C161.355 50.79 160.925 51.33 160.325 51.73C159.725 52.11 158.955 52.3 158.015 52.3C156.075 52.3 154.685 51.76 153.845 50.68C153.005 49.6 152.585 47.93 152.585 45.67ZM156.785 45.67C156.785 47.01 156.845 48.05 156.965 48.79C157.105 49.53 157.335 50.07 157.655 50.41C157.975 50.75 158.425 50.92 159.005 50.92C159.905 50.92 160.565 50.55 160.985 49.81C161.425 49.05 161.645 47.92 161.645 46.42V45.13C161.645 43.61 161.415 42.43 160.955 41.59C160.495 40.73 159.835 40.3 158.975 40.3C158.175 40.3 157.605 40.76 157.265 41.68C156.945 42.58 156.785 43.91 156.785 45.67ZM174.861 50.89L175.911 50.95H175.971C176.311 50.95 176.481 50.73 176.481 50.29V35.77C176.481 35.59 176.421 35.44 176.301 35.32C176.201 35.18 176.041 35.12 175.821 35.14L174.861 35.2V34.09H182.631C184.791 34.09 186.381 34.46 187.401 35.2C188.441 35.92 188.961 37.05 188.961 38.59C188.961 39.81 188.571 40.83 187.791 41.65C187.031 42.47 185.971 43.02 184.611 43.3C185.331 43.3 186.061 43.5 186.801 43.9C187.541 44.3 188.151 44.89 188.631 45.67C189.131 46.43 189.381 47.32 189.381 48.34C189.381 48.9 189.461 49.5 189.621 50.14C189.801 50.76 190.011 51.1 190.251 51.16C190.371 51.2 190.501 51.22 190.641 51.22C190.821 51.22 190.981 51.18 191.121 51.1V52H185.811C185.571 51.5 185.431 50.84 185.391 50.02C185.351 49.5 185.331 49.12 185.331 48.88V47.89C185.331 46.53 184.951 45.52 184.191 44.86C183.431 44.2 182.511 43.87 181.431 43.87H180.621V50.29C180.621 50.73 180.821 50.95 181.221 50.95L182.691 50.89V52H174.861V50.89ZM182.511 42.82C183.231 42.82 183.801 42.48 184.221 41.8C184.661 41.1 184.881 40.16 184.881 38.98C184.881 37.64 184.641 36.67 184.161 36.07C183.681 35.45 182.941 35.14 181.941 35.14H180.981C180.741 35.14 180.621 35.24 180.621 35.44V42.82H182.511ZM195.462 32.29C196.142 32.29 196.692 32.46 197.112 32.8C197.552 33.14 197.772 33.59 197.772 34.15C197.772 34.73 197.552 35.19 197.112 35.53C196.692 35.87 196.142 36.04 195.462 36.04C194.782 36.04 194.222 35.87 193.782 35.53C193.362 35.19 193.152 34.73 193.152 34.15C193.152 33.59 193.362 33.14 193.782 32.8C194.222 32.46 194.782 32.29 195.462 32.29ZM197.502 50.47C197.502 50.87 197.632 51.06 197.892 51.04L198.882 50.98V52H192.192V50.98L193.182 51.04H193.242C193.462 51.04 193.572 50.85 193.572 50.47V40.78C193.572 40.44 193.452 40.24 193.212 40.18L192.222 40.24V39.25H197.502V50.47ZM215.313 50.98V52H208.473V50.98L209.613 51.04C209.873 50.98 210.003 50.79 210.003 50.47V43.21C210.003 42.17 209.913 41.44 209.733 41.02C209.573 40.58 209.193 40.36 208.593 40.36C208.073 40.36 207.563 40.58 207.063 41.02C206.583 41.46 206.183 42.11 205.863 42.97C205.543 43.83 205.383 44.86 205.383 46.06V50.47C205.383 50.85 205.513 51.04 205.773 51.04L206.943 50.98V52H200.073V50.98L201.063 51.04C201.323 50.98 201.453 50.79 201.453 50.47V40.78C201.453 40.44 201.323 40.24 201.063 40.18L200.073 40.24V39.25H205.533C205.433 39.55 205.383 39.9 205.383 40.3V41.98C205.823 41.02 206.433 40.28 207.213 39.76C208.013 39.22 208.953 38.95 210.033 38.95C211.393 38.95 212.383 39.3 213.003 40C213.623 40.68 213.933 41.76 213.933 43.24V50.47C213.933 50.85 214.063 51.04 214.323 51.04L215.313 50.98ZM227.945 38.53C227.705 38.53 227.425 38.62 227.105 38.8C226.785 38.98 226.525 39.2 226.325 39.46C228.065 40.14 228.935 41.34 228.935 43.06C228.935 44.38 228.405 45.41 227.345 46.15C226.285 46.87 224.855 47.23 223.055 47.23C222.215 47.23 221.425 47.14 220.685 46.96C220.265 47.32 220.055 47.69 220.055 48.07C220.055 48.71 220.635 49.03 221.795 49.03H224.765C226.585 49.03 227.975 49.39 228.935 50.11C229.895 50.81 230.375 51.95 230.375 53.53C230.375 55.35 229.685 56.77 228.305 57.79C226.925 58.83 225.055 59.35 222.695 59.35C220.795 59.35 219.325 59.03 218.285 58.39C217.245 57.77 216.725 56.87 216.725 55.69C216.725 54.21 217.725 53.03 219.725 52.15C218.945 51.99 218.315 51.71 217.835 51.31C217.375 50.89 217.145 50.37 217.145 49.75C217.145 49.33 217.245 48.95 217.445 48.61C217.645 48.27 218.015 47.86 218.555 47.38L219.485 46.57C217.905 45.87 217.115 44.73 217.115 43.15C217.115 41.83 217.655 40.8 218.735 40.06C219.835 39.32 221.285 38.95 223.085 38.95C223.985 38.95 224.765 39.03 225.425 39.19C226.685 37.53 227.935 36.7 229.175 36.7C229.835 36.7 230.305 36.86 230.585 37.18C230.865 37.48 231.005 37.83 231.005 38.23C231.005 38.57 230.905 38.88 230.705 39.16C230.505 39.44 230.185 39.58 229.745 39.58C229.445 39.58 229.225 39.53 229.085 39.43C228.945 39.33 228.795 39.18 228.635 38.98C228.515 38.82 228.405 38.71 228.305 38.65C228.225 38.57 228.105 38.53 227.945 38.53ZM222.965 46.33C223.685 46.33 224.185 46.09 224.465 45.61C224.765 45.11 224.915 44.29 224.915 43.15C224.915 42.01 224.765 41.2 224.465 40.72C224.185 40.22 223.695 39.97 222.995 39.97C222.315 39.97 221.835 40.21 221.555 40.69C221.275 41.15 221.135 41.98 221.135 43.18C221.135 44.36 221.265 45.18 221.525 45.64C221.805 46.1 222.285 46.33 222.965 46.33ZM221.315 52.33H221.255C220.755 52.53 220.335 52.92 219.995 53.5C219.655 54.1 219.485 54.74 219.485 55.42C219.485 56.34 219.765 57.06 220.325 57.58C220.885 58.1 221.755 58.36 222.935 58.36C224.215 58.36 225.225 58.02 225.965 57.34C226.725 56.66 227.105 55.77 227.105 54.67C227.105 53.87 226.885 53.28 226.445 52.9C226.005 52.52 225.295 52.33 224.315 52.33H221.315ZM240.989 32.29C241.669 32.29 242.219 32.46 242.639 32.8C243.079 33.14 243.299 33.59 243.299 34.15C243.299 34.73 243.079 35.19 242.639 35.53C242.219 35.87 241.669 36.04 240.989 36.04C240.309 36.04 239.749 35.87 239.309 35.53C238.889 35.19 238.679 34.73 238.679 34.15C238.679 33.59 238.889 33.14 239.309 32.8C239.749 32.46 240.309 32.29 240.989 32.29ZM243.029 50.47C243.029 50.87 243.159 51.06 243.419 51.04L244.409 50.98V52H237.719V50.98L238.709 51.04H238.769C238.989 51.04 239.099 50.85 239.099 50.47V40.78C239.099 40.44 238.979 40.24 238.739 40.18L237.749 40.24V39.25H243.029V50.47ZM246.2 47.74L247.22 47.68C247.22 48.7 247.64 49.55 248.48 50.23C249.34 50.91 250.37 51.25 251.57 51.25C252.23 51.25 252.75 51.1 253.13 50.8C253.53 50.48 253.73 50.04 253.73 49.48C253.73 49.02 253.58 48.66 253.28 48.4C253 48.12 252.51 47.89 251.81 47.71L249.65 47.11C248.49 46.79 247.63 46.3 247.07 45.64C246.53 44.98 246.26 44.14 246.26 43.12C246.26 41.88 246.69 40.88 247.55 40.12C248.41 39.34 249.62 38.95 251.18 38.95C251.6 38.95 251.98 38.98 252.32 39.04C252.66 39.1 253.08 39.2 253.58 39.34C254.22 39.52 254.72 39.61 255.08 39.61C255.4 39.61 255.7 39.53 255.98 39.37L255.8 42.79H254.9C254.9 42.03 254.58 41.37 253.94 40.81C253.32 40.25 252.47 39.97 251.39 39.97C250.77 39.97 250.27 40.13 249.89 40.45C249.53 40.75 249.35 41.13 249.35 41.59C249.35 41.97 249.49 42.3 249.77 42.58C250.05 42.84 250.46 43.04 251 43.18L253.07 43.72C254.45 44.08 255.39 44.59 255.89 45.25C256.41 45.91 256.67 46.76 256.67 47.8C256.67 49.22 256.19 50.33 255.23 51.13C254.27 51.91 253 52.3 251.42 52.3C250.96 52.3 250.49 52.25 250.01 52.15C249.55 52.07 248.82 51.9 247.82 51.64C247.5 51.56 247.22 51.52 246.98 51.52C246.54 51.52 246.23 51.58 246.05 51.7L246.2 47.74ZM274.104 34.09C275.804 34.09 277.094 34.45 277.974 35.17C278.854 35.89 279.294 36.96 279.294 38.38C279.294 39.44 278.914 40.34 278.154 41.08C277.414 41.8 276.414 42.27 275.154 42.49C276.094 42.49 276.954 42.69 277.734 43.09C278.514 43.49 279.134 44.05 279.594 44.77C280.054 45.47 280.284 46.26 280.284 47.14C280.284 50.38 278.074 52 273.654 52H264.774V50.89L266.214 50.95C266.534 50.95 266.694 50.73 266.694 50.29V35.74C266.694 35.6 266.644 35.47 266.544 35.35C266.464 35.21 266.344 35.14 266.184 35.14L264.774 35.2V34.09H274.104ZM271.194 35.14C270.994 35.14 270.874 35.26 270.834 35.5V42.13H272.394C273.314 42.13 273.994 41.85 274.434 41.29C274.874 40.71 275.094 39.79 275.094 38.53C275.094 36.27 274.174 35.14 272.334 35.14H271.194ZM270.834 43.18V50.53C270.834 50.79 270.974 50.92 271.254 50.92H272.724C273.744 50.92 274.544 50.6 275.124 49.96C275.724 49.32 276.024 48.36 276.024 47.08C276.024 45.72 275.784 44.73 275.304 44.11C274.824 43.49 274.094 43.18 273.114 43.18H270.834ZM296.395 50.98V52H290.905C291.005 51.7 291.055 51.26 291.055 50.68V49.33C290.155 51.31 288.635 52.3 286.495 52.3C285.195 52.3 284.245 51.95 283.645 51.25C283.045 50.53 282.745 49.4 282.745 47.86V40.75C282.745 40.37 282.615 40.18 282.355 40.18L281.365 40.24V39.25H286.675V48.04C286.675 49.06 286.755 49.79 286.915 50.23C287.095 50.67 287.455 50.89 287.995 50.89C288.475 50.89 288.945 50.68 289.405 50.26C289.885 49.84 290.275 49.22 290.575 48.4C290.875 47.56 291.035 46.56 291.055 45.4V40.78C291.055 40.38 290.935 40.18 290.695 40.18L289.525 40.24V39.25H295.015V50.47C295.015 50.83 295.145 51.02 295.405 51.04L296.395 50.98ZM300.872 32.29C301.552 32.29 302.102 32.46 302.522 32.8C302.962 33.14 303.182 33.59 303.182 34.15C303.182 34.73 302.962 35.19 302.522 35.53C302.102 35.87 301.552 36.04 300.872 36.04C300.192 36.04 299.632 35.87 299.192 35.53C298.772 35.19 298.562 34.73 298.562 34.15C298.562 33.59 298.772 33.14 299.192 32.8C299.632 32.46 300.192 32.29 300.872 32.29ZM302.912 50.47C302.912 50.87 303.042 51.06 303.302 51.04L304.292 50.98V52H297.602V50.98L298.592 51.04H298.652C298.872 51.04 298.982 50.85 298.982 50.47V40.78C298.982 40.44 298.862 40.24 298.622 40.18L297.632 40.24V39.25H302.912V50.47ZM305.483 50.98L306.473 51.04C306.733 50.98 306.863 50.79 306.863 50.47V31.6C306.863 31.26 306.743 31.05 306.503 30.97L305.513 31.03V30.07H310.793V50.47C310.793 50.87 310.923 51.06 311.183 51.04L312.173 50.98V52H305.483V50.98ZM318.794 39.25H321.764V40.21H318.794V49.39C318.794 50.09 318.884 50.56 319.064 50.8C319.244 51.04 319.524 51.16 319.904 51.16C320.144 51.16 320.394 51.06 320.654 50.86C320.934 50.64 321.144 50.35 321.284 49.99L322.094 50.44C321.834 51.08 321.424 51.55 320.864 51.85C320.324 52.13 319.634 52.27 318.794 52.27C317.574 52.27 316.614 52.04 315.914 51.58C315.214 51.1 314.864 50.35 314.864 49.33V40.21H313.064V39.25C313.864 39.25 314.474 39.18 314.894 39.04C315.314 38.88 315.644 38.59 315.884 38.17C316.144 37.75 316.384 37.09 316.604 36.19H318.794V39.25Z" fill="#FFFFFE"/>
</svg>
