<svg width="290" height="48" viewBox="0 0 290 48" fill="none" xmlns="http://www.w3.org/2000/svg">
<path d="M122.639 27.7H123.539C123.539 28.6667 123.739 29.5583 124.139 30.375C124.555 31.1917 125.23 31.6 126.164 31.6C126.964 31.6 127.539 31.2917 127.889 30.675C128.239 30.0583 128.414 29.0083 128.414 27.525V18.3C128.414 18.15 128.364 18.025 128.264 17.925C128.18 17.8083 128.072 17.7583 127.939 17.775L126.214 17.825V17.075H132.189V17.825L131.239 17.775H131.189C131.055 17.775 130.947 17.825 130.864 17.925C130.78 18.025 130.739 18.1417 130.739 18.275V27.525C130.739 30.675 129.347 32.25 126.564 32.25C126.047 32.25 125.372 32.175 124.539 32.025C124.005 31.925 123.664 31.875 123.514 31.875H123.314C122.964 31.875 122.739 31.925 122.639 32.025V27.7ZM144.068 31.35V32H140.518C140.535 31.8833 140.551 31.7333 140.568 31.55C140.601 31.35 140.618 31.1917 140.618 31.075L140.668 30.1C140.301 30.8167 139.826 31.3333 139.243 31.65C138.676 31.9667 137.993 32.125 137.193 32.125C136.143 32.125 135.343 31.8917 134.793 31.425C134.26 30.9417 133.993 30.2333 133.993 29.3C133.993 28.0167 134.526 27.075 135.593 26.475C136.676 25.8583 138.368 25.55 140.668 25.55V24.1C140.668 23.3167 140.485 22.7583 140.118 22.425C139.751 22.0917 139.16 21.925 138.343 21.925C137.076 21.925 136.443 22.275 136.443 22.975C136.443 23.1083 136.476 23.2667 136.543 23.45C136.626 23.6167 136.668 23.775 136.668 23.925C136.668 24.2083 136.576 24.425 136.393 24.575C136.21 24.7083 135.976 24.775 135.693 24.775C135.343 24.775 135.068 24.6667 134.868 24.45C134.685 24.2333 134.593 23.95 134.593 23.6C134.593 22.9 134.96 22.3333 135.693 21.9C136.426 21.4667 137.41 21.25 138.643 21.25C141.426 21.25 142.818 22.425 142.818 24.775V30.925C142.818 31.2417 142.926 31.4 143.143 31.4L144.068 31.35ZM137.943 31.225C138.676 31.225 139.301 30.925 139.818 30.325C140.335 29.7083 140.618 28.9167 140.668 27.95V26.225C139.101 26.225 137.976 26.4583 137.293 26.925C136.61 27.375 136.268 28.1 136.268 29.1C136.268 29.8 136.41 30.3333 136.693 30.7C136.993 31.05 137.41 31.225 137.943 31.225ZM150.373 21.25C151.056 21.25 151.689 21.3667 152.273 21.6C152.873 21.8167 153.348 22.125 153.698 22.525C154.064 22.9083 154.248 23.3333 154.248 23.8C154.248 24.15 154.148 24.45 153.948 24.7C153.764 24.9333 153.464 25.05 153.048 25.05C152.464 25.05 152.173 24.8 152.173 24.3C152.173 24.1667 152.206 24 152.273 23.8C152.356 23.6 152.398 23.4083 152.398 23.225C152.398 22.8083 152.206 22.4917 151.823 22.275C151.439 22.0417 150.981 21.925 150.448 21.925C149.581 21.925 148.923 22.275 148.473 22.975C148.023 23.675 147.798 24.875 147.798 26.575C147.798 28.2583 148.031 29.5167 148.498 30.35C148.964 31.1667 149.673 31.575 150.623 31.575C151.456 31.575 152.198 31.3417 152.848 30.875C153.514 30.4083 153.948 29.75 154.148 28.9L154.748 29.35C154.448 30.25 153.931 30.9583 153.198 31.475C152.481 31.9917 151.581 32.25 150.498 32.25C148.931 32.25 147.698 31.775 146.798 30.825C145.914 29.8583 145.473 28.5333 145.473 26.85C145.473 25.7167 145.673 24.7333 146.073 23.9C146.489 23.05 147.064 22.4 147.798 21.95C148.548 21.4833 149.406 21.25 150.373 21.25ZM167.793 31.35V32H162.418V31.35L163.543 31.4H163.593C163.71 31.4 163.785 31.3667 163.818 31.3C163.851 31.2167 163.835 31.1333 163.768 31.05L160.293 26.25L159.468 26.95V30.925C159.468 31.2417 159.576 31.4 159.793 31.4L160.943 31.35V32H156.068V31.35L156.993 31.4C157.21 31.35 157.318 31.1917 157.318 30.925V14.85C157.318 14.5 157.218 14.325 157.018 14.325L156.093 14.375V13.75H159.468V26.075L163.543 22.575C163.643 22.475 163.693 22.3667 163.693 22.25C163.693 22.2 163.668 22.1583 163.618 22.125C163.585 22.075 163.535 22.0583 163.468 22.075L162.393 22.125V21.5H166.443V22.125L165.543 22.075C165.293 22.075 165.035 22.1917 164.768 22.425L161.843 24.925L166.218 30.95C166.318 31.0833 166.426 31.1917 166.543 31.275C166.676 31.3583 166.793 31.4 166.893 31.4L167.793 31.35Z" fill="white"/>
<path d="M229.5 23.5C229.5 26.0357 227.354 28.6039 223.073 31.0452C218.83 33.4644 212.658 35.6596 204.987 37.5096C189.653 41.2077 168.445 43.5 145 43.5C121.555 43.5 100.347 41.2077 85.0132 37.5096C77.3425 35.6596 71.17 33.4644 66.9274 31.0452C62.646 28.6039 60.5 26.0357 60.5 23.5C60.5 20.9643 62.646 18.3961 66.9274 15.9548C71.17 13.5356 77.3425 11.3404 85.0132 9.49037C100.347 5.7923 121.555 3.5 145 3.5C168.445 3.5 189.653 5.7923 204.987 9.49037C212.658 11.3404 218.83 13.5356 223.073 15.9548C227.354 18.3961 229.5 20.9643 229.5 23.5Z" stroke="white"/>
</svg>
