<svg width="290" height="48" viewBox="0 0 290 48" fill="none" xmlns="http://www.w3.org/2000/svg">
<path d="M102.202 27.044H103.03C103.03 27.9333 103.214 28.7537 103.582 29.505C103.966 30.2563 104.587 30.632 105.445 30.632C106.181 30.632 106.71 30.3483 107.032 29.781C107.354 29.2137 107.515 28.2477 107.515 26.883V18.396C107.515 18.258 107.469 18.143 107.377 18.051C107.301 17.9437 107.201 17.8977 107.078 17.913L105.491 17.959V17.269H110.988V17.959L110.114 17.913H110.068C109.946 17.913 109.846 17.959 109.769 18.051C109.693 18.143 109.654 18.2503 109.654 18.373V26.883C109.654 29.781 108.374 31.23 105.813 31.23C105.338 31.23 104.717 31.161 103.95 31.023C103.46 30.931 103.145 30.885 103.007 30.885H102.823C102.501 30.885 102.294 30.931 102.202 31.023V27.044ZM116.804 21.11C118.015 21.11 118.989 21.501 119.725 22.283C120.476 23.0497 120.867 24.1077 120.898 25.457V26.124H114.274C114.274 27.5193 114.512 28.5927 114.987 29.344C115.478 30.08 116.206 30.4557 117.172 30.471C117.939 30.471 118.583 30.2793 119.104 29.896C119.641 29.5127 120.032 29.0373 120.277 28.47L120.806 28.861C120.499 29.597 119.978 30.1797 119.242 30.609C118.521 31.023 117.724 31.23 116.85 31.23C113.737 31.23 112.181 29.551 112.181 26.193C112.181 24.5217 112.572 23.2567 113.354 22.398C114.136 21.5393 115.286 21.11 116.804 21.11ZM116.804 21.731C115.945 21.731 115.309 22.0837 114.895 22.789C114.496 23.4943 114.297 24.4143 114.297 25.549H118.483C118.636 25.549 118.751 25.4953 118.828 25.388C118.905 25.2807 118.943 25.0813 118.943 24.79C118.943 23.7473 118.774 22.9807 118.437 22.49C118.115 21.984 117.571 21.731 116.804 21.731ZM122.513 26.147C122.513 24.583 122.904 23.3563 123.686 22.467C124.468 21.5623 125.618 21.11 127.136 21.11C128.654 21.11 129.804 21.5623 130.586 22.467C131.368 23.3563 131.759 24.583 131.759 26.147C131.759 27.7417 131.368 28.9913 130.586 29.896C129.804 30.7853 128.654 31.23 127.136 31.23C125.618 31.23 124.468 30.7853 123.686 29.896C122.904 28.9913 122.513 27.7417 122.513 26.147ZM124.606 26.193C124.606 27.7417 124.798 28.8687 125.181 29.574C125.58 30.264 126.231 30.609 127.136 30.609C128.041 30.609 128.685 30.264 129.068 29.574C129.467 28.8687 129.666 27.7417 129.666 26.193C129.666 24.629 129.467 23.4943 129.068 22.789C128.685 22.0837 128.041 21.731 127.136 21.731C126.231 21.731 125.58 22.0837 125.181 22.789C124.798 23.4943 124.606 24.629 124.606 26.193ZM144.172 30.402V31H139.687V30.402L140.745 30.448C140.944 30.402 141.044 30.2563 141.044 30.011V24.79C141.044 24.054 141.005 23.4867 140.929 23.088C140.867 22.6893 140.729 22.3827 140.515 22.168C140.3 21.9533 139.963 21.846 139.503 21.846C138.629 21.846 137.916 22.2217 137.364 22.973C136.827 23.709 136.536 24.7057 136.49 25.963V30.011C136.49 30.3023 136.589 30.448 136.789 30.448L137.847 30.402V31H133.362V30.402L134.213 30.448C134.412 30.402 134.512 30.2563 134.512 30.011V22.352C134.512 22.0913 134.412 21.938 134.213 21.892L133.362 21.938V21.34H136.605C136.528 21.57 136.49 21.8383 136.49 22.145V23.41C136.812 22.6893 137.272 22.1297 137.87 21.731C138.468 21.317 139.158 21.11 139.94 21.11C141.028 21.11 141.81 21.3707 142.286 21.892C142.776 22.398 143.022 23.226 143.022 24.376V30.011C143.022 30.3023 143.121 30.448 143.321 30.448L144.172 30.402ZM153.611 20.719C153.457 20.719 153.212 20.8033 152.875 20.972C152.553 21.1407 152.292 21.3477 152.093 21.593C153.227 22.1603 153.795 23.1493 153.795 24.56C153.795 25.572 153.434 26.4 152.714 27.044C151.993 27.6727 151.042 27.987 149.862 27.987C149.218 27.987 148.62 27.872 148.068 27.642C147.546 27.964 147.286 28.3013 147.286 28.654C147.286 29.2213 147.715 29.505 148.574 29.505H151.633C152.767 29.505 153.618 29.7503 154.186 30.241C154.768 30.7317 155.06 31.552 155.06 32.702C155.06 33.484 154.83 34.174 154.37 34.772C153.925 35.37 153.289 35.83 152.461 36.152C151.633 36.474 150.674 36.635 149.586 36.635C148.236 36.635 147.194 36.3743 146.458 35.853C145.737 35.3317 145.377 34.5727 145.377 33.576C145.377 32.9627 145.545 32.4413 145.883 32.012C146.235 31.5827 146.757 31.207 147.447 30.885C146.312 30.6703 145.745 30.1643 145.745 29.367C145.745 29.0757 145.821 28.8303 145.975 28.631C146.143 28.4163 146.427 28.148 146.826 27.826L147.447 27.32C146.987 27.0287 146.619 26.653 146.343 26.193C146.082 25.7177 145.952 25.1733 145.952 24.56C145.952 23.5327 146.312 22.7047 147.033 22.076C147.769 21.432 148.712 21.11 149.862 21.11C150.506 21.11 151.088 21.202 151.61 21.386C151.993 20.8647 152.461 20.4047 153.013 20.006C153.58 19.592 154.017 19.385 154.324 19.385C154.707 19.385 154.975 19.4923 155.129 19.707C155.297 19.9063 155.382 20.1363 155.382 20.397C155.382 20.5963 155.313 20.788 155.175 20.972C155.037 21.156 154.86 21.248 154.646 21.248C154.462 21.248 154.324 21.225 154.232 21.179C154.14 21.1177 154.04 21.0257 153.933 20.903C153.841 20.7803 153.733 20.719 153.611 20.719ZM149.862 27.458C150.582 27.458 151.073 27.2433 151.334 26.814C151.61 26.3693 151.748 25.618 151.748 24.56C151.748 23.5327 151.61 22.8043 151.334 22.375C151.058 21.9457 150.567 21.731 149.862 21.731C149.156 21.731 148.666 21.938 148.39 22.352C148.129 22.7507 147.999 23.4867 147.999 24.56C147.999 25.3113 148.052 25.894 148.16 26.308C148.267 26.722 148.451 27.021 148.712 27.205C148.988 27.3737 149.371 27.458 149.862 27.458ZM148.988 31C148.543 31 148.129 31.1227 147.746 31.368C147.362 31.6133 147.056 31.9277 146.826 32.311C146.611 32.7097 146.504 33.116 146.504 33.53C146.504 34.2813 146.757 34.887 147.263 35.347C147.784 35.807 148.551 36.037 149.563 36.037C150.835 36.037 151.817 35.7457 152.507 35.163C153.197 34.5803 153.542 33.8137 153.542 32.863C153.542 32.2343 153.358 31.7667 152.99 31.46C152.637 31.1533 152.07 31 151.288 31H148.988ZM166.835 30.402V31H162.35V30.402L163.408 30.448C163.607 30.402 163.707 30.2563 163.707 30.011V24.79C163.707 24.054 163.668 23.4867 163.592 23.088C163.53 22.6893 163.392 22.3827 163.178 22.168C162.963 21.9533 162.626 21.846 162.166 21.846C161.292 21.846 160.579 22.2217 160.027 22.973C159.49 23.709 159.199 24.7057 159.153 25.963V30.011C159.153 30.3023 159.252 30.448 159.452 30.448L160.51 30.402V31H156.025V30.402L156.876 30.448C157.075 30.402 157.175 30.2563 157.175 30.011V15.222C157.175 14.9 157.075 14.739 156.876 14.739L156.025 14.785V14.21H159.153V23.41C159.475 22.6893 159.935 22.1297 160.533 21.731C161.131 21.317 161.821 21.11 162.603 21.11C163.691 21.11 164.473 21.3707 164.949 21.892C165.439 22.398 165.685 23.226 165.685 24.376V30.011C165.685 30.3023 165.784 30.448 165.984 30.448L166.835 30.402ZM178.39 21.34V21.938L177.447 21.892H177.401C177.155 21.892 176.964 22.0377 176.826 22.329L171.973 34.036C171.605 34.9407 171.214 35.577 170.8 35.945C170.386 36.313 169.872 36.497 169.259 36.497C168.845 36.497 168.492 36.3973 168.201 36.198C167.925 35.9987 167.771 35.7227 167.741 35.37C167.741 34.9867 167.825 34.6953 167.994 34.496C168.178 34.2967 168.392 34.197 168.638 34.197C168.868 34.197 169.044 34.243 169.167 34.335C169.289 34.4423 169.404 34.5803 169.512 34.749C169.527 34.7797 169.565 34.8333 169.627 34.91C169.688 35.002 169.757 35.0633 169.834 35.094C169.91 35.14 169.995 35.163 170.087 35.163C170.271 35.163 170.455 35.071 170.639 34.887C170.838 34.7183 171.007 34.4577 171.145 34.105L172.479 30.908L168.5 22.191C168.408 21.9917 168.285 21.892 168.132 21.892L167.005 21.938V21.34H172.042V21.938L171.007 21.892C170.899 21.892 170.815 21.938 170.754 22.03C170.692 22.1067 170.685 22.191 170.731 22.283L173.537 28.447L176.136 22.237C176.151 22.2063 176.159 22.1603 176.159 22.099C176.159 21.961 176.074 21.892 175.906 21.892L174.825 21.938V21.34H178.39ZM183.446 21.11C184.657 21.11 185.631 21.501 186.367 22.283C187.118 23.0497 187.509 24.1077 187.54 25.457V26.124H180.916C180.916 27.5193 181.153 28.5927 181.629 29.344C182.119 30.08 182.848 30.4557 183.814 30.471C184.58 30.471 185.224 30.2793 185.746 29.896C186.282 29.5127 186.673 29.0373 186.919 28.47L187.448 28.861C187.141 29.597 186.62 30.1797 185.884 30.609C185.163 31.023 184.366 31.23 183.492 31.23C180.379 31.23 178.823 29.551 178.823 26.193C178.823 24.5217 179.214 23.2567 179.996 22.398C180.778 21.5393 181.928 21.11 183.446 21.11ZM183.446 21.731C182.587 21.731 181.951 22.0837 181.537 22.789C181.138 23.4943 180.939 24.4143 180.939 25.549H185.125C185.278 25.549 185.393 25.4953 185.47 25.388C185.546 25.2807 185.585 25.0813 185.585 24.79C185.585 23.7473 185.416 22.9807 185.079 22.49C184.757 21.984 184.212 21.731 183.446 21.731Z" fill="white"/>
<path d="M229.5 24.5C229.5 27.0357 227.354 29.6039 223.073 32.0452C218.83 34.4644 212.658 36.6596 204.987 38.5096C189.653 42.2077 168.445 44.5 145 44.5C121.555 44.5 100.347 42.2077 85.0132 38.5096C77.3425 36.6596 71.17 34.4644 66.9274 32.0452C62.646 29.6039 60.5 27.0357 60.5 24.5C60.5 21.9643 62.646 19.3961 66.9274 16.9548C71.17 14.5356 77.3425 12.3404 85.0132 10.4904C100.347 6.7923 121.555 4.5 145 4.5C168.445 4.5 189.653 6.7923 204.987 10.4904C212.658 12.3404 218.83 14.5356 223.073 16.9548C227.354 19.3961 229.5 21.9643 229.5 24.5Z" stroke="white"/>
</svg>
