<svg width="367" height="48" viewBox="0 0 367 48" fill="none" xmlns="http://www.w3.org/2000/svg">
<path d="M138.557 31.89L139.607 31.95H139.667C140.007 31.95 140.177 31.73 140.177 31.29V16.8C140.177 16.56 140.127 16.39 140.027 16.29C139.927 16.17 139.747 16.12 139.487 16.14L138.557 16.2V15.09H146.447C148.707 15.09 150.377 15.51 151.457 16.35C152.537 17.17 153.077 18.43 153.077 20.13C153.077 21.77 152.547 23.09 151.487 24.09C150.447 25.07 149.037 25.56 147.257 25.56H144.317V31.29C144.317 31.73 144.517 31.95 144.917 31.95L146.387 31.89V33H138.557V31.89ZM145.967 24.48C146.767 24.48 147.427 24.07 147.947 23.25C148.487 22.43 148.757 21.39 148.757 20.13C148.757 18.95 148.487 17.99 147.947 17.25C147.427 16.51 146.737 16.14 145.877 16.14H144.677C144.597 16.14 144.517 16.18 144.437 16.26C144.357 16.32 144.317 16.4 144.317 16.5V24.48H145.967ZM162.745 19.95C163.605 19.95 164.305 20.2 164.845 20.7C165.405 21.2 165.685 21.85 165.685 22.65C165.685 23.25 165.505 23.7 165.145 24C164.805 24.3 164.385 24.45 163.885 24.45C163.465 24.45 163.085 24.35 162.745 24.15C162.425 23.93 162.265 23.62 162.265 23.22C162.265 23.08 162.305 22.87 162.385 22.59C162.445 22.23 162.475 22.03 162.475 21.99C162.475 21.55 162.285 21.33 161.905 21.33C161.385 21.33 160.915 21.63 160.495 22.23C160.095 22.81 159.785 23.54 159.565 24.42C159.345 25.3 159.225 26.15 159.205 26.97V31.47C159.205 31.85 159.335 32.04 159.595 32.04L161.665 31.98V33H154.045V31.98L154.885 32.04C155.145 32.04 155.275 31.85 155.275 31.47V21.78C155.275 21.38 155.145 21.18 154.885 21.18L153.925 21.24V20.25H159.385C159.345 20.37 159.305 20.57 159.265 20.85C159.225 21.11 159.205 21.37 159.205 21.63V23.01C159.925 20.97 161.105 19.95 162.745 19.95ZM169.733 13.29C170.413 13.29 170.963 13.46 171.383 13.8C171.823 14.14 172.043 14.59 172.043 15.15C172.043 15.73 171.823 16.19 171.383 16.53C170.963 16.87 170.413 17.04 169.733 17.04C169.053 17.04 168.493 16.87 168.053 16.53C167.633 16.19 167.423 15.73 167.423 15.15C167.423 14.59 167.633 14.14 168.053 13.8C168.493 13.46 169.053 13.29 169.733 13.29ZM171.773 31.47C171.773 31.87 171.903 32.06 172.163 32.04L173.153 31.98V33H166.463V31.98L167.453 32.04H167.513C167.733 32.04 167.843 31.85 167.843 31.47V21.78C167.843 21.44 167.723 21.24 167.483 21.18L166.493 21.24V20.25H171.773V31.47ZM187.724 20.25V21.24L186.764 21.18H186.674C186.394 21.18 186.194 21.33 186.074 21.63L181.364 33.15H179.534L174.914 21.57C174.874 21.45 174.794 21.35 174.674 21.27C174.554 21.19 174.434 21.16 174.314 21.18L173.354 21.24V20.25H180.884V21.24L179.654 21.18C179.514 21.18 179.384 21.24 179.264 21.36C179.144 21.48 179.124 21.62 179.204 21.78L182.084 28.71L184.844 21.66C184.884 21.58 184.904 21.5 184.904 21.42C184.904 21.24 184.804 21.16 184.604 21.18L183.374 21.24V20.25H187.724ZM201.076 31.98V33H195.616C195.696 32.52 195.736 32.15 195.736 31.89L195.766 31.08C194.886 32.46 193.506 33.15 191.626 33.15C190.366 33.15 189.406 32.87 188.746 32.31C188.106 31.73 187.786 30.88 187.786 29.76C187.786 28.3 188.426 27.22 189.706 26.52C190.986 25.82 193.006 25.47 195.766 25.47V23.37C195.766 22.61 195.636 22.02 195.376 21.6C195.116 21.18 194.576 20.97 193.756 20.97C193.056 20.97 192.556 21.09 192.256 21.33C191.976 21.57 191.836 21.86 191.836 22.2C191.836 22.46 191.886 22.69 191.986 22.89C192.066 23.17 192.106 23.37 192.106 23.49C192.106 23.93 191.946 24.27 191.626 24.51C191.326 24.75 190.936 24.87 190.456 24.87C189.896 24.87 189.436 24.71 189.076 24.39C188.736 24.05 188.566 23.63 188.566 23.13C188.566 22.17 189.066 21.4 190.066 20.82C191.066 20.24 192.416 19.95 194.116 19.95C197.836 19.95 199.696 21.28 199.696 23.94V31.47C199.696 31.85 199.826 32.04 200.086 32.04L201.076 31.98ZM193.336 31.38C193.956 31.38 194.486 31.12 194.926 30.6C195.386 30.06 195.666 29.36 195.766 28.5V26.52C194.406 26.52 193.416 26.76 192.796 27.24C192.176 27.72 191.866 28.44 191.866 29.4C191.866 30.72 192.356 31.38 193.336 31.38ZM208.72 19.95C209.72 19.95 210.62 20.09 211.42 20.37C212.22 20.65 212.84 21.03 213.28 21.51C213.74 21.99 213.97 22.52 213.97 23.1C213.97 23.62 213.8 24.06 213.46 24.42C213.14 24.78 212.68 24.96 212.08 24.96C211.6 24.96 211.2 24.85 210.88 24.63C210.58 24.39 210.43 24.05 210.43 23.61C210.43 23.43 210.47 23.22 210.55 22.98C210.65 22.78 210.7 22.56 210.7 22.32C210.7 21.88 210.52 21.55 210.16 21.33C209.82 21.09 209.39 20.97 208.87 20.97C208.01 20.97 207.34 21.38 206.86 22.2C206.38 23 206.14 24.37 206.14 26.31C206.14 28.47 206.43 29.99 207.01 30.87C207.61 31.75 208.43 32.19 209.47 32.19C210.29 32.19 211.03 31.97 211.69 31.53C212.37 31.07 212.89 30.33 213.25 29.31L214.18 29.76C213.32 32.12 211.51 33.3 208.75 33.3C206.79 33.3 205.17 32.76 203.89 31.68C202.63 30.6 202 28.95 202 26.73C202 24.51 202.62 22.83 203.86 21.69C205.1 20.53 206.72 19.95 208.72 19.95ZM229.584 20.25V21.24L228.474 21.18H228.414C228.054 21.18 227.804 21.37 227.664 21.75L221.544 36.48C220.964 37.88 220.354 38.84 219.714 39.36C219.074 39.9 218.284 40.17 217.344 40.17C216.604 40.17 216.004 40 215.544 39.66C215.104 39.34 214.864 38.86 214.824 38.22C214.824 37.6 214.994 37.12 215.334 36.78C215.694 36.44 216.094 36.27 216.534 36.27C216.994 36.27 217.334 36.36 217.554 36.54C217.794 36.74 218.004 37.01 218.184 37.35C218.304 37.59 218.414 37.76 218.514 37.86C218.634 37.98 218.784 38.04 218.964 38.04C219.224 38.04 219.444 37.93 219.624 37.71C219.824 37.51 220.044 37.13 220.284 36.57L221.694 33.18L216.174 21.57C216.054 21.31 215.894 21.18 215.694 21.18L214.524 21.24V20.25H222.264V21.24L220.914 21.18C220.774 21.18 220.664 21.24 220.584 21.36C220.504 21.46 220.494 21.57 220.554 21.69L223.764 28.26L226.524 21.63C226.544 21.59 226.554 21.53 226.554 21.45C226.554 21.27 226.444 21.18 226.224 21.18L224.814 21.24V20.25H229.584Z" fill="#FFFFFE"/>
<path d="M9 27L125 27" stroke="#F8F5E2"/>
<path d="M242 27L358 27" stroke="#F8F5E2"/>
</svg>
