<svg width="588" height="146" viewBox="0 0 588 146" fill="none" xmlns="http://www.w3.org/2000/svg">
<path d="M25.5 0.5H50.5V71C50.5 73.4853 48.4853 75.5 46 75.5H30C27.5147 75.5 25.5 73.4853 25.5 71V0.5Z" fill="#40C6A6" stroke="#40C6A6"/>
<path d="M71.5 0.5H96.5V71C96.5 73.4853 94.4853 75.5 92 75.5H76C73.5147 75.5 71.5 73.4853 71.5 71V0.5Z" fill="#40C6A6" stroke="#40C6A6"/>
<path d="M155.5 0.5H180.5V71C180.5 73.4853 178.485 75.5 176 75.5H160C157.515 75.5 155.5 73.4853 155.5 71V0.5Z" fill="#40C6A6" stroke="#40C6A6"/>
<path d="M197.5 0.5H222.5V71C222.5 73.4853 220.485 75.5 218 75.5H202C199.515 75.5 197.5 73.4853 197.5 71V0.5Z" fill="#40C6A6" stroke="#40C6A6"/>
<path d="M239.5 0.5H264.5V71C264.5 73.4853 262.485 75.5 260 75.5H244C241.515 75.5 239.5 73.4853 239.5 71V0.5Z" fill="#40C6A6" stroke="#40C6A6"/>
<path d="M323.5 0.5H348.5V71C348.5 73.4853 346.485 75.5 344 75.5H328C325.515 75.5 323.5 73.4853 323.5 71V0.5Z" fill="#40C6A6" stroke="#40C6A6"/>
<path d="M365.5 0.5H390.5V71C390.5 73.4853 388.485 75.5 386 75.5H370C367.515 75.5 365.5 73.4853 365.5 71V0.5Z" fill="#40C6A6" stroke="#40C6A6"/>
<path d="M449.5 0.5H474.5V71C474.5 73.4853 472.485 75.5 470 75.5H454C451.515 75.5 449.5 73.4853 449.5 71V0.5Z" fill="#40C6A6" stroke="#40C6A6"/>
<path d="M491.5 0.5H516.5V71C516.5 73.4853 514.485 75.5 512 75.5H496C493.515 75.5 491.5 73.4853 491.5 71V0.5Z" fill="#40C6A6" stroke="#40C6A6"/>
<path d="M532.5 0.5H557.5V71C557.5 73.4853 555.485 75.5 553 75.5H537C534.515 75.5 532.5 73.4853 532.5 71V0.5Z" fill="#40C6A6" stroke="#40C6A6"/>
<path d="M0.5 0.5H41.5V141C41.5 143.485 39.4853 145.5 37 145.5H5C2.51472 145.5 0.5 143.485 0.5 141V0.5Z" fill="#40C6A6" fill-opacity="0.4" stroke="#40C6A6"/>
<path d="M42.5 0.5H83.5V141C83.5 143.485 81.4853 145.5 79 145.5H47C44.5147 145.5 42.5 143.485 42.5 141V0.5Z" stroke="#40C6A6"/>
<path d="M84.5 0.5H125.5V141C125.5 143.485 123.485 145.5 121 145.5H89C86.5147 145.5 84.5 143.485 84.5 141V0.5Z" stroke="#40C6A6"/>
<path d="M126.5 0.5H167.5V141C167.5 143.485 165.485 145.5 163 145.5H131C128.515 145.5 126.5 143.485 126.5 141V0.5Z" stroke="#40C6A6"/>
<path d="M168.5 0.5H209.5V141C209.5 143.485 207.485 145.5 205 145.5H173C170.515 145.5 168.5 143.485 168.5 141V0.5Z" stroke="#40C6A6"/>
<path d="M210.5 0.5H251.5V141C251.5 143.485 249.485 145.5 247 145.5H215C212.515 145.5 210.5 143.485 210.5 141V0.5Z" stroke="#40C6A6"/>
<path d="M252.5 0.5H293.5V141C293.5 143.485 291.485 145.5 289 145.5H257C254.515 145.5 252.5 143.485 252.5 141V0.5Z" stroke="#40C6A6"/>
<path d="M294.5 0.5H335.5V141C335.5 143.485 333.485 145.5 331 145.5H299C296.515 145.5 294.5 143.485 294.5 141V0.5Z" fill="#40C6A6" fill-opacity="0.4" stroke="#40C6A6"/>
<path d="M336.5 0.5H377.5V141C377.5 143.485 375.485 145.5 373 145.5H341C338.515 145.5 336.5 143.485 336.5 141V0.5Z" stroke="#40C6A6"/>
<path d="M378.5 0.5H419.5V141C419.5 143.485 417.485 145.5 415 145.5H383C380.515 145.5 378.5 143.485 378.5 141V0.5Z" stroke="#40C6A6"/>
<path d="M420.5 0.5H461.5V141C461.5 143.485 459.485 145.5 457 145.5H425C422.515 145.5 420.5 143.485 420.5 141V0.5Z" stroke="#40C6A6"/>
<path d="M462.5 0.5H503.5V141C503.5 143.485 501.485 145.5 499 145.5H467C464.515 145.5 462.5 143.485 462.5 141V0.5Z" stroke="#40C6A6"/>
<path d="M504.5 0.5H545.5V141C545.5 143.485 543.485 145.5 541 145.5H509C506.515 145.5 504.5 143.485 504.5 141V0.5Z" stroke="#40C6A6"/>
<path d="M546.5 0.5H587.5V141C587.5 143.485 585.485 145.5 583 145.5H551C548.515 145.5 546.5 143.485 546.5 141V0.5Z" stroke="#40C6A6"/>
</svg>
