<svg width="604" height="207" viewBox="0 0 604 207" fill="none" xmlns="http://www.w3.org/2000/svg">
<path d="M0 205H604" stroke="black"/>
<path d="M321.759 155.586L318.143 160.628C314.909 165.138 314.909 171.207 318.143 175.717L321.759 180.759L316.717 177.143C312.208 173.909 306.138 173.909 301.629 177.143L296.587 180.759L300.202 175.717C303.437 171.207 303.437 165.138 300.202 160.628L296.587 155.586L301.629 159.202C306.138 162.436 312.208 162.436 316.717 159.202L321.759 155.586Z" fill="#131313"/>
<path d="M111.529 108.194L131.551 94.9057L132.322 96.4318L128.198 99.1691L155.076 152.342L159.2 149.604L159.972 151.131L137.101 166.31L136.329 164.784L140.454 162.047L115.078 111.846L114.778 112.045L129.677 171.237L120.304 177.458L80.8367 134.25L80.5367 134.449L106.035 184.891L110.159 182.153L110.93 183.679L100.732 190.448L99.9607 188.922L104.085 186.185L77.2066 133.012L73.0823 135.749L72.3109 134.223L92.5574 120.786L123.441 155.532L111.529 108.194Z" fill="black"/>
<path d="M177.371 144.968C170.334 148.192 164.391 148.747 159.54 146.633C154.725 144.438 151.151 139.997 148.818 133.313C146.465 126.572 146.629 120.517 149.311 115.148C152.047 109.755 156.47 105.658 162.579 102.859C174.961 97.1847 183.16 100.918 187.177 114.059L164.104 124.632L165.261 127.946C167.199 133.498 169.343 137.377 171.696 139.585C174.048 141.792 176.915 142.121 180.297 140.572C186.624 137.672 189.544 132.26 189.056 124.336L190.617 123.916C191.005 128.47 190.23 132.504 188.293 136.02C186.412 139.511 182.771 142.493 177.371 144.968ZM163.593 122.895L172.02 119.033L170.567 114.87C168.966 110.281 167.606 107.29 166.487 105.898C165.403 104.423 164.07 104.048 162.488 104.773C160.961 105.473 160.131 106.904 160.001 109.067C159.904 111.148 160.617 114.369 162.14 118.731L163.593 122.895Z" fill="black"/>
<path d="M176.964 71.0073L197.852 63.9442L214.282 127.742L219.057 126.128L219.461 127.697L194.139 136.259L193.735 134.69L198.425 133.105L182.398 70.8752L177.368 72.5762L176.964 71.0073Z" fill="black"/>
<path d="M237.217 101.362L239.766 100.799L238.618 93.9653C237.673 88.3441 236.719 84.6578 235.757 82.9066C234.843 81.0832 233.507 80.3654 231.749 80.7533C230.695 80.9859 229.778 81.4951 228.998 82.2807C228.267 82.9942 227.986 83.8539 228.155 84.8598C228.315 85.8065 228.654 86.7441 229.175 87.6724L231.372 87.1876C232.05 88.3268 232.538 89.7839 232.836 91.5591C233.124 93.275 232.645 94.9454 231.399 96.5703C230.143 98.1361 228.402 99.1646 226.176 99.6558C221.137 100.768 218.205 98.8678 217.38 93.9566C216.157 86.6787 221.668 81.6888 233.913 78.9871C240.886 77.4488 245.894 77.6018 248.938 79.4461C252.031 81.2183 254.114 85.2996 255.188 91.69L258.216 109.707C258.733 112.784 259.841 114.135 261.54 113.76C263.532 113.321 264.192 110.015 263.519 103.843L264.853 103.641C265.493 108.9 265.128 112.693 263.757 115.02C262.386 117.348 259.767 118.938 255.9 119.791C248.869 121.342 244.458 120.045 242.668 115.899C242.284 118.316 241.42 120.224 240.076 121.626C238.731 123.027 236.594 124.051 233.665 124.697C224.993 126.61 220.056 123.987 218.853 116.827C218.147 112.626 219.305 109.394 222.328 107.132C225.399 104.798 230.362 102.874 237.217 101.362ZM235.536 113.054C236.053 116.131 236.533 118.081 236.975 118.904C237.476 119.714 238.166 120.022 239.044 119.828C239.982 119.621 240.707 118.694 241.22 117.047C241.782 115.328 241.839 113.136 241.392 110.474L240.005 102.22L239.389 102.355C235.757 103.157 234.393 106.25 235.298 111.634L235.536 113.054Z" fill="black"/>
<path d="M260.32 74.3887L281.952 72.7969L282.415 81.0639C283.218 78.2378 284.56 75.9134 286.441 74.0907C288.321 72.2681 291.266 71.2092 295.275 70.9142C304.55 70.2317 309.468 74.8926 310.029 84.8969L311.545 111.944L316.571 111.575L316.662 113.192L291.26 115.061L291.17 113.444L294.85 113.173L293.213 83.9688C293.012 80.3744 292.643 78.0857 292.107 77.1025C291.568 76.0594 290.67 75.5841 289.414 75.6766C287.499 75.8175 285.864 77.201 284.509 79.8271C283.214 82.4488 282.667 85.5569 282.869 89.1513L284.259 113.952L288.118 113.668L288.209 115.286L262.718 117.162L262.627 115.544L267.564 115.181L265.348 75.6429L260.411 76.0061L260.32 74.3887Z" fill="black"/>
<path d="M338.387 73.7507C335.753 73.5832 333.797 74.9015 332.52 77.7058C331.243 80.5101 330.443 85.2384 330.121 91.8906L329.895 96.5651C329.607 102.498 330.06 106.795 331.253 109.456C332.445 112.117 334.808 113.559 338.341 113.784C341.874 114.008 344.746 112.989 346.958 110.725C349.17 108.461 350.649 105.82 351.396 102.801L353.004 103.084C351.617 108.166 349.341 111.748 346.177 113.831C342.95 115.971 338.612 116.867 333.163 116.52C326.217 116.079 320.978 113.882 317.445 109.93C313.915 105.919 312.325 100.317 312.673 93.1256C313.024 85.8741 315.39 80.4339 319.77 76.805C324.21 73.1798 330.203 71.6072 337.747 72.0869C343.077 72.4258 347.097 73.7334 349.81 76.0099C352.526 78.2265 353.808 80.8929 353.657 84.0093C353.506 87.1256 352.707 89.3592 351.261 90.7099C349.874 92.0645 347.983 92.6656 345.587 92.5133C343.252 92.3648 341.396 91.6156 340.02 90.2657C338.644 88.9158 338.016 87.0123 338.134 84.5552C338.187 83.4764 338.389 82.4072 338.74 81.3475L341.704 81.536C342.182 80.3641 342.443 79.2986 342.49 78.3398C342.629 75.4631 341.262 73.9334 338.387 73.7507Z" fill="black"/>
<path d="M360.258 50.2472L381.516 54.554L376.493 87.1087C377.855 84.5716 379.634 82.6695 381.831 81.4023C384.028 80.1351 387.096 79.9006 391.036 80.6988C400.151 82.5455 403.944 88.4202 402.416 98.323L398.285 125.096L403.225 126.097L402.978 127.698L378.015 122.641L378.262 121.039L381.878 121.772L386.339 92.8643C386.888 89.3064 387.005 86.9758 386.69 85.8724C386.384 84.7097 385.614 84.0033 384.379 83.7531C382.497 83.3719 380.629 84.2776 378.775 86.4703C376.979 88.6749 375.807 91.5561 375.258 95.114L371.47 119.663L375.263 120.432L375.016 122.033L349.965 116.958L350.212 115.357L355.063 116.34L364.863 52.8311L360.011 51.8482L360.258 50.2472Z" fill="black"/>
<path d="M429.623 120.388L431.616 113.002C433.133 107.383 433.925 103.189 433.991 100.42C434.129 97.613 433.124 95.8286 430.975 95.0668C429.73 94.6258 428.611 94.6416 427.616 95.114C426.693 95.5485 425.835 96.5456 425.042 98.1051C423.83 100.531 422.504 104.409 421.065 109.738L419.236 116.516C417.531 122.83 416.676 126.684 416.672 128.079C416.724 129.493 416.838 130.676 417.015 131.628C417.262 133.238 418.29 134.364 420.1 135.006C422.305 135.788 424.099 134.995 425.481 132.629C426.491 130.956 427.871 126.876 429.623 120.388ZM419.508 136.51C412.439 134.004 407.595 130.256 404.976 125.266C402.358 120.276 401.979 114.334 403.84 107.441C405.716 100.49 409.078 95.8421 413.924 93.4979C418.843 91.1158 424.808 91.1676 431.821 93.6532C438.833 96.1388 443.595 99.7308 446.107 104.429C448.634 109.07 448.944 114.923 447.036 121.99C443.048 136.761 433.872 141.601 419.508 136.51Z" fill="black"/>
<path d="M461.203 80.1722L481.093 89.6912L458.531 151.587L463.077 153.763L462.522 155.285L438.411 143.746L438.966 142.224L443.431 144.361L465.438 83.9866L460.649 81.6942L461.203 80.1722Z" fill="black"/>
<path d="M494.234 118.238C491.485 116.64 489.842 114.753 489.305 112.578C488.82 110.433 489.063 108.264 490.035 106.069C491.007 103.875 492.431 102.426 494.307 101.724C496.236 101.051 498.497 101.469 501.09 102.977C503.684 104.485 505.363 106.289 506.129 108.39C506.919 110.436 506.779 112.666 505.71 115.08C504.666 117.439 503.179 118.955 501.251 119.627C499.322 120.3 496.983 119.837 494.234 118.238ZM479.971 117.085L499.034 128.169L482.343 165.859L486.7 168.392L486.044 169.873L462.936 156.437L463.592 154.956L467.872 157.444L483.906 121.236L479.315 118.567L479.971 117.085Z" fill="black"/>
<path d="M526.99 148.741C524.846 147.201 522.619 147.363 520.312 149.224C518.004 151.086 515.252 154.939 512.056 160.782L509.811 164.888C506.961 170.1 505.453 174.222 505.287 177.256C505.121 180.289 506.476 182.839 509.352 184.903C512.227 186.968 515.094 187.56 517.951 186.679C520.808 185.798 523.215 184.19 525.17 181.856L526.4 182.958C522.998 186.821 519.507 188.86 515.928 189.075C512.271 189.309 508.225 187.833 503.79 184.648C498.136 180.589 494.691 175.842 493.454 170.409C492.246 164.923 493.369 159.021 496.824 152.704C500.308 146.334 504.691 142.664 509.974 141.691C515.305 140.754 521.042 142.491 527.182 146.9C531.52 150.015 534.33 153.316 535.613 156.803C536.925 160.237 536.833 163.323 535.336 166.061C533.839 168.798 532.184 170.396 530.372 170.855C528.609 171.348 526.753 170.895 524.803 169.495C522.903 168.13 521.67 166.475 521.104 164.53C520.539 162.585 520.847 160.533 522.027 158.374C522.546 157.427 523.186 156.567 523.947 155.794L526.36 157.526C527.277 156.719 527.966 155.893 528.426 155.051C529.808 152.524 529.329 150.421 526.99 148.741Z" fill="black"/>
<path d="M205.506 27.2081L205.925 28.4332L204.874 28.5777C204.508 28.6526 204.268 28.95 204.152 29.4697L202.061 39.3239L204.545 46.5752C204.704 47.0388 205.012 47.2237 205.469 47.1301L207.092 46.7267L207.512 47.9518L198.117 49.8765L197.697 48.6514L199.4 48.3734C199.834 48.2845 199.968 47.9972 199.802 47.5115L197.544 40.9224L188.391 32.6278C187.974 32.2646 187.627 32.1111 187.353 32.1673L186.381 32.4373L185.962 31.2121L195.219 29.3155L195.639 30.5406L193.799 30.8467L193.765 30.8537C193.513 30.9052 193.426 31.0413 193.501 31.2621C193.547 31.3945 193.657 31.5373 193.831 31.6905L200.898 38.0738L202.667 29.7387C202.697 29.6143 202.694 29.4969 202.656 29.3865C202.58 29.1658 202.428 29.0788 202.2 29.1256L200.439 29.5571L200.02 28.332L205.506 27.2081Z" fill="black"/>
<path d="M212.786 39.646C212.118 37.2162 212.253 35.2572 213.191 33.7691C214.128 32.2811 215.888 31.3314 218.469 30.9202C221.072 30.5053 223.184 30.8381 224.804 31.9186C226.424 32.9991 227.568 34.7543 228.236 37.1841C229.615 42.2014 227.735 45.1194 222.597 45.9382C220.016 46.3494 217.904 46.0167 216.261 44.9398C214.618 43.863 213.46 42.0984 212.786 39.646ZM217.643 38.9425C218.268 41.2149 218.932 42.7999 219.636 43.6976C220.356 44.5691 221.235 44.9223 222.272 44.757C223.309 44.5918 223.916 44.0018 224.094 42.9871C224.272 41.9724 224.046 40.3176 223.415 38.0227C222.772 35.6828 222.099 34.064 221.395 33.1663C220.691 32.2687 219.821 31.9024 218.784 32.0677C217.747 32.2329 217.131 32.8359 216.936 33.8768C216.764 34.914 217 36.6026 217.643 38.9425Z" fill="black"/>
<path d="M250.809 40.9154L251.053 42.08L244.69 42.8163C244.734 42.4603 244.687 41.9512 244.548 41.289L244.225 39.7475C243.656 42.129 242.131 43.4633 239.651 43.7502C238.145 43.9246 236.96 43.6523 236.097 42.9335C235.229 42.1919 234.611 40.9419 234.242 39.1835L232.539 31.0652C232.448 30.6313 232.252 30.4318 231.95 30.4667L230.817 30.6679L230.58 29.5375L236.734 28.8254L238.84 38.862C239.084 40.0266 239.351 40.8494 239.642 41.3304C239.956 41.8086 240.426 42.0115 241.052 41.9391C241.608 41.8748 242.103 41.5719 242.535 41.0307C242.991 40.4868 243.294 39.7265 243.446 38.75C243.592 37.7507 243.538 36.5874 243.283 35.2602L242.177 29.985C242.081 29.5283 241.894 29.316 241.616 29.3482L240.274 29.5736L240.037 28.4432L246.4 27.707L249.087 40.5181C249.173 40.9292 249.37 41.1287 249.676 41.1167L250.809 40.9154Z" fill="black"/>
<path d="M262.978 26.0866C263.978 26.0113 264.836 26.2384 265.55 26.7681C266.288 27.2959 266.725 28.0214 266.863 28.9445C266.966 29.6368 266.835 30.1719 266.467 30.5496C266.124 30.9255 265.661 31.1354 265.079 31.1792C264.591 31.216 264.131 31.1339 263.701 30.9329C263.291 30.7071 263.051 30.3634 262.983 29.9019C262.958 29.7403 262.969 29.4945 263.014 29.1644C263.021 28.7438 263.022 28.5104 263.015 28.4642C262.939 27.9565 262.68 27.7193 262.238 27.7526C261.633 27.7981 261.138 28.1855 260.753 28.9146C260.387 29.6189 260.153 30.4884 260.048 31.5231C259.944 32.5577 259.951 33.5491 260.069 34.497L260.844 39.6894C260.909 40.1279 261.093 40.3357 261.396 40.313L263.794 40.0624L263.969 41.2393L255.105 41.9069L254.929 40.73L255.916 40.7256C256.219 40.7028 256.337 40.4722 256.272 40.0337L254.603 28.8527C254.534 28.3911 254.348 28.1717 254.045 28.1945L252.939 28.3479L252.768 27.2055L259.12 26.7272C259.095 26.8691 259.082 27.1034 259.084 27.43C259.082 27.7335 259.104 28.0353 259.149 28.3353L259.386 29.9276C259.873 27.5106 261.07 26.2303 262.978 26.0866Z" fill="black"/>
<path d="M309.936 39.0422L309.986 40.2311L302.076 40.2612L302.026 39.0723L303.289 39.1374C303.589 39.0663 303.732 38.8443 303.716 38.4713L303.362 30.0087C303.312 28.8197 303.183 27.9692 302.975 27.457C302.79 26.9447 302.418 26.6897 301.858 26.6918C301.344 26.6937 300.807 26.9523 300.245 27.4674C299.706 27.9824 299.259 28.7302 298.904 29.7109C298.548 30.6915 298.386 31.8463 298.419 33.1752L298.641 38.4906C298.66 38.9335 298.821 39.1544 299.124 39.1533L300.346 39.0787L300.396 40.2676L292.416 40.298L292.366 39.109L293.629 39.1742C293.929 39.1031 294.072 38.881 294.056 38.508L293.702 30.0454C293.65 28.8098 293.521 27.9476 293.313 27.4588C293.106 26.9699 292.711 26.7266 292.128 26.7288C291.638 26.7307 291.123 26.9774 290.583 27.4691C290.067 27.9608 289.63 28.6736 289.273 29.6076C288.914 30.5183 288.726 31.6032 288.709 32.8624L288.946 38.5274C288.966 38.9937 289.127 39.2146 289.429 39.1901L290.686 39.1154L290.736 40.3044L282.826 40.3344L282.776 39.1455L283.934 39.211C284.234 39.1399 284.377 38.9179 284.361 38.5449L283.888 27.2498C283.872 26.8535 283.71 26.6209 283.404 26.5521L282.252 26.6265L282.204 25.4725L288.609 25.4481C288.507 25.7982 288.465 26.1948 288.483 26.6377L288.565 28.596C289.009 27.4984 289.674 26.6449 290.558 26.0353C291.442 25.4024 292.514 25.0835 293.774 25.0787C295.034 25.0739 296.014 25.3616 296.715 25.9419C297.44 26.5221 297.911 27.4646 298.129 28.7695C298.569 27.5787 299.243 26.6668 300.15 26.0338C301.056 25.3774 302.15 25.0468 303.434 25.042C304.927 25.0363 306.029 25.4401 306.74 26.2535C307.473 27.0435 307.876 28.3011 307.948 30.0262L308.301 38.4538C308.32 38.8968 308.481 39.1177 308.784 39.1165L309.936 39.0422Z" fill="black"/>
<path d="M313.013 33.0826C313.1 30.5642 313.82 28.671 315.172 27.4033C316.523 26.1355 318.504 25.5631 321.115 25.6859C323.749 25.8099 325.683 26.5666 326.919 27.9561C328.154 29.3456 328.728 31.2996 328.64 33.8181C328.459 39.0183 325.769 41.496 320.572 41.2514C317.961 41.1286 316.027 40.3719 314.768 38.9812C313.509 37.5906 312.924 35.6244 313.013 33.0826ZM317.905 33.3829C317.823 35.7382 317.985 37.4276 318.393 38.4511C318.825 39.4525 319.566 39.9778 320.615 40.0272C321.663 40.0765 322.426 39.6219 322.903 38.6634C323.38 37.7048 323.66 36.0363 323.743 33.6577C323.828 31.2325 323.666 29.5081 323.258 28.4846C322.851 27.461 322.122 26.9245 321.073 26.8752C320.025 26.8258 319.25 27.2915 318.748 28.2723C318.271 29.2542 317.989 30.9577 317.905 33.3829Z" fill="black"/>
<path d="M333.047 34.1348C333.289 31.6263 334.124 29.7671 335.553 28.5572C336.981 27.3473 338.998 26.8564 341.601 27.0844C344.228 27.3144 346.117 28.1473 347.268 29.5832C348.419 31.019 348.874 32.9912 348.633 35.4996C348.135 40.6791 345.294 43.0418 340.111 42.5879C337.507 42.3599 335.618 41.527 334.444 40.0891C333.27 38.6512 332.804 36.6664 333.047 34.1348ZM337.922 34.6319C337.697 36.9778 337.757 38.6694 338.102 39.7068C338.473 40.723 339.182 41.2769 340.228 41.3685C341.274 41.4601 342.065 41.0375 342.6 40.1007C343.135 39.1639 343.517 37.5109 343.745 35.1418C343.977 32.7263 343.92 30.9998 343.575 29.9624C343.229 28.925 342.533 28.3605 341.487 28.2689C340.441 28.1773 339.638 28.6105 339.077 29.5685C338.539 30.5286 338.154 32.2164 337.922 34.6319Z" fill="black"/>
<path d="M353.152 36.0435C353.559 33.4858 354.387 31.629 355.634 30.4731C356.907 29.2972 358.574 28.8422 360.634 29.1082C361.698 29.2457 362.57 29.6287 363.249 30.2573C363.955 30.8659 364.375 31.5668 364.508 32.3601L366.287 21.196C366.361 20.7351 366.247 20.4853 365.946 20.4464L364.339 20.3093L364.515 19.2033L371.11 20.0551L367.37 43.5239C367.3 43.9617 367.416 44.2 367.716 44.2389L368.873 44.3177L368.686 45.4929L362.299 44.668C362.374 44.4896 362.427 44.3083 362.456 44.1239L362.577 43.3635C362.618 43.11 362.661 42.9157 362.706 42.7804C362.751 42.6451 362.777 42.5545 362.785 42.5084C362.359 43.253 361.762 43.8109 360.995 44.1821C360.231 44.5302 359.305 44.634 358.217 44.4936C355.972 44.2037 354.463 43.3738 353.69 42.004C352.916 40.6341 352.737 38.6473 353.152 36.0435ZM358.011 36.6712C357.765 38.215 357.644 39.4222 357.647 40.2927C357.673 41.1662 357.84 41.8227 358.148 42.2622C358.455 42.7018 358.945 42.9649 359.616 43.0516C360.657 43.1861 361.489 42.8584 362.111 42.0686C362.759 41.2587 363.221 39.9897 363.497 38.2615L363.734 36.7753C364.013 35.024 363.963 33.6302 363.585 32.5936C363.211 31.5341 362.526 30.94 361.531 30.8115C360.606 30.692 359.862 31.1368 359.299 32.1459C358.764 33.135 358.334 34.6434 358.011 36.6712Z" fill="black"/>
<path d="M392.268 26.1744C393.048 26.3204 393.631 26.631 394.017 27.1062C394.427 27.5857 394.553 28.1425 394.395 28.7766C394.233 29.4334 393.851 29.9071 393.251 30.1976C392.674 30.4925 391.996 30.5669 391.216 30.4209C390.436 30.275 389.842 29.9622 389.433 29.4828C389.046 29.0076 388.935 28.4416 389.097 27.7848C389.255 27.1506 389.622 26.6861 390.199 26.3913C390.799 26.1007 391.489 26.0285 392.268 26.1744ZM389.505 47.1994C389.393 47.6524 389.489 47.8955 389.792 47.9286L390.945 48.0732L390.658 49.2283L382.987 47.7921L383.273 46.637L384.391 46.9175L384.46 46.9304C384.712 46.9776 384.892 46.7861 384.998 46.3557L387.718 35.3828C387.814 34.9978 387.732 34.7455 387.474 34.6261L386.322 34.4815L386.6 33.3604L392.654 34.4939L389.505 47.1994Z" fill="black"/>
<path d="M397.334 45.417L398.516 45.6049C398.177 46.7456 398.374 47.8012 399.105 48.7717C399.859 49.7472 400.92 50.3849 402.287 50.6849C403.04 50.8499 403.682 50.8121 404.215 50.5716C404.777 50.3137 405.151 49.8717 405.337 49.2454C405.49 48.7309 405.438 48.2908 405.183 47.925C404.957 47.5419 404.475 47.1622 403.737 46.7859L401.475 45.5749C400.259 44.927 399.442 44.164 399.023 43.2859C398.627 42.4128 398.598 41.4059 398.937 40.2651C399.349 38.8783 400.171 37.8675 401.404 37.2325C402.643 36.5751 404.151 36.4415 405.929 36.8315C406.408 36.9364 406.831 37.065 407.198 37.2171C407.566 37.3692 408.011 37.586 408.534 37.8676C409.204 38.2289 409.744 38.4545 410.154 38.5445C410.519 38.6245 410.887 38.6101 411.259 38.5011L409.918 42.2809L408.893 42.056C409.145 41.206 409 40.3879 408.456 39.6016C407.936 38.8203 407.06 38.2947 405.83 38.0247C405.123 37.8697 404.5 37.9236 403.961 38.1865C403.451 38.432 403.119 38.812 402.967 39.3265C402.84 39.7515 402.89 40.1555 403.116 40.5387C403.349 40.8994 403.75 41.2256 404.319 41.5172L406.498 42.6386C407.951 43.3862 408.853 44.1915 409.204 45.0546C409.577 45.9228 409.591 46.9384 409.245 48.1015C408.774 49.6896 407.858 50.811 406.498 51.4657C405.145 52.098 403.568 52.2167 401.768 51.8217C401.244 51.7067 400.725 51.5333 400.211 51.3015C399.713 51.097 398.938 50.7244 397.885 50.1836C397.546 50.0142 397.241 49.8994 396.967 49.8394C396.466 49.7294 396.093 49.719 395.848 49.8082L397.334 45.417Z" fill="black"/>
</svg>
