<svg width="605" height="203" viewBox="0 0 605 203" fill="none" xmlns="http://www.w3.org/2000/svg">
<path d="M0 202H605" stroke="black"/>
<path d="M204.982 27.1234L205.407 28.3468L204.356 28.4955C203.991 28.5719 203.751 28.8702 203.638 29.3904L201.585 39.2528L204.098 46.4942C204.259 46.9571 204.568 47.1408 205.025 47.0453L206.646 46.6355L207.071 47.8589L197.683 49.821L197.259 48.5976L198.961 48.3128C199.395 48.2221 199.527 47.9343 199.359 47.4493L197.076 40.8692L187.89 32.6111C187.47 32.2495 187.124 32.0974 186.85 32.1547L185.879 32.4285L185.454 31.2051L194.705 29.2716L195.129 30.495L193.29 30.8084L193.256 30.8156C193.005 30.8681 192.917 31.0046 192.994 31.225C193.04 31.3573 193.151 31.4997 193.326 31.6521L200.418 38.0073L202.153 29.6652C202.184 29.5407 202.18 29.4233 202.141 29.3131C202.065 29.0926 201.912 29.0063 201.684 29.054L199.925 29.4925L199.501 28.2691L204.982 27.1234Z" fill="black"/>
<path d="M212.312 39.5319C211.634 37.1047 211.761 35.1452 212.693 33.6534C213.625 32.1617 215.381 31.205 217.96 30.7835C220.562 30.3583 222.675 30.6827 224.299 31.7567C225.923 32.8308 227.074 34.5814 227.752 37.0086C229.151 42.0203 227.283 44.9458 222.147 45.785C219.568 46.2065 217.455 45.8821 215.808 44.8118C214.161 43.7416 212.995 41.9816 212.312 39.5319ZM217.166 38.809C217.8 41.0789 218.47 42.6613 219.178 43.5562C219.902 44.4248 220.782 44.7745 221.818 44.6051C222.854 44.4358 223.459 43.8434 223.633 42.828C223.808 41.8126 223.575 40.1587 222.935 37.8663C222.282 35.529 221.602 33.9129 220.895 33.018C220.188 32.1231 219.316 31.7604 218.28 31.9297C217.243 32.0991 216.63 32.7046 216.439 33.7462C216.271 34.7841 216.514 36.4717 217.166 38.809Z" fill="black"/>
<path d="M250.339 40.6507L250.588 41.8144L244.229 42.5759C244.271 42.2198 244.222 41.7108 244.08 41.0491L243.751 39.509C243.192 41.8927 241.672 43.233 239.193 43.5298C237.688 43.7102 236.502 43.4426 235.636 42.7273C234.765 41.9891 234.142 40.7415 233.766 38.9846L232.031 30.8732C231.938 30.4396 231.741 30.2409 231.44 30.277L230.308 30.4827L230.066 29.3533L236.217 28.6167L238.362 38.6448C238.611 39.8085 238.882 40.6302 239.175 41.11C239.491 41.587 239.961 41.7881 240.587 41.7132C241.143 41.6466 241.636 41.3418 242.066 40.7989C242.52 40.2531 242.82 39.4917 242.968 38.5146C243.11 37.5147 243.052 36.3516 242.792 35.0254L241.664 29.7547C241.567 29.2984 241.379 29.0868 241.101 29.1201L239.76 29.3509L239.518 28.2214L245.878 27.4599L248.616 40.2603C248.704 40.671 248.901 40.8697 249.207 40.8565L250.339 40.6507Z" fill="black"/>
<path d="M262.449 25.7738C263.45 25.6945 264.308 25.9182 265.024 26.445C265.764 26.9699 266.205 27.6937 266.346 28.6162C266.452 29.3081 266.323 29.8437 265.957 30.2228C265.615 30.6001 265.153 30.8119 264.571 30.858C264.083 30.8967 263.623 30.8164 263.192 30.6172C262.781 30.393 262.54 30.0503 262.469 29.589C262.445 29.4275 262.454 29.1817 262.498 28.8514C262.504 28.4307 262.503 28.1973 262.496 28.1512C262.418 27.6438 262.158 27.4076 261.716 27.4427C261.112 27.4906 260.618 27.8799 260.236 28.6106C259.873 29.3163 259.642 30.1867 259.542 31.2218C259.441 32.2569 259.452 33.2482 259.574 34.1956L260.37 39.385C260.437 39.8232 260.622 40.0303 260.924 40.0063L263.321 39.7462L263.501 40.9224L254.639 41.6253L254.459 40.449L255.446 40.4407C255.749 40.4167 255.866 40.1857 255.799 39.7474L254.085 28.5731C254.015 28.1118 253.828 27.8932 253.526 27.9172L252.42 28.0749L252.245 26.9333L258.595 26.4297C258.569 26.5717 258.558 26.8061 258.561 27.1326C258.561 27.4362 258.583 27.7378 258.629 28.0377L258.873 29.629C259.35 27.2101 260.542 25.9251 262.449 25.7738Z" fill="black"/>
<path d="M309.459 38.5425L309.513 39.7312L301.604 39.7928L301.549 38.604L302.812 38.6641C303.112 38.5918 303.254 38.3692 303.237 37.9963L302.849 29.5352C302.794 28.3464 302.662 27.4964 302.452 26.985C302.265 26.4735 301.891 26.2199 301.331 26.2243C300.818 26.2283 300.282 26.4889 299.722 27.0063C299.185 27.5234 298.741 28.273 298.389 29.2551C298.038 30.2371 297.881 31.3926 297.918 32.7213L298.162 38.0358C298.182 38.4786 298.344 38.6989 298.647 38.6965L299.869 38.6171L299.924 39.8058L291.944 39.8679L291.889 38.6791L293.152 38.7393C293.453 38.667 293.594 38.4444 293.577 38.0714L293.189 29.6103C293.132 28.3749 292.999 27.5132 292.79 27.0252C292.581 26.5372 292.185 26.2954 291.602 26.3C291.112 26.3038 290.598 26.5526 290.06 27.0464C289.546 27.5401 289.112 28.2547 288.758 29.1901C288.403 30.1022 288.22 31.1879 288.207 32.4471L288.467 38.1112C288.489 38.5773 288.65 38.7976 288.953 38.7719L290.209 38.6922L290.264 39.881L282.354 39.9425L282.3 38.7537L283.458 38.8147C283.758 38.7424 283.899 38.5198 283.882 38.1468L283.364 26.8537C283.346 26.4574 283.184 26.2255 282.877 26.158L281.726 26.2369L281.673 25.0831L288.077 25.0333C287.977 25.3838 287.937 25.7805 287.957 26.2234L288.047 28.1813C288.487 27.082 289.147 26.2258 290.03 25.6127C290.911 24.9763 291.981 24.6532 293.241 24.6434C294.501 24.6336 295.483 24.9174 296.186 25.4948C296.913 26.0721 297.388 27.0128 297.611 28.3168C298.047 27.1242 298.717 26.2097 299.621 25.5731C300.524 24.9131 301.618 24.5782 302.901 24.5682C304.394 24.5566 305.498 24.9561 306.212 25.7666C306.948 26.5537 307.356 27.8096 307.435 29.5345L307.822 37.9606C307.842 38.4035 308.004 38.6238 308.307 38.6214L309.459 38.5425Z" fill="black"/>
<path d="M312.512 32.5707C312.59 30.0519 313.302 28.156 314.648 26.8828C315.995 25.6097 317.974 25.0294 320.584 25.1419C323.219 25.2553 325.156 26.0044 326.397 27.389C327.638 28.7736 328.22 30.7253 328.142 33.2441C327.981 38.4449 325.302 40.9334 320.103 40.7094C317.492 40.597 315.555 39.8479 314.29 38.4623C313.026 37.0767 312.433 35.1128 312.512 32.5707ZM317.405 32.8516C317.332 35.2071 317.502 36.8959 317.914 37.9178C318.35 38.9174 319.092 39.4398 320.141 39.485C321.19 39.5302 321.951 39.0726 322.424 38.1121C322.898 37.1517 323.171 35.482 323.245 33.1031C323.32 30.6776 323.151 28.9539 322.739 27.932C322.327 26.91 321.597 26.3765 320.548 26.3313C319.499 26.2861 318.726 26.7549 318.228 27.7377C317.754 28.7214 317.48 30.4261 317.405 32.8516Z" fill="black"/>
<path d="M332.551 33.5431C332.782 31.0337 333.609 29.1712 335.033 27.9557C336.458 26.7401 338.472 26.2411 341.076 26.4588C343.704 26.6783 345.596 27.5038 346.753 28.935C347.909 30.3663 348.372 32.3366 348.141 34.846C347.664 40.0274 344.833 42.4014 339.647 41.9681C337.043 41.7505 335.151 40.925 333.971 39.4918C332.791 38.0586 332.317 36.0757 332.551 33.5431ZM337.427 34.0209C337.211 36.3676 337.278 38.059 337.628 39.095C338.003 40.1097 338.713 40.6608 339.76 40.7483C340.806 40.8357 341.595 40.41 342.127 39.471C342.659 38.5321 343.033 36.8776 343.252 34.5076C343.474 32.0912 343.411 30.365 343.061 29.329C342.711 28.2929 342.013 27.7312 340.967 27.6438C339.921 27.5563 339.119 27.9927 338.562 28.9529C338.028 29.9151 337.65 31.6044 337.427 34.0209Z" fill="black"/>
<path d="M352.662 35.3722C353.06 32.8129 353.88 30.9528 355.122 29.7919C356.391 28.6109 358.056 28.1494 360.117 28.4072C361.182 28.5404 362.055 28.92 362.737 29.5459C363.445 30.1516 363.868 30.8509 364.004 31.6436L365.739 20.4725C365.811 20.0114 365.696 19.762 365.395 19.7243L363.787 19.5936L363.958 18.4869L370.557 19.3125L366.91 42.796C366.842 43.2341 366.958 43.4719 367.259 43.5096L368.416 43.5838L368.234 44.7597L361.843 43.9602C361.918 43.7815 361.97 43.6 361.999 43.4155L362.117 42.6547C362.156 42.401 362.198 42.2065 362.243 42.071C362.288 41.9356 362.314 41.8448 362.321 41.7987C361.898 42.545 361.304 43.1052 360.537 43.4795C359.775 43.8307 358.849 43.9382 357.761 43.802C355.515 43.521 354.003 42.6972 353.224 41.3304C352.445 39.9637 352.258 37.9776 352.662 35.3722ZM357.524 35.9805C357.284 37.5253 357.168 38.733 357.174 39.6035C357.204 40.4768 357.373 41.1327 357.683 41.571C357.992 42.0093 358.483 42.2705 359.154 42.3545C360.196 42.4848 361.026 42.1539 361.645 41.3616C362.291 40.5492 362.748 39.2783 363.016 37.549L363.247 36.0619C363.519 34.3095 363.464 32.9159 363.082 31.8809C362.704 30.8228 362.017 30.2315 361.021 30.1069C360.095 29.991 359.353 30.4388 358.794 31.4502C358.263 32.4414 357.839 33.9515 357.524 35.9805Z" fill="black"/>
<path d="M391.74 25.3475C392.52 25.4904 393.104 25.7986 393.492 26.2723C393.903 26.7501 394.031 27.3064 393.877 27.9412C393.717 28.5986 393.337 29.0738 392.738 29.3668C392.162 29.6639 391.484 29.741 390.704 29.5981C389.923 29.4553 389.328 29.1449 388.917 28.6671C388.529 28.1934 388.415 27.6279 388.575 26.9704C388.73 26.3357 389.095 25.8697 389.671 25.5726C390.27 25.2796 390.959 25.2046 391.74 25.3475ZM389.06 46.3833C388.949 46.8367 389.046 47.0794 389.35 47.1114L390.503 47.2514L390.221 48.4075L382.544 47.0018L382.825 45.8457L383.945 46.1217L384.014 46.1343C384.266 46.1805 384.445 45.9883 384.55 45.5575L387.226 34.5738C387.32 34.1884 387.237 33.9365 386.978 33.8181L385.826 33.6781L386.099 32.5559L392.158 33.6654L389.06 46.3833Z" fill="black"/>
<path d="M396.881 44.5702L398.064 44.7534C397.73 45.8955 397.931 46.9503 398.666 47.9179C399.424 48.8903 400.487 49.5239 401.856 49.8184C402.609 49.9804 403.251 49.9401 403.783 49.6975C404.344 49.4373 404.716 48.9938 404.899 48.3668C405.05 47.8517 404.997 47.4118 404.74 47.047C404.513 46.6648 404.029 46.287 403.29 45.9136L401.023 44.7116C399.805 44.0686 398.984 43.3089 398.562 42.4324C398.162 41.5609 398.13 40.5541 398.464 39.412C398.87 38.0236 399.689 37.0095 400.919 36.3696C402.155 35.7073 403.663 35.5677 405.442 35.9506C405.921 36.0537 406.345 36.1805 406.713 36.3312C407.081 36.4818 407.527 36.6969 408.052 36.9764C408.723 37.335 409.264 37.5585 409.674 37.6469C410.039 37.7254 410.408 37.7095 410.779 37.599L409.453 41.3842L408.427 41.1633C408.676 40.3123 408.527 39.4948 407.981 38.7106C407.457 37.9314 406.579 37.4093 405.348 37.1442C404.64 36.992 404.018 37.0484 403.479 37.3135C402.97 37.561 402.641 37.9423 402.49 38.4574C402.365 38.8828 402.417 39.2867 402.644 39.6689C402.879 40.0288 403.281 40.3534 403.851 40.6427L406.035 41.7554C407.491 42.4972 408.396 43.299 408.749 44.1607C409.126 45.0273 409.144 46.0429 408.803 47.2073C408.338 48.7973 407.427 49.9223 406.07 50.5824C404.719 51.2201 403.143 51.3451 401.341 50.9573C400.816 50.8443 400.296 50.673 399.782 50.4432C399.283 50.2407 398.506 49.8712 397.451 49.3346C397.112 49.1665 396.806 49.053 396.532 48.9941C396.03 48.8861 395.657 48.8772 395.412 48.9673L396.881 44.5702Z" fill="black"/>
<path d="M321.259 152.586L317.643 157.628C314.409 162.138 314.409 168.207 317.643 172.717L321.259 177.759L316.217 174.143C311.708 170.909 305.638 170.909 301.129 174.143L296.087 177.759L299.702 172.717C302.937 168.207 302.937 162.138 299.702 157.628L296.087 152.586L301.129 156.202C305.638 159.436 311.708 159.436 316.217 156.202L321.259 152.586Z" fill="black"/>
<path d="M119.207 161.534L106.931 145.612L90.4544 152.4L90.2478 173.464L96.489 170.893L97.0344 172.513L84.3025 177.758L83.7571 176.138L87.6682 174.526L89.1654 107.184L95.989 104.373L136.682 154.334L140.51 152.757L141.055 154.378L113.844 165.588L113.298 163.968L119.207 161.534ZM90.8724 124.644L90.5718 150.214L105.634 144.009L90.8724 124.644Z" fill="black"/>
<path d="M144.438 87.1912L170.539 80.6432C178.628 78.6138 184.91 78.2122 189.383 79.4384C193.902 80.5912 196.698 83.7833 197.77 89.0145C199.421 97.0671 195.607 103.091 186.33 107.087L186.366 107.264C198.307 105.813 205.175 109.467 206.97 118.225C208.283 124.632 206.818 129.727 202.576 133.51C198.322 137.235 191.714 140.221 182.752 142.47L157.087 148.908L156.743 147.233L162.418 145.81L150.455 87.4429L144.781 88.8664L144.438 87.1912ZM173.387 112.003L179.44 141.539L183.543 140.51C186.744 139.707 188.756 138.028 189.578 135.473C190.401 132.919 190.366 129.466 189.475 125.117L188.517 120.444C187.722 116.565 186.34 113.852 184.371 112.307C182.402 110.761 179.41 110.492 175.394 111.499L173.387 112.003ZM167.478 83.1725L173.043 110.328L175.313 109.759C178.339 108.999 180.248 107.563 181.038 105.449C181.875 103.261 181.902 100.257 181.119 96.4365L180.269 92.2927C179.378 87.9431 178.234 85.0474 176.837 83.6056C175.428 82.1051 173.239 81.7271 170.271 82.4717L167.478 83.1725Z" fill="black"/>
<path d="M217.044 85.1206C213.908 85.6476 211.549 85.223 209.968 83.8468C208.446 82.4606 207.521 80.5787 207.195 78.201C206.868 75.8233 207.309 73.7424 208.517 71.9582C209.784 70.1641 211.897 69.0185 214.855 68.5213C217.814 68.0241 220.16 68.3595 221.895 69.5276C223.621 70.6362 224.663 72.4982 225.023 75.1137C225.373 77.6697 224.915 79.8448 223.648 81.6389C222.381 83.433 220.18 84.5936 217.044 85.1206ZM204.486 93.5252L226.231 89.8708L231.838 130.708L236.808 129.872L237.029 131.477L210.668 135.907L210.448 134.302L215.33 133.482L209.943 94.2501L204.707 95.1301L204.486 93.5252Z" fill="black"/>
<path d="M243.918 117.572L241.565 89.3195L236.641 89.8214L236.506 88.207L241.431 87.7051L240.467 76.1351L256.778 70.312L258.084 86.0077L269.724 84.8214L269.859 86.4358L258.219 87.6221L260.736 117.848C260.97 120.658 261.41 122.693 262.057 123.954C262.763 125.209 264.012 125.745 265.802 125.562C267.593 125.38 269.07 124.325 270.234 122.397C271.458 120.463 272.149 117.92 272.308 114.769L273.845 114.793C273.711 118.967 272.672 122.39 270.727 125.06C268.777 127.671 265.325 129.229 260.371 129.734C255.416 130.239 251.544 129.638 248.753 127.933C245.963 126.227 244.351 122.774 243.918 117.572Z" fill="black"/>
<path d="M354.085 64.73L354.423 87.3404L352.714 87.2884C350.273 79.2307 348.069 73.7312 346.102 70.7901C344.136 67.789 341.234 66.2301 337.395 66.1133L336.316 66.0805L334.845 125.282L342.492 125.515L342.445 127.404L309.61 126.406L309.657 124.516L317.303 124.749L318.774 65.5471L317.605 65.5115C313.766 65.3948 310.76 66.834 308.585 69.8292C306.411 72.7645 303.969 78.0626 301.258 85.7236L299.549 85.6716L301.009 63.116L354.085 64.73Z" fill="black"/>
<path d="M379.214 132.613C371.543 131.582 365.991 128.838 362.558 124.382C359.191 119.875 357.894 114.102 358.667 107.064C359.447 99.9671 362.183 94.8275 366.878 91.6456C371.631 88.4718 377.338 87.3325 383.998 88.2278C397.497 90.0424 403.232 97.7129 401.203 111.239L376.049 107.858L375.666 111.347C375.024 117.192 375.283 121.705 376.442 124.887C377.601 128.069 380.024 129.908 383.711 130.403C390.609 131.331 395.534 128.24 398.487 121.133L400.063 121.617C398.462 125.759 396.044 128.823 392.808 130.809C389.633 132.803 385.101 133.404 379.214 132.613ZM376.335 106.081L385.522 107.316L386.004 102.932C386.534 98.101 386.597 94.7807 386.193 92.9712C385.854 91.11 384.822 90.0635 383.098 89.8317C381.433 89.6078 380.079 90.3942 379.037 92.1908C378.061 93.9358 377.321 97.1045 376.816 101.697L376.335 106.081Z" fill="black"/>
<path d="M409.918 93.0178L431.031 97.9875L429.467 106.119C430.923 103.628 432.773 101.785 435.018 100.589C437.262 99.3927 440.341 99.2552 444.254 100.176C453.307 102.307 456.887 108.293 454.995 118.132L449.879 144.735L454.785 145.89L454.479 147.48L429.687 141.645L429.993 140.054L433.584 140.899L439.108 112.176C439.788 108.64 439.991 106.317 439.716 105.205C439.453 104.035 438.708 103.305 437.481 103.016C435.612 102.576 433.71 103.422 431.774 105.553C429.896 107.698 428.618 110.538 427.938 114.073L423.247 138.466L427.014 139.353L426.708 140.943L401.828 135.087L402.134 133.496L406.952 134.63L414.43 95.7428L409.612 94.6086L409.918 93.0178Z" fill="black"/>
<path d="M456.321 149.991L460.557 134.448L461.582 134.79C461.689 140.32 462.718 144.516 464.671 147.377C466.623 150.239 469.477 152.296 473.233 153.55C479.039 155.486 482.454 154.573 483.48 150.81C483.922 149.19 483.542 147.737 482.34 146.451C480.467 144.437 477.889 142.504 474.607 140.651C471.02 138.318 468.155 135.846 466.01 133.236C463.447 130.108 462.782 126.286 464.012 121.771C465.243 117.255 467.587 114.122 471.045 112.371C474.518 110.561 478.532 110.416 483.085 111.935C485.874 112.865 488.567 114.49 491.163 116.809C492.119 117.633 492.881 118.14 493.45 118.329C494.019 118.519 494.558 118.478 495.067 118.206C495.576 117.933 496.265 117.342 497.134 116.432L498.073 116.746L494.452 130.031L493.427 129.689C492.576 121.195 489.105 115.933 483.015 113.901C480.34 113.009 478.214 112.836 476.636 113.383C475.075 113.873 474.097 114.841 473.702 116.289C473.466 117.157 473.476 117.918 473.732 118.572C474.004 119.168 474.223 119.62 474.387 119.927C474.552 120.235 474.851 120.619 475.284 121.079C475.733 121.481 476.105 121.826 476.399 122.114C476.709 122.344 477.174 122.688 477.794 123.148C478.471 123.626 478.972 123.951 479.298 124.123C482.9 126.398 485.452 128.197 486.954 129.519C488.472 130.783 489.858 132.193 491.111 133.747C493.642 136.992 494.236 141.074 492.895 145.994C491.57 150.857 489.138 154.087 485.598 155.685C482.073 157.225 477.835 157.169 472.884 155.517C469.355 154.34 466.169 152.361 463.325 149.581C462.768 148.89 462.291 148.478 461.892 148.345C460.64 147.927 459.124 148.59 457.345 150.333L456.321 149.991Z" fill="black"/>
<path d="M514.123 171.869C507.007 168.824 502.309 164.665 500.03 159.393C497.826 154.088 497.893 148.093 500.229 141.41C502.585 134.67 506.372 130.365 511.591 128.496C516.866 126.651 522.592 127.05 528.77 129.694C541.292 135.051 545.048 144.081 540.037 156.782L516.703 146.798L515.545 150.112C513.605 155.662 512.829 160.149 513.218 163.571C513.608 166.993 515.512 169.436 518.932 170.899C525.331 173.637 530.751 171.919 535.192 165.745L536.592 166.637C534.119 170.267 531.107 172.625 527.557 173.71C524.062 174.819 519.584 174.205 514.123 171.869ZM517.38 145.135L525.903 148.781L527.358 144.618C528.962 140.03 529.775 136.797 529.797 134.919C529.895 133.007 529.144 131.709 527.544 131.024C525.999 130.364 524.524 130.774 523.118 132.256C521.787 133.705 520.36 136.61 518.835 140.972L517.38 145.135Z" fill="black"/>
</svg>
