<svg width="604" height="184" viewBox="0 0 604 184" fill="none" xmlns="http://www.w3.org/2000/svg">
<path d="M106.382 66.3677L134.904 59.2365C144.67 56.7948 152.302 56.3984 157.799 58.0476C163.281 59.632 166.927 64.0461 168.738 71.2897C170.743 79.3095 169.215 85.567 164.155 90.0621C159.417 94.2015 152.165 97.4921 142.399 99.9338L141.623 100.128L148.124 126.128L160.251 123.096L160.711 124.939L123.361 134.277L122.9 132.434L129.206 130.857L113.149 66.6344L106.843 68.211L106.382 66.3677ZM132.067 61.9045L141.162 98.2846L143.2 97.7752C147.08 96.805 149.433 94.8081 150.257 91.7844C151.082 88.7608 150.75 84.2739 149.263 78.3237L148.098 73.6671C146.724 68.1696 145.05 64.4993 143.078 62.6561C141.17 60.7967 138.372 60.3278 134.686 61.2496L132.067 61.9045Z" fill="#131313"/>
<path d="M202.776 117.586C194.283 118.94 187.55 117.786 182.578 114.123C177.662 110.384 174.584 104.63 173.346 96.8612C172.097 89.0268 173.512 82.658 177.591 77.7546C181.735 72.8408 187.494 69.7961 194.868 68.6206C209.813 66.238 218.185 72.5992 219.986 87.7041L192.137 92.1439L192.751 95.9952C193.78 102.447 195.38 107.188 197.55 110.217C199.721 113.246 202.847 114.436 206.929 113.785C214.566 112.567 218.919 107.688 219.987 99.1466L221.812 99.1595C221.317 104.099 219.633 108.148 216.761 111.306C213.955 114.454 209.293 116.547 202.776 117.586ZM191.921 90.1531L202.093 88.5314L201.321 83.6926C200.471 78.3599 199.565 74.7914 198.602 72.9872C197.695 71.1066 196.286 70.3185 194.377 70.6229C192.534 70.9167 191.319 72.1905 190.733 74.4442C190.203 76.6215 190.342 80.2449 191.15 85.3142L191.921 90.1531Z" fill="#131313"/>
<path d="M249.654 86.821L252.546 86.596L251.948 78.9193C251.457 72.605 250.763 68.4129 249.866 66.3429C249.031 64.2012 247.616 63.208 245.622 63.3632C244.426 63.4563 243.355 63.8739 242.41 64.6162C241.526 65.2868 241.128 66.187 241.216 67.3169C241.298 68.3804 241.583 69.4616 242.07 70.5604L244.562 70.3665C245.203 71.7209 245.6 73.3951 245.756 75.3891C245.906 77.3166 245.207 79.0761 243.659 80.6676C242.106 82.1927 240.066 83.0535 237.541 83.2501C231.825 83.6949 228.752 81.159 228.323 75.6423C227.687 67.467 234.314 62.8389 248.206 61.7579C256.115 61.1424 261.671 62.0808 264.874 64.5732C268.138 66.9939 270.05 71.7934 270.609 78.9717L272.183 99.2105C272.452 102.667 273.551 104.32 275.478 104.17C277.738 103.994 278.801 100.468 278.667 93.5906L280.17 93.5739C280.36 99.4436 279.576 103.55 277.819 105.893C276.062 108.237 272.99 109.579 268.604 109.921C260.628 110.541 255.85 108.439 254.271 103.613C253.604 106.206 252.452 108.168 250.817 109.499C249.182 110.83 246.703 111.625 243.38 111.883C233.543 112.649 228.312 109.01 227.686 100.968C227.318 96.249 228.929 92.8806 232.516 90.8628C236.165 88.7735 241.878 87.4262 249.654 86.821ZM246.621 99.3943C246.89 102.851 247.229 105.064 247.639 106.035C248.115 107.001 248.852 107.445 249.849 107.368C250.912 107.285 251.812 106.379 252.546 104.65C253.342 102.85 253.624 100.454 253.391 97.4632L252.67 88.1912L251.972 88.2455C247.851 88.5662 246.026 91.7507 246.497 97.7991L246.621 99.3943Z" fill="#131313"/>
<path d="M307.151 59.6746C304.218 59.68 302.121 61.2839 300.86 64.4862C299.6 67.6886 298.976 72.9897 298.99 80.3897L298.999 85.5897C299.012 92.1897 299.754 96.9217 301.226 99.7856C302.698 102.65 305.4 104.078 309.334 104.071C313.267 104.063 316.398 102.724 318.726 100.053C321.054 97.3823 322.549 94.3462 323.209 90.945L325.01 91.1416C323.754 96.8773 321.428 101.015 318.033 103.555C314.571 106.161 309.806 107.47 303.74 107.481C296.006 107.495 290.069 105.44 285.928 101.314C281.787 97.1216 279.709 91.0254 279.695 83.0254C279.68 74.9588 282.001 68.7545 286.66 64.4125C291.385 60.0704 297.948 57.8916 306.348 57.8761C312.281 57.8651 316.817 59.0234 319.955 61.3509C323.092 63.6118 324.664 66.4756 324.67 69.9422C324.677 73.4089 323.915 75.9436 322.384 77.5465C320.921 79.1492 318.856 79.953 316.189 79.9579C313.589 79.9627 311.488 79.2666 309.885 77.8696C308.282 76.4725 307.479 74.4074 307.474 71.674C307.471 70.474 307.636 69.2737 307.967 68.0731L311.267 68.067C311.731 66.7328 311.962 65.5324 311.96 64.4657C311.954 61.2657 310.351 59.6687 307.151 59.6746Z" fill="#131313"/>
<path d="M353.825 108.653C345.246 108.049 338.95 105.4 334.936 100.707C330.993 95.9517 329.298 89.6505 329.851 81.8032C330.408 73.8895 333.228 68.0063 338.311 64.1536C343.46 60.3057 349.759 58.6438 357.207 59.168C372.303 60.2305 379.018 68.3219 377.353 83.4422L349.222 81.4624L348.949 85.3528C348.49 91.87 348.975 96.8497 350.403 100.292C351.832 103.734 354.608 105.6 358.731 105.89C366.445 106.433 371.789 102.666 374.764 94.588L376.538 95.0136C374.938 99.7128 372.381 103.275 368.869 105.702C365.423 108.132 360.408 109.116 353.825 108.653ZM349.462 79.4744L359.737 80.1975L360.081 75.3096C360.46 69.9229 360.385 66.2419 359.856 64.2665C359.398 62.2293 358.204 61.1429 356.276 61.0071C354.414 60.8761 352.942 61.8418 351.862 63.9044C350.852 65.9051 350.167 69.4658 349.807 74.5865L349.462 79.4744Z" fill="#131313"/>
<path d="M419.687 41.1471C417.198 40.6723 415.38 41.3094 414.232 43.0586C413.096 44.7422 412.135 47.6468 411.348 51.7724L408.349 67.4889L421.315 69.9629L420.978 71.731L408.012 69.257L399.765 112.477L411.749 114.764L411.411 116.532L375.755 109.728L376.092 107.96L381.495 108.991L389.741 65.7709L384.044 64.6838L384.381 62.9157L390.079 64.0028L390.154 63.6099C391.953 54.18 395.116 47.3857 399.642 43.227C404.181 39.0028 410.674 37.6967 419.122 39.3085C424.688 40.3706 428.47 42.246 430.468 44.9348C432.479 47.5582 433.209 50.3105 432.659 53.1919C432.11 56.0732 430.944 58.0905 429.163 59.2438C427.382 60.3971 425.247 60.7364 422.759 60.2616C420.27 59.7868 418.457 58.796 417.32 57.2894C416.26 55.7298 415.886 54.1315 416.198 52.4943C416.523 50.7917 417.032 49.1921 417.725 47.6954L421.458 48.4076C423.617 44.2045 423.027 41.7843 419.687 41.1471Z" fill="#131313"/>
<path d="M467.555 129.887L445.192 125.446L445.534 118.072C443.969 120.48 441.997 122.195 439.619 123.218C437.319 124.189 434.142 124.272 430.088 123.467C419.952 121.455 415.969 114.988 418.137 104.068L423.999 74.5445L418.506 73.4539L418.857 71.6883L442.593 76.4013L435.913 110.045C435.134 113.968 434.883 116.603 435.16 117.949C435.501 119.308 436.49 120.15 438.124 120.475C439.825 120.812 441.53 120.097 443.24 118.33C444.95 116.563 446.163 113.881 446.877 110.284L452.836 80.2701L448.324 79.3742L448.675 77.6087L471.43 82.1269L462.511 127.05L467.906 128.121L467.555 129.887Z" fill="#131313"/>
<path d="M484.45 60.4581L508.116 66.7954L489.182 137.504L494.591 138.953L494.125 140.691L465.436 133.009L465.902 131.27L471.215 132.693L489.684 63.7229L483.984 62.1968L484.45 60.4581Z" fill="#131313"/>
<path d="M0 183H604" stroke="black"/>
<path d="M184.099 26.2964L184.578 27.4996L183.535 27.6952C183.173 27.7879 182.947 28.0967 182.857 28.6214L181.249 38.5659L184.084 45.6874C184.265 46.1427 184.582 46.3124 185.034 46.1965L186.635 45.7144L187.114 46.9176L177.824 49.2984L177.346 48.0952L179.033 47.7345C179.462 47.6244 179.582 47.3309 179.392 46.854L176.816 40.3829L167.269 32.5447C166.834 32.2023 166.481 32.0658 166.21 32.1354L165.252 32.4524L164.773 31.2492L173.928 28.9032L174.407 30.1063L172.584 30.5018L172.55 30.5105C172.301 30.5742 172.22 30.7145 172.306 30.9313C172.358 31.0613 172.475 31.1986 172.657 31.3431L180.027 37.3739L181.387 28.9625C181.411 28.8368 181.402 28.7197 181.359 28.6113C181.272 28.3945 181.116 28.3151 180.89 28.373L179.153 28.8899L178.674 27.6867L184.099 26.2964Z" fill="black"/>
<path d="M191.977 38.3645C191.191 35.9701 191.23 34.0069 192.095 32.4748C192.959 30.9428 194.67 29.9084 197.227 29.3718C199.808 28.8303 201.933 29.0597 203.604 30.0599C205.275 31.0601 206.503 32.7574 207.288 35.1518C208.911 40.0958 207.175 43.102 202.083 44.1705C199.525 44.7072 197.4 44.4778 195.706 43.4824C194.013 42.487 192.77 40.781 191.977 38.3645ZM196.794 37.4248C197.529 39.664 198.27 41.2147 199.016 42.077C199.779 42.9123 200.673 43.2222 201.701 43.0066C202.729 42.791 203.307 42.172 203.435 41.1498C203.563 40.1277 203.257 38.4859 202.515 36.2245C201.758 33.9188 201.006 32.3348 200.26 31.4725C199.513 30.6102 198.626 30.2869 197.598 30.5025C196.571 30.7181 195.985 31.3505 195.841 32.3996C195.72 33.444 196.038 35.119 196.794 37.4248Z" fill="black"/>
<path d="M230.017 37.7771L230.317 38.9285L223.998 39.9742C224.025 39.6166 223.953 39.1104 223.782 38.4557L223.383 36.9318C222.932 39.3382 221.474 40.7453 219.011 41.1529C217.515 41.4005 216.318 41.1864 215.421 40.5106C214.518 39.8122 213.839 38.5938 213.385 36.8555L211.288 28.8299C211.176 28.401 210.97 28.2113 210.671 28.2608L209.549 28.5171L209.257 27.3997L215.369 26.3882L217.962 36.3101C218.262 37.4614 218.57 38.2702 218.884 38.7363C219.221 39.1987 219.7 39.3785 220.321 39.2756C220.874 39.1842 221.353 38.8576 221.759 38.2959C222.187 37.7304 222.453 36.9563 222.557 35.9735C222.654 34.9682 222.543 33.809 222.224 32.4958L220.862 27.2809C220.744 26.8294 220.547 26.6265 220.27 26.6722L218.941 26.9628L218.649 25.8453L224.968 24.7995L228.278 37.4643C228.384 37.8707 228.59 38.0604 228.895 38.0334L230.017 37.7771Z" fill="black"/>
<path d="M241.448 22.3727C242.443 22.2486 243.311 22.4336 244.05 22.9278C244.813 23.419 245.285 24.1223 245.468 25.0376C245.605 25.7241 245.499 26.2649 245.151 26.66C244.826 27.0523 244.374 27.2845 243.795 27.3566C243.309 27.4172 242.846 27.3576 242.407 27.1779C241.986 26.9723 241.73 26.6407 241.639 26.1831C241.607 26.0229 241.605 25.7769 241.634 25.445C241.621 25.0245 241.61 24.7913 241.601 24.7456C241.5 24.2422 241.23 24.0179 240.79 24.0727C240.188 24.1477 239.713 24.5587 239.363 25.3058C239.033 26.0271 238.841 26.907 238.787 27.9455C238.733 28.9841 238.788 29.9739 238.952 30.9149L239.98 36.0633C240.067 36.4981 240.261 36.6967 240.562 36.6592L242.945 36.292L243.178 37.4589L234.356 38.5582L234.123 37.3912L235.109 37.3387C235.41 37.3012 235.517 37.0651 235.43 36.6303L233.217 25.544C233.126 25.0864 232.93 24.8763 232.629 24.9138L231.531 25.1209L231.305 23.9883L237.626 23.2006C237.607 23.3437 237.607 23.5783 237.624 23.9044C237.637 24.2076 237.674 24.508 237.733 24.8054L238.048 26.3843C238.416 23.9465 239.549 22.6093 241.448 22.3727Z" fill="black"/>
<path d="M288.982 33.0219L289.09 34.207L281.191 34.6229L281.083 33.4378L282.348 33.4413C282.644 33.3556 282.776 33.1269 282.742 32.7551L281.975 24.3199C281.867 23.1348 281.697 22.2915 281.464 21.7901C281.254 21.2875 280.87 21.0509 280.311 21.0803C279.798 21.1073 279.274 21.3917 278.738 21.9336C278.225 22.4743 277.815 23.2431 277.508 24.2399C277.2 25.2367 277.095 26.398 277.192 27.7238L277.674 33.022C277.714 33.4635 277.885 33.6763 278.188 33.6603L279.405 33.5262L279.513 34.7113L271.544 35.1309L271.436 33.9458L272.701 33.9493C272.998 33.8636 273.129 33.6349 273.095 33.2631L272.328 24.8278C272.216 23.5963 272.045 22.7414 271.814 22.2632C271.583 21.785 271.177 21.5613 270.594 21.592C270.105 21.6177 269.603 21.8893 269.088 22.4068C268.596 22.923 268.195 23.6563 267.883 24.6066C267.569 25.5337 267.435 26.6265 267.479 27.8851L267.992 33.5318C268.034 33.9965 268.206 34.2093 268.507 34.1701L269.759 34.0341L269.866 35.2193L261.967 35.6352L261.86 34.4501L263.019 34.4591C263.316 34.3734 263.447 34.1447 263.414 33.7729L262.39 22.5143C262.354 22.1193 262.182 21.8949 261.872 21.8411L260.725 21.9715L260.621 20.8213L267.017 20.4845C266.932 20.8392 266.91 21.2373 266.95 21.6788L267.127 23.6307C267.517 22.5128 268.139 21.6278 268.993 20.9758C269.845 20.3005 270.9 19.9298 272.158 19.8635C273.416 19.7973 274.41 20.0368 275.138 20.5822C275.89 21.1263 276.407 22.0447 276.688 23.3374C277.07 22.1266 277.698 21.1829 278.573 20.5064C279.446 19.8066 280.523 19.423 281.805 19.3556C283.296 19.277 284.416 19.6266 285.166 20.4044C285.937 21.1576 286.4 22.3941 286.557 24.1136L287.32 32.514C287.361 32.9555 287.532 33.1683 287.835 33.1523L288.982 33.0219Z" fill="black"/>
<path d="M291.764 26.9194C291.729 24.3996 292.356 22.4737 293.644 21.1415C294.932 19.8093 296.883 19.1409 299.496 19.1362C302.133 19.1315 304.102 19.793 305.404 21.1206C306.706 22.4481 307.374 24.3718 307.409 26.8916C307.482 32.0944 304.916 34.7004 299.713 34.7097C297.1 34.7143 295.13 34.0529 293.805 32.7253C292.48 31.3978 291.8 29.4625 291.764 26.9194ZM296.665 26.9807C296.698 29.3371 296.943 31.0166 297.4 32.019C297.881 32.9981 298.646 33.4867 299.696 33.4848C300.746 33.4829 301.486 32.9917 301.915 32.011C302.345 31.0303 302.543 29.35 302.51 26.9703C302.476 24.5438 302.231 22.8294 301.774 21.827C301.316 20.8245 300.563 20.3242 299.513 20.3261C298.463 20.328 297.711 20.8309 297.259 21.835C296.829 22.839 296.631 24.5542 296.665 26.9807Z" fill="black"/>
<path d="M311.827 26.9927C311.945 24.4755 312.688 22.5778 314.057 21.2996C315.425 20.0215 317.415 19.4327 320.026 19.5334C322.661 19.635 324.588 20.3748 325.808 21.7528C327.028 23.1308 327.578 25.0784 327.46 27.5956C327.215 32.7932 324.493 35.2917 319.294 35.0912C316.682 34.9905 314.755 34.2507 313.512 32.8718C312.269 31.4929 311.707 29.5332 311.827 26.9927ZM316.72 27.2515C316.609 29.6055 316.751 31.2922 317.147 32.3115C317.567 33.3084 318.302 33.8271 319.351 33.8676C320.401 33.908 321.17 33.4473 321.659 32.4855C322.148 31.5237 322.448 29.8541 322.56 27.4767C322.674 25.0527 322.534 23.3311 322.138 22.3118C321.742 21.2925 321.019 20.7626 319.97 20.7221C318.921 20.6817 318.139 21.1535 317.626 22.1378C317.136 23.1229 316.834 24.8275 316.72 27.2515Z" fill="black"/>
<path d="M332 27.9185C332.282 25.3439 333.018 23.449 334.207 22.2336C335.422 20.997 337.065 20.4612 339.135 20.6264C340.205 20.7118 341.094 21.0519 341.803 21.6466C342.538 22.22 342.991 22.8996 343.163 23.6854L344.396 12.4478C344.447 11.9839 344.321 11.7399 344.019 11.7158L342.406 11.6573L342.528 10.5439L349.157 11.073L346.566 34.6963C346.518 35.137 346.645 35.3694 346.947 35.3936L348.106 35.4159L347.976 36.5988L341.557 36.0864C341.624 35.9046 341.667 35.7209 341.688 35.5353L341.772 34.7699C341.8 34.5148 341.833 34.3186 341.871 34.1813C341.91 34.044 341.932 33.9521 341.937 33.9057C341.548 34.6702 340.979 35.2565 340.231 35.6647C339.484 36.0497 338.565 36.1986 337.472 36.1114C335.215 35.9313 333.668 35.1761 332.828 33.8456C331.989 32.5152 331.712 30.5395 332 27.9185ZM336.884 28.3083C336.714 29.8623 336.651 31.074 336.697 31.9433C336.766 32.8145 336.964 33.4621 337.293 33.8861C337.622 34.3101 338.124 34.549 338.798 34.6028C339.845 34.6864 340.66 34.3185 341.242 33.4993C341.851 32.6588 342.25 31.3687 342.441 29.6292L342.605 28.1331C342.798 26.3704 342.681 24.9806 342.253 23.9637C341.827 22.9237 341.114 22.3637 340.114 22.2839C339.184 22.2097 338.463 22.6902 337.95 23.7256C337.464 24.7397 337.108 26.2672 336.884 28.3083Z" fill="black"/>
<path d="M370.589 16.153C371.375 16.2607 371.972 16.5425 372.381 16.9983C372.813 17.4572 372.966 18.0072 372.84 18.6483C372.709 19.3122 372.352 19.804 371.767 20.1234C371.205 20.4461 370.531 20.5535 369.745 20.4458C368.959 20.338 368.35 20.0546 367.918 19.5957C367.509 19.1399 367.369 18.5801 367.5 17.9161C367.626 17.275 367.97 16.7932 368.532 16.4705C369.117 16.1511 369.803 16.0452 370.589 16.153ZM368.854 37.2877C368.764 37.7456 368.872 37.9838 369.177 38.0021L370.335 38.0903L370.105 39.2579L362.372 38.1977L362.602 37.03L363.733 37.2556L363.802 37.2651C364.056 37.3 364.226 37.0999 364.312 36.6649L366.493 25.5723C366.57 25.1831 366.476 24.9352 366.212 24.8284L365.054 24.7402L365.277 23.6069L371.38 24.4437L368.854 37.2877Z" fill="black"/>
<path d="M376.587 35.1252L377.777 35.2551C377.494 36.4111 377.742 37.4558 378.52 38.3895C379.32 39.327 380.411 39.9122 381.792 40.1452C382.551 40.2733 383.191 40.2042 383.711 39.938C384.26 39.653 384.612 39.1932 384.767 38.5586C384.895 38.0373 384.822 37.6002 384.549 37.2473C384.304 36.8756 383.804 36.5199 383.049 36.18L380.731 35.0808C379.485 34.4931 378.631 33.7708 378.17 32.9142C377.732 32.0615 377.654 31.0571 377.937 29.9012C378.281 28.496 379.053 27.4462 380.253 26.7519C381.458 26.0348 382.958 25.8277 384.753 26.1305C385.236 26.212 385.665 26.3198 386.039 26.4538C386.414 26.5878 386.869 26.7826 387.406 27.0383C388.092 27.3665 388.642 27.5656 389.057 27.6354C389.425 27.6975 389.792 27.6651 390.158 27.5381L389.003 31.3789L387.968 31.2042C388.179 30.343 387.993 29.5329 387.412 28.7741C386.854 28.0191 385.954 27.5368 384.712 27.3272C383.998 27.2069 383.379 27.2911 382.853 27.58C382.356 27.8501 382.043 28.2458 381.916 28.7671C381.81 29.1977 381.88 29.5989 382.124 29.9705C382.375 30.3195 382.791 30.6258 383.373 30.8892L385.605 31.9029C387.093 32.5788 388.033 33.3392 388.425 34.1842C388.84 35.033 388.903 36.0468 388.615 37.2253C388.221 38.8345 387.361 39.9993 386.035 40.7195C384.715 41.4172 383.145 41.6126 381.328 41.3059C380.799 41.2167 380.272 41.0688 379.747 40.8623C379.24 40.6823 378.448 40.348 377.369 39.8593C377.023 39.7065 376.712 39.6068 376.436 39.5602C375.93 39.4748 375.557 39.4827 375.316 39.5837L376.587 35.1252Z" fill="black"/>
<path d="M321.259 134.016L317.643 139.059C314.409 143.568 314.409 149.637 317.643 154.147L321.259 159.189L316.217 155.573C311.708 152.339 305.638 152.339 301.129 155.573L296.087 159.189L299.702 154.147C302.937 149.637 302.937 143.568 299.702 139.059L296.087 134.016L301.129 137.632C305.638 140.867 311.708 140.867 316.217 137.632L321.259 134.016Z" fill="#262626"/>
</svg>
