<svg width="606" height="206" viewBox="0 0 606 206" fill="none" xmlns="http://www.w3.org/2000/svg">
<path d="M0 205H606" stroke="black"/>
<path d="M320.759 155.586L317.143 160.628C313.909 165.138 313.909 171.207 317.143 175.717L320.759 180.759L315.717 177.143C311.208 173.909 305.138 173.909 300.629 177.143L295.587 180.759L299.202 175.717C302.437 171.207 302.437 165.138 299.202 160.628L295.587 155.586L300.629 159.202C305.138 162.436 311.208 162.436 315.717 159.202L320.759 155.586Z" fill="#131313"/>
<path d="M140.619 154.78L128.795 138.517L112.131 144.831L111.331 165.878L117.643 163.486L118.143 165.121L105.266 170L104.767 168.365L108.722 166.866L112.115 99.6034L119.016 96.9886L158.293 148.084L162.165 146.617L162.664 148.252L135.144 158.68L134.644 157.044L140.619 154.78ZM113.33 117.102L112.31 142.65L127.543 136.878L113.33 117.102Z" fill="black"/>
<path d="M167.861 82.628L194.21 77.1593C202.376 75.4644 208.674 75.3207 213.104 76.7281C217.583 78.0641 220.263 81.3655 221.144 86.6322C222.501 94.7394 218.467 100.598 209.041 104.208L209.071 104.385C221.068 103.426 227.804 107.355 229.28 116.172C230.36 122.622 228.709 127.649 224.327 131.253C219.936 134.798 213.217 137.509 204.169 139.386L178.262 144.764L177.979 143.077L183.707 141.888L173.871 83.1257L168.144 84.3146L167.861 82.628ZM195.914 108.585L200.891 138.322L205.033 137.462C208.264 136.791 210.337 135.198 211.254 132.681C212.17 130.164 212.261 126.716 211.528 122.337L210.741 117.632C210.087 113.726 208.804 110.962 206.891 109.338C204.977 107.715 201.994 107.323 197.941 108.165L195.914 108.585ZM191.055 79.5592L195.631 106.899L197.923 106.423C200.977 105.789 202.939 104.433 203.807 102.355C204.724 100.205 204.86 97.2069 204.216 93.3604L203.518 89.1884C202.785 84.8093 201.746 81.8715 200.401 80.3748C199.047 78.819 196.871 78.352 193.875 78.9739L191.055 79.5592Z" fill="black"/>
<path d="M240.312 82.5898C237.154 82.9657 234.813 82.429 233.288 80.9795C231.822 79.523 230.975 77.6002 230.745 75.2112C230.516 72.8222 231.042 70.7661 232.323 69.043C233.663 67.3128 235.823 66.2704 238.802 65.9158C241.781 65.5611 244.113 66.0083 245.8 67.2573C247.481 68.4465 248.448 70.3551 248.7 72.983C248.947 75.5512 248.4 77.7004 247.059 79.4306C245.719 81.1608 243.47 82.2139 240.312 82.5898ZM227.411 90.3779L249.306 87.7712L253.246 128.803L258.25 128.207L258.405 129.819L231.863 132.979L231.708 131.367L236.623 130.782L232.838 91.3628L227.566 91.9905L227.411 90.3779Z" fill="black"/>
<path d="M265.645 116.361L264.547 88.0319L259.603 88.2694L259.54 86.6506L264.484 86.4131L264.035 74.8118L280.596 69.8717L281.205 85.6099L292.892 85.0486L292.954 86.6673L281.268 87.2287L282.442 117.536C282.551 120.354 282.901 122.409 283.491 123.702C284.142 124.993 285.366 125.595 287.164 125.508C288.962 125.422 290.485 124.448 291.734 122.586C293.043 120.721 293.846 118.22 294.145 115.082L295.68 115.188C295.361 119.348 294.17 122.709 292.108 125.271C290.044 127.773 286.524 129.143 281.55 129.382C276.576 129.621 272.732 128.814 270.018 126.963C267.304 125.111 265.847 121.577 265.645 116.361Z" fill="black"/>
<path d="M322.782 65.0917L349.575 67.5943C357.879 68.37 364.006 70.0871 367.957 72.7456C371.972 75.35 373.779 79.3146 373.378 84.6395C372.76 92.8363 367.462 97.282 357.483 97.9768L357.47 98.1563C369.305 100.768 374.887 106.531 374.216 115.446C373.724 121.968 370.93 126.316 365.833 128.491C360.741 130.606 353.595 131.234 344.395 130.375L318.049 127.914L318.178 126.209L324.002 126.753L328.478 67.3409L322.653 66.7969L322.782 65.0917ZM343.741 98.3199L341.476 128.385L345.688 128.778C348.974 129.085 351.359 128.163 352.845 126.012C354.331 123.862 355.24 120.572 355.574 116.145L355.932 111.388C356.229 107.44 355.646 104.403 354.182 102.278C352.717 100.153 349.924 98.8975 345.802 98.5125L343.741 98.3199ZM345.952 68.9731L343.87 96.6148L346.199 96.8324C349.306 97.1226 351.526 96.3961 352.861 94.6529C354.26 92.8555 355.105 90.0123 355.398 86.1233L355.716 81.9053C356.05 77.4778 355.744 74.3463 354.799 72.5108C353.859 70.6155 351.866 69.5255 348.819 69.2409L345.952 68.9731Z" fill="black"/>
<path d="M384.119 67.4694L405.789 71.5462L395.907 136.681L400.86 137.613L400.617 139.214L374.348 134.272L374.591 132.671L379.455 133.586L389.094 70.0528L383.876 69.071L384.119 67.4694Z" fill="black"/>
<path d="M454.407 154.046L434.649 148.503L435.146 141.827C433.692 143.909 431.895 145.334 429.755 146.103C427.686 146.829 424.861 146.69 421.279 145.685C412.325 143.173 408.954 137.03 411.165 127.257L417.144 100.835L412.291 99.4736L412.648 97.8936L433.619 103.777L426.806 133.886C426.012 137.397 425.72 139.774 425.93 141.015C426.198 142.273 427.055 143.105 428.499 143.51C430.001 143.931 431.535 143.397 433.101 141.907C434.667 140.417 435.814 138.063 436.542 134.844L442.62 107.983L438.634 106.865L438.991 105.285L459.095 110.925L449.998 151.129L454.764 152.466L454.407 154.046Z" fill="black"/>
<path d="M476.562 164.727C469.365 161.879 464.555 157.85 462.133 152.643C459.785 147.4 459.687 141.406 461.84 134.661C464.011 127.859 467.68 123.453 472.846 121.442C478.068 119.452 483.803 119.694 490.051 122.167C502.716 127.18 506.717 136.103 502.055 148.936L478.456 139.596L477.389 142.94C475.601 148.541 474.948 153.047 475.431 156.457C475.913 159.867 477.884 162.257 481.343 163.626C487.815 166.187 493.186 164.321 497.456 158.028L498.881 158.882C496.507 162.578 493.561 165.017 490.041 166.199C486.578 167.404 482.085 166.913 476.562 164.727ZM479.087 137.914L487.707 141.326L489.048 137.125C490.525 132.495 491.25 129.241 491.221 127.362C491.266 125.449 490.48 124.172 488.862 123.531C487.3 122.913 485.836 123.364 484.471 124.884C483.181 126.369 481.833 129.312 480.428 133.713L479.087 137.914Z" fill="black"/>
<path d="M204.506 27.2081L204.925 28.4332L203.874 28.5777C203.508 28.6526 203.268 28.95 203.152 29.4697L201.061 39.3239L203.545 46.5752C203.704 47.0388 204.012 47.2237 204.469 47.1301L206.092 46.7267L206.512 47.9518L197.117 49.8765L196.697 48.6514L198.4 48.3734C198.834 48.2845 198.968 47.9972 198.802 47.5115L196.544 40.9224L187.392 32.6278C186.974 32.2646 186.627 32.1111 186.353 32.1673L185.381 32.4373L184.962 31.2121L194.219 29.3155L194.639 30.5406L192.799 30.8467L192.765 30.8537C192.513 30.9052 192.426 31.0413 192.501 31.2621C192.547 31.3945 192.657 31.5373 192.831 31.6905L199.898 38.0738L201.667 29.7387C201.697 29.6143 201.694 29.4969 201.656 29.3865C201.58 29.1658 201.428 29.0788 201.2 29.1256L199.439 29.5571L199.02 28.332L204.506 27.2081Z" fill="black"/>
<path d="M211.786 39.646C211.118 37.2162 211.253 35.2572 212.191 33.7691C213.128 32.2811 214.888 31.3314 217.469 30.9202C220.072 30.5053 222.184 30.8381 223.804 31.9186C225.424 32.9991 226.568 34.7543 227.236 37.1841C228.615 42.2014 226.735 45.1194 221.596 45.9382C219.016 46.3494 216.904 46.0167 215.261 44.9398C213.618 43.863 212.46 42.0984 211.786 39.646ZM216.643 38.9425C217.268 41.2149 217.932 42.7999 218.636 43.6976C219.356 44.5691 220.235 44.9223 221.272 44.757C222.309 44.5918 222.916 44.0018 223.094 42.9871C223.272 41.9724 223.046 40.3176 222.415 38.0227C221.772 35.6828 221.099 34.064 220.395 33.1663C219.691 32.2687 218.821 31.9024 217.784 32.0677C216.747 32.2329 216.131 32.8359 215.936 33.8768C215.764 34.914 216 36.6026 216.643 38.9425Z" fill="black"/>
<path d="M249.809 40.9154L250.053 42.08L243.69 42.8163C243.734 42.4603 243.687 41.9512 243.548 41.289L243.225 39.7475C242.656 42.129 241.131 43.4633 238.651 43.7502C237.145 43.9246 235.96 43.6523 235.097 42.9335C234.229 42.1919 233.611 40.9419 233.242 39.1835L231.539 31.0652C231.448 30.6313 231.252 30.4318 230.95 30.4667L229.817 30.6679L229.58 29.5375L235.734 28.8254L237.84 38.862C238.084 40.0266 238.351 40.8494 238.642 41.3304C238.956 41.8086 239.426 42.0115 240.052 41.9391C240.608 41.8748 241.103 41.5719 241.535 41.0307C241.991 40.4868 242.294 39.7265 242.446 38.75C242.592 37.7507 242.538 36.5874 242.283 35.2602L241.177 29.985C241.081 29.5283 240.894 29.316 240.616 29.3482L239.274 29.5736L239.037 28.4432L245.4 27.707L248.087 40.5181C248.173 40.9292 248.37 41.1287 248.676 41.1167L249.809 40.9154Z" fill="black"/>
<path d="M261.978 26.0866C262.978 26.0113 263.836 26.2384 264.55 26.7681C265.288 27.2959 265.725 28.0214 265.863 28.9445C265.966 29.6368 265.835 30.1719 265.467 30.5496C265.124 30.9255 264.661 31.1354 264.079 31.1792C263.591 31.216 263.131 31.1339 262.701 30.9329C262.291 30.7071 262.052 30.3634 261.983 29.9019C261.958 29.7403 261.969 29.4945 262.014 29.1644C262.021 28.7438 262.022 28.5104 262.015 28.4642C261.939 27.9565 261.68 27.7193 261.238 27.7526C260.633 27.7981 260.138 28.1855 259.753 28.9146C259.387 29.6189 259.153 30.4884 259.048 31.5231C258.944 32.5577 258.951 33.5491 259.069 34.497L259.844 39.6894C259.909 40.1279 260.093 40.3357 260.396 40.313L262.794 40.0624L262.97 41.2393L254.105 41.9069L253.929 40.73L254.916 40.7256C255.219 40.7028 255.337 40.4722 255.272 40.0337L253.603 28.8527C253.534 28.3911 253.348 28.1717 253.045 28.1945L251.939 28.3479L251.768 27.2055L258.12 26.7272C258.095 26.8691 258.082 27.1034 258.084 27.43C258.082 27.7335 258.104 28.0353 258.149 28.3353L258.386 29.9276C258.873 27.5106 260.07 26.2303 261.978 26.0866Z" fill="black"/>
<path d="M308.936 39.0422L308.986 40.2311L301.076 40.2612L301.026 39.0723L302.289 39.1374C302.589 39.0663 302.732 38.8443 302.716 38.4713L302.362 30.0087C302.312 28.8197 302.183 27.9692 301.975 27.457C301.79 26.9447 301.418 26.6897 300.858 26.6918C300.344 26.6937 299.807 26.9523 299.245 27.4674C298.706 27.9824 298.259 28.7302 297.904 29.7109C297.548 30.6915 297.386 31.8463 297.419 33.1752L297.641 38.4906C297.66 38.9335 297.821 39.1544 298.124 39.1533L299.346 39.0787L299.396 40.2676L291.416 40.298L291.366 39.109L292.629 39.1742C292.929 39.1031 293.072 38.881 293.056 38.508L292.702 30.0454C292.65 28.8098 292.521 27.9476 292.313 27.4588C292.106 26.9699 291.711 26.7266 291.128 26.7288C290.638 26.7307 290.123 26.9774 289.583 27.4691C289.067 27.9608 288.63 28.6736 288.273 29.6076C287.914 30.5183 287.726 31.6032 287.709 32.8624L287.946 38.5274C287.966 38.9937 288.127 39.2146 288.429 39.1901L289.686 39.1154L289.736 40.3044L281.826 40.3344L281.776 39.1455L282.934 39.211C283.234 39.1399 283.377 38.9179 283.361 38.5449L282.888 27.2498C282.872 26.8535 282.71 26.6209 282.404 26.5521L281.252 26.6265L281.204 25.4725L287.609 25.4481C287.507 25.7982 287.465 26.1948 287.483 26.6377L287.565 28.596C288.009 27.4984 288.674 26.6449 289.558 26.0353C290.442 25.4024 291.514 25.0835 292.774 25.0787C294.034 25.0739 295.014 25.3616 295.715 25.9419C296.44 26.5221 296.911 27.4646 297.129 28.7695C297.569 27.5787 298.243 26.6668 299.15 26.0338C300.056 25.3774 301.15 25.0468 302.434 25.042C303.927 25.0363 305.029 25.4401 305.74 26.2535C306.473 27.0435 306.876 28.3011 306.948 30.0262L307.301 38.4538C307.32 38.8968 307.481 39.1177 307.784 39.1165L308.936 39.0422Z" fill="black"/>
<path d="M312.013 33.0826C312.1 30.5642 312.82 28.671 314.172 27.4033C315.523 26.1355 317.504 25.5631 320.115 25.6859C322.749 25.8099 324.683 26.5666 325.919 27.9561C327.154 29.3456 327.728 31.2996 327.64 33.8181C327.459 39.0183 324.769 41.496 319.572 41.2514C316.961 41.1286 315.027 40.3719 313.768 38.9812C312.509 37.5906 311.924 35.6244 312.013 33.0826ZM316.905 33.3829C316.823 35.7382 316.985 37.4276 317.393 38.4511C317.825 39.4525 318.566 39.9778 319.615 40.0272C320.663 40.0765 321.426 39.6219 321.903 38.6634C322.38 37.7048 322.66 36.0363 322.743 33.6577C322.828 31.2325 322.666 29.5081 322.258 28.4846C321.851 27.461 321.122 26.9245 320.073 26.8752C319.024 26.8258 318.25 27.2915 317.748 28.2723C317.271 29.2542 316.989 30.9577 316.905 33.3829Z" fill="black"/>
<path d="M332.047 34.1348C332.289 31.6263 333.124 29.7671 334.553 28.5572C335.981 27.3473 337.998 26.8564 340.601 27.0844C343.228 27.3144 345.117 28.1473 346.268 29.5832C347.419 31.019 347.874 32.9912 347.633 35.4996C347.135 40.6791 344.294 43.0418 339.111 42.5879C336.507 42.3599 334.618 41.527 333.444 40.0891C332.27 38.6512 331.804 36.6664 332.047 34.1348ZM336.922 34.6319C336.697 36.9778 336.757 38.6694 337.102 39.7068C337.473 40.723 338.182 41.2769 339.228 41.3685C340.274 41.4601 341.065 41.0375 341.6 40.1007C342.135 39.1639 342.517 37.5109 342.745 35.1418C342.977 32.7263 342.92 30.9998 342.575 29.9624C342.229 28.925 341.533 28.3605 340.487 28.2689C339.441 28.1773 338.638 28.6105 338.077 29.5685C337.539 30.5286 337.154 32.2164 336.922 34.6319Z" fill="black"/>
<path d="M352.152 36.0435C352.559 33.4858 353.387 31.629 354.634 30.4731C355.907 29.2972 357.574 28.8422 359.634 29.1082C360.698 29.2457 361.57 29.6287 362.249 30.2573C362.955 30.8659 363.375 31.5668 363.508 32.3601L365.287 21.196C365.361 20.7351 365.247 20.4853 364.946 20.4464L363.339 20.3093L363.515 19.2033L370.11 20.0551L366.37 43.5239C366.3 43.9617 366.416 44.2 366.716 44.2389L367.873 44.3177L367.686 45.4929L361.299 44.668C361.374 44.4896 361.427 44.3083 361.456 44.1239L361.577 43.3635C361.618 43.11 361.661 42.9157 361.706 42.7804C361.751 42.6451 361.777 42.5545 361.785 42.5084C361.359 43.253 360.762 43.8109 359.995 44.1821C359.231 44.5302 358.305 44.634 357.217 44.4936C354.972 44.2037 353.463 43.3738 352.69 42.004C351.916 40.6341 351.737 38.6473 352.152 36.0435ZM357.011 36.6712C356.765 38.215 356.644 39.4222 356.647 40.2927C356.673 41.1662 356.84 41.8227 357.148 42.2622C357.455 42.7018 357.945 42.9649 358.616 43.0516C359.657 43.1861 360.489 42.8584 361.111 42.0686C361.759 41.2587 362.221 39.9897 362.497 38.2615L362.734 36.7753C363.013 35.024 362.963 33.6302 362.585 32.5936C362.211 31.5341 361.526 30.94 360.531 30.8115C359.606 30.692 358.862 31.1368 358.299 32.1459C357.764 33.135 357.334 34.6434 357.011 36.6712Z" fill="black"/>
<path d="M391.268 26.1744C392.048 26.3204 392.631 26.631 393.017 27.1062C393.427 27.5857 393.553 28.1425 393.395 28.7766C393.233 29.4334 392.851 29.9071 392.251 30.1976C391.674 30.4925 390.996 30.5669 390.216 30.4209C389.436 30.275 388.842 29.9622 388.433 29.4828C388.046 29.0076 387.935 28.4416 388.097 27.7848C388.255 27.1506 388.622 26.6861 389.199 26.3913C389.799 26.1007 390.489 26.0285 391.268 26.1744ZM388.505 47.1994C388.393 47.6524 388.489 47.8955 388.792 47.9286L389.945 48.0732L389.658 49.2283L381.987 47.7921L382.273 46.637L383.391 46.9175L383.46 46.9304C383.712 46.9776 383.892 46.7861 383.998 46.3557L386.718 35.3828C386.814 34.9978 386.732 34.7455 386.474 34.6261L385.322 34.4815L385.6 33.3604L391.654 34.4939L388.505 47.1994Z" fill="black"/>
<path d="M396.334 45.417L397.516 45.6049C397.177 46.7456 397.374 47.8012 398.105 48.7717C398.859 49.7472 399.92 50.3849 401.287 50.6849C402.04 50.8499 402.682 50.8121 403.215 50.5716C403.777 50.3137 404.151 49.8717 404.337 49.2454C404.49 48.7309 404.438 48.2908 404.183 47.925C403.957 47.5419 403.475 47.1622 402.737 46.7859L400.475 45.5749C399.259 44.927 398.442 44.164 398.023 43.2859C397.627 42.4128 397.598 41.4059 397.937 40.2651C398.349 38.8783 399.171 37.8675 400.404 37.2325C401.643 36.5751 403.151 36.4415 404.929 36.8315C405.408 36.9364 405.831 37.065 406.198 37.2171C406.566 37.3692 407.011 37.586 407.534 37.8676C408.204 38.2289 408.744 38.4545 409.154 38.5445C409.519 38.6245 409.887 38.6101 410.259 38.5011L408.918 42.2809L407.893 42.056C408.145 41.206 408 40.3879 407.456 39.6016C406.936 38.8203 406.06 38.2947 404.83 38.0247C404.123 37.8697 403.5 37.9236 402.961 38.1865C402.451 38.432 402.119 38.812 401.967 39.3265C401.84 39.7515 401.89 40.1555 402.116 40.5387C402.349 40.8994 402.75 41.2256 403.319 41.5172L405.498 42.6386C406.951 43.3862 407.853 44.1915 408.204 45.0546C408.577 45.9228 408.591 46.9384 408.245 48.1015C407.774 49.6896 406.858 50.811 405.498 51.4657C404.145 52.098 402.568 52.2167 400.768 51.8217C400.243 51.7067 399.724 51.5333 399.211 51.3015C398.713 51.097 397.938 50.7244 396.884 50.1836C396.546 50.0142 396.241 49.8994 395.967 49.8394C395.466 49.7294 395.093 49.719 394.848 49.8082L396.334 45.417Z" fill="black"/>
</svg>
