<svg width="606" height="209" viewBox="0 0 606 209" fill="none" xmlns="http://www.w3.org/2000/svg">
<path d="M199.459 148.616C202.637 147.61 205.162 145.867 207.034 143.386C208.969 140.886 209.394 137.919 208.308 134.487C207.201 130.991 205.022 128.744 201.769 127.746C198.58 126.727 194.327 126.325 189.01 126.539C183.737 126.67 179.827 126.579 177.281 126.266C174.798 125.933 172.31 125.252 169.817 124.223C164.83 122.165 161.24 117.672 159.047 110.744C157.257 105.088 157.72 99.5917 160.437 94.2566C163.217 88.9013 168.103 85.1173 175.095 82.9045C178.463 81.8383 182.12 81.2404 186.065 81.1107C190.053 80.8973 192.492 80.6498 193.382 80.3682C194.272 80.0865 194.865 79.1995 195.162 77.707L196.211 77.3751L202.973 96.4223L201.448 96.9051C196.647 92.341 192.039 88.9396 187.624 86.7007C183.253 84.3781 179.097 83.8404 175.156 85.0876C171.279 86.3147 168.552 88.1919 166.974 90.7191C165.377 93.1827 165.06 95.9399 166.026 98.9908C166.972 101.978 168.977 103.896 172.042 104.743C175.151 105.508 178.742 105.805 182.813 105.635C186.885 105.465 189.554 105.39 190.818 105.409C192.147 105.408 193.779 105.486 195.717 105.642C197.698 105.714 199.349 105.96 200.671 106.381C202.036 106.718 203.504 107.268 205.074 108.03C206.687 108.708 208.054 109.604 209.176 110.717C211.857 113.225 213.862 116.576 215.19 120.771C217.362 127.635 216.951 133.849 213.957 139.412C211.006 144.891 206.035 148.737 199.044 150.95C195.421 152.096 191.107 152.937 186.102 153.473C181.16 153.988 178.435 154.326 177.926 154.487C177.037 154.768 176.48 155.993 176.258 158.161L174.923 158.584L166.788 136.195L168.409 135.682C172.955 140.327 178.044 144.031 183.673 146.794C189.366 149.537 194.628 150.145 199.459 148.616Z" fill="#131313"/>
<path d="M214.211 64.8105L238.552 62.0227L246.881 134.747L252.445 134.11L252.65 135.898L223.142 139.278L222.938 137.49L228.402 136.864L220.278 65.9274L214.416 66.5988L214.211 64.8105Z" fill="#131313"/>
<path d="M279.648 132.508C271.077 133.219 264.451 131.56 259.769 127.534C255.148 123.435 252.512 117.466 251.862 109.626C251.206 101.72 253.097 95.4753 257.533 90.893C262.036 86.3052 268.008 83.7028 275.449 83.0857C290.531 81.8351 298.401 88.8086 299.059 104.006L270.956 106.337L271.278 110.223C271.818 116.734 273.056 121.582 274.992 124.766C276.929 127.95 279.957 129.372 284.076 129.03C291.783 128.391 296.49 123.853 298.199 115.416L300.018 115.567C299.152 120.455 297.168 124.365 294.067 127.298C291.032 130.226 286.226 131.962 279.648 132.508ZM270.89 104.335L281.155 103.484L280.75 98.6008C280.304 93.2192 279.668 89.5927 278.844 87.721C278.081 85.7775 276.736 84.8856 274.809 85.0453C272.949 85.1996 271.642 86.3783 270.888 88.5815C270.195 90.7127 270.061 94.3362 270.485 99.452L270.89 104.335Z" fill="#131313"/>
<path d="M327.422 133.145C318.87 132.241 312.67 129.373 308.823 124.542C305.05 119.652 303.576 113.295 304.403 105.472C305.237 97.5827 308.262 91.8019 313.477 88.1298C318.758 84.4647 325.111 83.0246 332.537 83.8095C347.586 85.4003 354.014 93.7221 351.819 108.775L323.775 105.81L323.365 109.689C322.678 116.186 322.989 121.179 324.296 124.67C325.603 128.16 328.311 130.122 332.422 130.556C340.112 131.369 345.585 127.792 348.841 119.823L350.6 120.311C348.835 124.951 346.156 128.422 342.56 130.723C339.031 133.032 333.985 133.839 327.422 133.145ZM324.085 103.832L334.328 104.915L334.843 100.042C335.411 94.6718 335.465 90.9904 335.005 88.9977C334.618 86.9457 333.464 85.8181 331.541 85.6148C329.685 85.4186 328.181 86.3322 327.028 88.3556C325.949 90.3197 325.14 93.8542 324.6 98.9591L324.085 103.832Z" fill="#131313"/>
<path d="M389.296 110.251C390.337 103.463 390.705 98.8659 390.4 96.4585C390.105 93.9852 389.002 92.602 387.091 92.3089C385.18 92.0159 383.274 93.0052 381.375 95.2768C379.485 97.4826 378.222 100.661 377.585 104.813L374.811 122.901C374.377 125.735 374.568 128.226 375.385 130.375C376.202 132.523 377.698 133.764 379.873 134.098C382.047 134.431 383.752 133.209 384.988 130.431C386.223 127.653 387.397 122.639 388.508 115.391L389.296 110.251ZM379.98 87.8799L378.782 95.6886C382.252 90.218 387.248 87.9828 393.772 88.9833C399.439 89.8523 403.508 92.5671 405.978 97.1276C408.515 101.698 409.146 108.135 407.873 116.438C406.6 124.741 403.947 130.607 399.914 134.035C395.947 137.473 390.57 138.672 383.782 137.631C380.619 137.146 378.308 136.387 376.847 135.354C375.387 134.32 374.289 132.904 373.553 131.105L369.627 156.706L382.378 158.661L382.106 160.441L345.533 154.832L345.806 153.053L351.242 153.887L361.519 86.87L356.281 86.0666L356.554 84.2875L379.98 87.8799Z" fill="#131313"/>
<path d="M409.667 93.8261L409.953 92.049L438.585 96.6586L438.298 98.4357L432.967 97.5774L438.451 132.088L455.181 101.154L448.566 100.089L448.852 98.3117L462.773 100.553L462.487 102.33L457.551 101.535L430.521 151.778C427.353 157.615 424.223 161.534 421.133 163.535C418.031 165.601 414.539 166.322 410.656 165.697C406.772 165.072 403.855 163.69 401.903 161.553C399.951 159.416 399.198 156.965 399.643 154.2C400.088 151.436 401.151 149.446 402.832 148.231C404.514 147.017 406.539 146.6 408.908 146.981C414.371 147.861 416.737 150.571 416.006 155.113C415.847 156.1 415.459 157.253 414.841 158.572L411.386 158.015C410.616 159.444 410.349 160.684 410.584 161.735C410.82 162.786 411.63 163.423 413.012 163.645C415.71 164.08 418.33 163.117 420.871 160.758C423.401 158.464 426.06 154.74 428.848 149.584L432.006 143.812L423.318 142.414L413.715 94.4778L409.667 93.8261Z" fill="#131313"/>
<path d="M0 207.921H606" stroke="black"/>
<path d="M215.979 27.6272L216.374 28.8605L215.32 28.984C214.953 29.0516 214.707 29.344 214.581 29.8614L212.293 39.6718L214.631 46.9713C214.781 47.4379 215.085 47.629 215.544 47.5445L217.175 47.1736L217.57 48.4069L208.138 50.1435L207.743 48.9102L209.451 48.6663C209.887 48.586 210.027 48.3015 209.87 47.8126L207.745 41.1797L198.76 32.7038C198.349 32.3323 198.006 32.1719 197.731 32.2226L196.754 32.4731L196.359 31.2398L205.653 29.5286L206.048 30.7619L204.202 31.0311L204.168 31.0374C203.915 31.0839 203.825 31.2183 203.896 31.4405C203.939 31.5738 204.046 31.7188 204.218 31.8754L211.156 38.3986L213.09 30.1006C213.123 29.9768 213.122 29.8594 213.086 29.7482C213.015 29.526 212.865 29.4361 212.635 29.4783L210.867 29.8746L210.472 28.6413L215.979 27.6272Z" fill="black"/>
<path d="M223.009 40.2083C222.39 37.7656 222.564 35.8097 223.531 34.3407C224.499 32.8717 226.277 31.9574 228.865 31.5978C231.477 31.235 233.581 31.61 235.179 32.7226C236.777 33.8353 237.886 35.613 238.505 38.0557C239.784 43.0995 237.846 45.9794 232.692 46.6953C230.104 47.0549 227.999 46.6799 226.378 45.5705C224.757 44.4611 223.634 42.6737 223.009 40.2083ZM227.879 39.602C228.459 41.8864 229.091 43.4844 229.777 44.3959C230.48 45.2817 231.351 45.6523 232.391 45.5079C233.431 45.3634 234.05 44.7857 234.249 43.7747C234.447 42.7638 234.254 41.1048 233.669 38.7977C233.073 36.4455 232.432 34.8136 231.746 33.902C231.06 32.9904 230.198 32.6068 229.158 32.7513C228.118 32.8958 227.49 33.4864 227.274 34.5232C227.081 35.5568 227.283 37.2497 227.879 39.602Z" fill="black"/>
<path d="M260.999 42.2372L261.22 43.4065L254.844 44.0155C254.895 43.6605 254.858 43.1505 254.732 42.4856L254.44 40.938C253.824 43.3076 252.273 44.6111 249.787 44.8485C248.278 44.9927 247.098 44.6968 246.25 43.9609C245.397 43.2021 244.804 41.94 244.47 40.1745L242.93 32.0238C242.847 31.5882 242.655 31.3848 242.353 31.4136L241.217 31.5922L241.002 30.4573L247.169 29.8684L249.073 39.945C249.294 41.1143 249.545 41.9423 249.827 42.4289C250.131 42.9134 250.597 43.1256 251.224 43.0657C251.781 43.0125 252.282 42.7196 252.725 42.1871C253.191 41.6524 253.51 40.8984 253.681 39.9251C253.847 38.9289 253.816 37.7648 253.588 36.4328L252.587 31.1365C252.501 30.678 252.318 30.462 252.039 30.4886L250.693 30.6872L250.479 29.5523L256.855 28.9433L259.286 41.8056C259.364 42.2183 259.556 42.4217 259.862 42.4158L260.999 42.2372Z" fill="black"/>
<path d="M273.462 27.6552C274.464 27.5998 275.317 27.8441 276.02 28.3879C276.747 28.9304 277.17 29.6645 277.29 30.5901C277.379 31.2844 277.237 31.8167 276.862 32.187C276.511 32.556 276.044 32.7565 275.461 32.7887C274.972 32.8157 274.514 32.7245 274.089 32.5149C273.683 32.281 273.45 31.9326 273.391 31.4697C273.37 31.3077 273.385 31.0622 273.436 30.733C273.453 30.3126 273.458 30.0793 273.452 30.033C273.386 29.5239 273.132 29.2815 272.689 29.306C272.084 29.3394 271.581 29.7168 271.181 30.4381C270.802 31.1349 270.549 31.9996 270.424 33.0319C270.3 34.0643 270.287 35.0556 270.386 36.0057L271.057 41.2126C271.114 41.6523 271.293 41.8638 271.596 41.847L273.999 41.6444L274.151 42.8247L265.274 43.3149L265.122 42.1347L266.11 42.1501C266.412 42.1333 266.536 41.9051 266.479 41.4654L265.033 30.2532C264.974 29.7904 264.792 29.5674 264.489 29.5841L263.38 29.7153L263.232 28.5698L269.593 28.2185C269.564 28.3599 269.547 28.5939 269.542 28.9204C269.535 29.2239 269.55 29.526 269.589 29.8268L269.795 31.4236C270.329 29.0168 271.552 27.7607 273.462 27.6552Z" fill="black"/>
<path d="M320.152 41.5462L320.178 42.736L312.269 42.6079L312.243 41.4182L313.504 41.5086C313.806 41.4435 313.953 41.2244 313.945 40.8511L313.76 32.3832C313.734 31.1934 313.622 30.3405 313.424 29.8242C313.249 29.3084 312.882 29.0459 312.322 29.0369C311.809 29.0285 311.266 29.2763 310.694 29.78C310.145 30.2842 309.683 31.0229 309.308 31.9963C308.933 32.9696 308.748 34.121 308.754 35.4503L308.87 40.769C308.88 41.2122 309.037 41.4363 309.34 41.4412L310.563 41.391L310.589 42.5808L302.61 42.4516L302.584 41.2619L303.846 41.3523C304.147 41.2872 304.294 41.068 304.286 40.6948L304.101 32.2268C304.074 30.9904 303.962 30.1258 303.764 29.6329C303.567 29.14 303.177 28.8888 302.593 28.8794C302.103 28.8715 301.584 29.1079 301.035 29.5887C300.509 30.0699 300.058 30.7739 299.681 31.7005C299.305 32.6039 299.095 33.6849 299.053 34.9434L299.177 40.6121C299.187 41.0786 299.343 41.3027 299.646 41.2843L300.904 41.2347L300.931 42.4244L293.022 42.2964L292.996 41.1067L294.152 41.1954C294.454 41.1303 294.6 40.9111 294.592 40.5379L294.345 29.2356C294.336 28.839 294.18 28.6033 293.875 28.5284L292.722 28.5797L292.696 27.425L299.101 27.5286C298.992 27.8766 298.942 28.2723 298.952 28.7155L298.994 30.675C299.46 29.5866 300.142 28.7464 301.038 28.1546C301.934 27.5395 303.012 27.2421 304.272 27.2625C305.532 27.2829 306.507 27.5902 307.196 28.1843C307.909 28.7789 308.361 29.7306 308.553 31.0396C309.017 29.8578 309.708 28.9596 310.628 28.3448C311.547 27.7068 312.648 27.3981 313.931 27.4189C315.424 27.443 316.518 27.8688 317.212 28.6963C317.93 29.5007 318.307 30.7661 318.345 32.4924L318.529 40.9253C318.539 41.3686 318.695 41.5926 318.999 41.5975L320.152 41.5462Z" fill="black"/>
<path d="M323.347 35.6497C323.485 33.1335 324.243 31.2552 325.619 30.0147C326.996 28.7742 328.988 28.2414 331.596 28.4164C334.226 28.593 336.145 29.3882 337.353 30.8022C338.56 32.2161 339.095 34.1812 338.957 36.6974C338.672 41.8929 335.933 44.3164 330.742 43.968C328.134 43.793 326.215 42.9977 324.984 41.5822C323.753 40.1667 323.208 38.1892 323.347 35.6497ZM328.232 36.0477C328.103 38.4009 328.232 40.0932 328.619 41.1247C329.031 42.1345 329.761 42.6745 330.809 42.7448C331.856 42.8151 332.628 42.3759 333.124 41.427C333.62 40.4782 333.934 38.8156 334.064 36.4391C334.197 34.0161 334.07 32.2889 333.683 31.2574C333.295 30.2258 332.578 29.6749 331.53 29.6046C330.483 29.5343 329.699 29.9844 329.178 30.955C328.681 31.9271 328.365 33.6247 328.232 36.0477Z" fill="black"/>
<path d="M343.357 37.1019C343.648 34.5988 344.52 32.7567 345.973 31.5756C347.426 30.3945 349.451 29.9439 352.05 30.2239C354.671 30.5064 356.543 31.3769 357.665 32.8355C358.788 34.294 359.203 36.2749 358.912 38.778C358.311 43.9465 355.423 46.252 350.25 45.6945C347.652 45.4146 345.78 44.544 344.634 43.083C343.489 41.6219 343.063 39.6282 343.357 37.1019ZM348.221 37.6964C347.948 40.0373 347.975 41.7298 348.299 42.7739C348.65 43.7973 349.347 44.3653 350.391 44.4777C351.435 44.5902 352.234 44.1835 352.788 43.2576C353.342 42.3316 353.757 40.6866 354.032 38.3226C354.312 35.9122 354.29 34.1849 353.965 33.1408C353.641 32.0967 352.956 31.5184 351.912 31.4059C350.868 31.2934 350.056 31.7105 349.476 32.6571C348.92 33.6062 348.501 35.286 348.221 37.6964Z" fill="black"/>
<path d="M363.419 39.4124C363.878 36.8633 364.742 35.0234 366.012 33.8927C367.309 32.7424 368.984 32.3208 371.038 32.628C372.1 32.7867 372.964 33.1871 373.63 33.8291C374.324 34.4517 374.729 35.1608 374.847 35.9566L376.849 24.8303C376.932 24.371 376.823 24.119 376.523 24.0741L374.918 23.9049L375.117 22.8026L381.693 23.786L377.485 47.1754C377.406 47.6117 377.517 47.8523 377.817 47.8972L378.972 47.9991L378.761 49.1703L372.392 48.2179C372.471 48.0411 372.527 47.8608 372.56 47.6771L372.697 46.9193C372.742 46.6667 372.789 46.4732 372.837 46.3389C372.884 46.2045 372.913 46.1144 372.921 46.0685C372.48 46.8044 371.873 47.3503 371.098 47.706C370.327 48.0388 369.399 48.1241 368.314 47.962C366.076 47.6272 364.584 46.7674 363.838 45.3824C363.092 43.9973 362.952 42.0073 363.419 39.4124ZM368.265 40.137C367.988 41.6756 367.843 42.8801 367.828 43.7505C367.837 44.6244 367.991 45.2841 368.29 45.7297C368.589 46.1753 369.073 46.4481 369.742 46.5482C370.78 46.7035 371.618 46.3925 372.256 45.6153C372.921 44.8186 373.408 43.559 373.718 41.8367L373.984 40.3555C374.298 38.6102 374.277 37.2156 373.92 36.1717C373.566 35.1049 372.894 34.4973 371.901 34.3489C370.978 34.2108 370.226 34.6407 369.643 35.6384C369.088 36.6166 368.629 38.1161 368.265 40.137Z" fill="black"/>
<path d="M402.725 30.3269C403.502 30.4885 404.079 30.8106 404.455 31.2934C404.855 31.781 404.97 32.3402 404.8 32.9711C404.624 33.6245 404.233 34.0905 403.627 34.369C403.045 34.6522 402.365 34.7131 401.588 34.5515C400.811 34.39 400.223 34.0655 399.824 33.5779C399.447 33.0951 399.347 32.527 399.523 31.8736C399.692 31.2427 400.069 30.7856 400.652 30.5024C401.257 30.2239 401.949 30.1654 402.725 30.3269ZM399.542 51.2925C399.421 51.7431 399.512 51.9881 399.815 52.0273L400.964 52.1949L400.655 53.344L393.013 51.7547L393.322 50.6056L394.435 50.9084L394.504 50.9226C394.755 50.9749 394.938 50.787 395.053 50.3589L397.992 39.4425C398.095 39.0595 398.018 38.8056 397.763 38.681L396.614 38.5134L396.914 37.3981L402.945 38.6524L399.542 51.2925Z" fill="black"/>
<path d="M407.405 49.6671L408.583 49.8786C408.222 51.0123 408.397 52.0717 409.109 53.0566C409.843 54.0469 410.891 54.7057 412.252 55.033C413.001 55.213 413.644 55.1881 414.181 54.9582C414.749 54.7116 415.131 54.2771 415.33 53.6547C415.493 53.1434 415.45 52.7023 415.202 52.3315C414.984 51.944 414.51 51.5547 413.779 51.1637L411.542 49.9077C410.339 49.2357 409.538 48.4565 409.136 47.5702C408.758 46.6893 408.749 45.682 409.111 44.5483C409.55 43.17 410.393 42.1758 411.638 41.5656C412.89 40.9331 414.4 40.8296 416.17 41.2551C416.646 41.3696 417.067 41.5066 417.431 41.666C417.796 41.8254 418.237 42.0511 418.754 42.3431C419.416 42.7177 419.952 42.9541 420.36 43.0523C420.723 43.1395 421.092 43.1324 421.466 43.0309L420.05 46.7832L419.029 46.5378C419.298 45.693 419.169 44.8722 418.642 44.0752C418.137 43.2837 417.272 42.7406 416.047 42.4461C415.343 42.277 414.72 42.3185 414.175 42.5705C413.66 42.8058 413.321 43.1791 413.158 43.6904C413.024 44.1128 413.065 44.5177 413.284 44.9053C413.509 45.2707 413.903 45.6048 414.466 45.9077L416.623 47.0724C418.061 47.8489 418.946 48.6721 419.28 49.5421C419.635 50.4175 419.629 51.4332 419.26 52.5891C418.757 54.1675 417.819 55.2703 416.447 55.8977C415.081 56.5029 413.502 56.5901 411.71 56.1592C411.188 56.0337 410.673 55.85 410.164 55.6079C409.67 55.3935 408.902 55.0055 407.86 54.4438C407.526 54.2676 407.222 54.1468 406.95 54.0813C406.451 53.9613 406.078 53.9435 405.831 54.0278L407.405 49.6671Z" fill="black"/>
<path d="M320.759 158.507L317.143 163.549C313.909 168.059 313.909 174.128 317.143 178.638L320.759 183.68L315.717 180.064C311.208 176.83 305.138 176.83 300.629 180.064L295.587 183.68L299.202 178.638C302.437 174.128 302.437 168.059 299.202 163.549L295.587 158.507L300.629 162.123C305.138 165.357 311.208 165.357 315.717 162.123L320.759 158.507Z" fill="#262626"/>
</svg>
