<svg width="605" height="209" viewBox="0 0 605 209" fill="none" xmlns="http://www.w3.org/2000/svg">
<path d="M0 208H605" stroke="black"/>
<path d="M98.8239 129.985L93.7635 131.56L105.832 162.811L112.038 160.879L112.723 162.651L81.6916 172.311L81.0071 170.539L87.2134 168.607L63.3644 106.852L57.1582 108.784L56.4737 107.011L85.3088 98.035C93.5838 95.459 99.608 94.0713 103.382 93.8719C107.195 93.5905 110.03 93.8227 111.886 94.5683C115.878 96.0426 118.895 99.4228 120.937 104.709C122.978 109.995 123.106 114.205 121.322 117.338C119.513 120.409 115.955 123.015 110.649 125.154L110.757 125.434C116.177 124.513 120.35 124.886 123.276 126.553C126.201 128.22 128.709 131.759 130.798 137.169L132.708 142.113C133.957 145.347 134.956 147.474 135.707 148.495C136.521 149.495 137.501 149.817 138.647 149.46C139.793 149.104 140.492 148.329 140.744 147.136C141.036 145.86 140.832 143.486 140.132 140.011L141.827 139.692C143.168 145.197 143.296 149.128 142.21 151.486C141.188 153.825 138.067 155.806 132.848 157.431C127.628 159.056 123.448 159.034 120.307 157.364C117.206 155.612 114.383 151.44 111.837 144.848L109.207 138.038C107.862 134.556 106.4 132.155 104.821 130.835C103.305 129.495 101.306 129.212 98.8239 129.985ZM81.9831 101.056L93.079 129.788L96.1344 128.837C99.7626 127.707 102.016 125.786 102.894 123.075C103.836 120.343 103.358 116.521 101.46 111.608L100.416 108.903C98.5183 103.99 96.4101 101.023 94.091 100.004C91.8116 98.9018 88.8259 98.9256 85.134 100.075L81.9831 101.056Z" fill="#131313"/>
<path d="M172.089 147.569C163.698 149.452 156.798 148.749 151.39 145.46C146.028 142.091 142.292 136.618 140.182 129.04C138.054 121.397 138.768 115.027 142.325 109.93C145.946 104.818 151.4 101.444 158.685 99.8086C173.451 96.494 182.58 102.224 186.073 116.998L158.557 123.175L159.604 126.932C161.356 133.225 163.493 137.795 166.013 140.642C168.534 143.488 171.81 144.458 175.843 143.553C183.389 141.859 187.224 136.767 187.348 128.278L189.184 128.173C189.236 133.074 187.994 137.175 185.457 140.474C182.985 143.758 178.529 146.123 172.089 147.569ZM158.118 121.226L168.168 118.97L166.854 114.25C165.405 109.048 164.096 105.588 162.927 103.872C161.805 102.077 160.301 101.391 158.414 101.814C156.593 102.223 155.513 103.557 155.175 105.817C154.884 107.998 155.427 111.56 156.804 116.506L158.118 121.226Z" fill="#131313"/>
<path d="M214.805 64.6687C212.297 65.0276 210.817 66.2156 210.363 68.2325C209.897 70.1837 210.032 73.227 210.766 77.3623L213.563 93.1159L226.63 91.2456L226.945 93.0178L213.878 94.8882L221.571 138.21L233.648 136.482L233.962 138.254L198.028 143.398L197.714 141.625L203.158 140.846L195.466 97.5237L189.724 98.3455L189.409 96.5732L195.151 95.7514L195.081 95.3576C193.402 85.9054 193.947 78.4909 196.714 73.114C199.47 67.6715 205.104 64.3409 213.617 63.1224C219.227 62.3195 223.45 62.8591 226.288 64.7414C229.115 66.558 230.785 68.9103 231.297 71.7985C231.81 74.6867 231.436 76.9614 230.174 78.6227C228.913 80.2841 227.028 81.2942 224.521 81.6532C222.013 82.0121 219.955 81.6672 218.348 80.6184C216.795 79.4946 215.873 78.1121 215.581 76.4711C215.278 74.7645 215.185 73.0952 215.301 71.4631L219.063 70.9247C219.59 66.2723 218.171 64.1869 214.805 64.6687Z" fill="#131313"/>
<path d="M235.126 62.1969L259.566 60.4893L265.887 133.416L271.474 133.026L271.629 134.819L242.001 136.889L241.846 135.096L247.332 134.712L241.167 63.5789L235.281 63.9902L235.126 62.1969Z" fill="#131313"/>
<path d="M298.074 134.043C289.474 134.057 283.002 131.868 278.66 127.475C274.384 123.015 272.238 116.852 272.222 108.986C272.206 101.052 274.593 94.9818 279.384 90.7738C284.242 86.5657 290.405 84.4555 297.871 84.4431C313.005 84.418 320.287 92.0059 319.718 107.207L291.518 107.254L291.526 111.154C291.54 117.687 292.383 122.619 294.057 125.949C295.73 129.28 298.634 130.942 302.767 130.935C310.5 130.922 315.559 126.78 317.942 118.51L319.742 118.807C318.485 123.609 316.193 127.346 312.865 130.018C309.604 132.69 304.674 134.032 298.074 134.043ZM291.614 105.254L301.914 105.236L301.904 100.336C301.893 94.9364 301.552 91.2703 300.881 89.3381C300.277 87.3391 299.009 86.3412 297.075 86.3444C295.209 86.3475 293.811 87.4165 292.882 89.5514C292.02 91.6195 291.594 95.2202 291.604 100.354L291.614 105.254Z" fill="#131313"/>
<path d="M353.916 87.257C350.988 87.072 348.767 88.5347 347.253 91.645C345.739 94.7553 344.693 99.9992 344.114 107.377L343.708 112.561C343.192 119.14 343.554 123.906 344.794 126.856C346.033 129.806 348.616 131.406 352.542 131.654C356.467 131.902 359.698 130.77 362.235 128.259C364.773 125.747 366.507 122.818 367.438 119.47L369.218 119.783C367.506 125.419 364.855 129.393 361.263 131.704C357.6 134.077 352.742 135.073 346.687 134.69C338.969 134.202 333.209 131.768 329.407 127.386C325.61 122.939 324.024 116.727 324.649 108.751C325.28 100.709 328.093 94.6756 333.089 90.6498C338.152 86.6282 344.875 84.8823 353.258 85.412C359.179 85.7862 363.613 87.2352 366.557 89.759C369.507 92.2163 370.847 95.173 370.576 98.6291C370.305 102.085 369.342 104.562 367.686 106.061C366.098 107.563 363.973 108.231 361.311 108.062C358.716 107.898 356.675 107.068 355.188 105.572C353.701 104.075 353.064 101.964 353.277 99.2392C353.371 98.0429 353.631 96.857 354.058 95.6817L357.351 95.8898C357.921 94.59 358.248 93.4084 358.331 92.345C358.581 89.1548 357.109 87.4588 353.916 87.257Z" fill="#131313"/>
<path d="M376.508 123.149L381.283 92.0134L375.825 91.3386L376.098 89.5594L381.556 90.2342L383.512 77.4833L402.669 75.2184L400.016 92.5162L412.917 94.1112L412.645 95.8904L399.743 94.2954L394.634 127.606C394.159 130.703 394.108 133.013 394.482 134.537C394.921 136.068 396.133 136.957 398.118 137.202C400.103 137.447 401.975 136.672 403.733 134.875C405.558 133.086 406.965 130.507 407.954 127.137L409.61 127.544C408.384 132.025 406.372 135.469 403.576 137.877C400.79 140.218 396.651 141.049 391.16 140.371C385.668 139.692 381.634 138.085 379.056 135.551C376.478 133.016 375.629 128.882 376.508 123.149Z" fill="#131313"/>
<path d="M438.641 91.4129C435.163 90.7928 432.863 89.4695 431.742 87.4428C430.687 85.4279 430.447 83.1186 431.023 80.5148C431.599 77.9111 432.861 75.9034 434.811 74.4917C436.826 73.0918 439.474 72.6843 442.756 73.2693C446.037 73.8543 448.359 75.08 449.72 76.9464C451.095 78.7478 451.466 81.0805 450.833 83.9447C450.214 86.7437 448.897 88.8432 446.882 90.2431C444.866 91.6431 442.12 92.033 438.641 91.4129ZM422.286 95.5001L446.405 99.7998L436.516 144.519L442.029 145.502L441.64 147.26L412.401 142.047L412.79 140.29L418.204 141.255L427.705 98.2931L421.897 97.2577L422.286 95.5001Z" fill="#131313"/>
<path d="M457.14 103.269L457.654 101.544L486.726 108.533L486.212 110.258L480.086 108.786L482.265 143.406L502.254 114.115L495.74 112.549L496.254 110.824L509.38 113.98L508.866 115.705L504.588 114.676L477.108 155.106L466.023 152.441L461.126 104.227L457.14 103.269Z" fill="#131313"/>
<path d="M519.762 167.984C511.566 165.379 506.21 161.373 503.694 155.967C501.266 150.52 501.495 144.137 504.38 136.818C507.29 129.438 511.803 124.521 517.918 122.068C524.096 119.635 530.744 119.549 537.859 121.81C552.282 126.394 556.42 135.665 550.272 149.624L523.397 141.083L521.967 144.711C519.57 150.789 518.555 155.631 518.92 159.237C519.286 162.842 521.439 165.271 525.378 166.523C532.748 168.866 539.093 166.555 544.412 159.591L546.017 160.416C543.05 164.498 539.488 167.274 535.333 168.745C531.242 170.237 526.051 169.983 519.762 167.984ZM524.226 139.252L534.042 142.372L535.839 137.814C537.82 132.79 538.847 129.278 538.921 127.278C539.083 125.235 538.243 123.921 536.4 123.336C534.621 122.77 532.896 123.338 531.224 125.04C529.64 126.701 527.906 129.918 526.023 134.694L524.226 139.252Z" fill="#131313"/>
<path d="M204.482 27.1234L204.907 28.3468L203.856 28.4955C203.491 28.5719 203.251 28.8702 203.138 29.3904L201.085 39.2528L203.598 46.4942C203.759 46.9571 204.068 47.1408 204.525 47.0453L206.146 46.6355L206.571 47.8589L197.183 49.821L196.759 48.5976L198.461 48.3128C198.895 48.2221 199.027 47.9343 198.859 47.4493L196.576 40.8692L187.39 32.6111C186.97 32.2495 186.624 32.0974 186.35 32.1547L185.379 32.4285L184.954 31.2051L194.205 29.2716L194.629 30.495L192.79 30.8084L192.756 30.8156C192.505 30.8681 192.417 31.0046 192.494 31.225C192.54 31.3573 192.651 31.4997 192.826 31.6521L199.918 38.0073L201.653 29.6652C201.684 29.5407 201.68 29.4233 201.641 29.3131C201.565 29.0926 201.412 29.0063 201.184 29.054L199.425 29.4925L199.001 28.2691L204.482 27.1234Z" fill="black"/>
<path d="M211.812 39.5324C211.134 37.1052 211.261 35.1457 212.193 33.6539C213.125 32.1622 214.881 31.2055 217.46 30.784C220.062 30.3588 222.175 30.6832 223.799 31.7572C225.423 32.8313 226.574 34.5819 227.252 37.0091C228.651 42.0208 226.783 44.9463 221.647 45.7855C219.068 46.207 216.955 45.8826 215.308 44.8123C213.661 43.742 212.495 41.9821 211.812 39.5324ZM216.666 38.8095C217.3 41.0794 217.97 42.6618 218.678 43.5567C219.402 44.4253 220.282 44.775 221.318 44.6056C222.354 44.4363 222.959 43.8439 223.133 42.8285C223.308 41.8131 223.075 40.1592 222.435 37.8668C221.782 35.5295 221.102 33.9134 220.395 33.0185C219.688 32.1236 218.816 31.7609 217.78 31.9302C216.743 32.0996 216.13 32.7051 215.939 33.7467C215.771 34.7846 216.014 36.4722 216.666 38.8095Z" fill="black"/>
<path d="M249.839 40.6502L250.088 41.8139L243.729 42.5754C243.771 42.2193 243.722 41.7104 243.58 41.0487L243.251 39.5085C242.692 41.8922 241.172 43.2325 238.693 43.5294C237.188 43.7097 236.002 43.4422 235.136 42.7268C234.265 41.9886 233.642 40.7411 233.266 38.9841L231.531 30.8727C231.438 30.4391 231.241 30.2404 230.94 30.2765L229.808 30.4823L229.566 29.3528L235.717 28.6163L237.862 38.6444C238.111 39.808 238.382 40.6298 238.675 41.1095C238.991 41.5865 239.461 41.7876 240.087 41.7127C240.643 41.6461 241.136 41.3413 241.566 40.7984C242.02 40.2526 242.32 39.4912 242.468 38.5141C242.61 37.5142 242.552 36.3511 242.292 35.025L241.164 29.7542C241.067 29.2979 240.879 29.0863 240.601 29.1196L239.26 29.3504L239.018 28.2209L245.378 27.4594L248.116 40.2598C248.204 40.6705 248.401 40.8692 248.707 40.856L249.839 40.6502Z" fill="black"/>
<path d="M261.949 25.7738C262.95 25.6945 263.808 25.9182 264.524 26.445C265.264 26.9699 265.705 27.6937 265.846 28.6162C265.952 29.3081 265.823 29.8437 265.457 30.2228C265.115 30.6001 264.653 30.8119 264.071 30.858C263.583 30.8967 263.123 30.8164 262.692 30.6172C262.281 30.393 262.04 30.0503 261.969 29.589C261.945 29.4275 261.954 29.1817 261.998 28.8514C262.004 28.4307 262.003 28.1973 261.996 28.1512C261.918 27.6438 261.658 27.4076 261.216 27.4427C260.612 27.4906 260.118 27.8799 259.736 28.6106C259.373 29.3163 259.142 30.1867 259.042 31.2218C258.941 32.2569 258.952 33.2482 259.074 34.1956L259.87 39.385C259.937 39.8232 260.122 40.0303 260.424 40.0063L262.821 39.7462L263.001 40.9224L254.139 41.6253L253.959 40.449L254.946 40.4407C255.249 40.4167 255.366 40.1857 255.299 39.7474L253.585 28.5731C253.515 28.1118 253.328 27.8932 253.026 27.9172L251.92 28.0749L251.745 26.9333L258.095 26.4297C258.069 26.5717 258.058 26.8061 258.061 27.1326C258.061 27.4362 258.083 27.7378 258.129 28.0377L258.373 29.629C258.85 27.2101 260.042 25.9251 261.949 25.7738Z" fill="black"/>
<path d="M308.959 38.5425L309.013 39.7312L301.104 39.7928L301.049 38.604L302.312 38.6641C302.612 38.5918 302.754 38.3692 302.737 37.9963L302.349 29.5352C302.294 28.3464 302.162 27.4964 301.952 26.985C301.765 26.4735 301.391 26.2199 300.831 26.2243C300.318 26.2283 299.782 26.4889 299.222 27.0063C298.685 27.5234 298.241 28.273 297.889 29.2551C297.538 30.2371 297.381 31.3926 297.418 32.7213L297.662 38.0358C297.682 38.4786 297.844 38.6989 298.147 38.6965L299.369 38.6171L299.424 39.8058L291.444 39.8679L291.389 38.6791L292.652 38.7393C292.953 38.667 293.094 38.4444 293.077 38.0714L292.689 29.6103C292.632 28.3749 292.499 27.5132 292.29 27.0252C292.081 26.5372 291.685 26.2954 291.102 26.3C290.612 26.3038 290.098 26.5526 289.56 27.0464C289.046 27.5401 288.612 28.2547 288.258 29.1901C287.903 30.1022 287.72 31.1879 287.707 32.4471L287.967 38.1112C287.989 38.5773 288.15 38.7976 288.453 38.7719L289.709 38.6922L289.764 39.881L281.854 39.9425L281.8 38.7537L282.958 38.8147C283.258 38.7424 283.399 38.5198 283.382 38.1468L282.864 26.8537C282.846 26.4574 282.684 26.2255 282.377 26.158L281.226 26.2369L281.173 25.0831L287.577 25.0333C287.477 25.3838 287.437 25.7805 287.457 26.2234L287.547 28.1813C287.987 27.082 288.648 26.2258 289.53 25.6127C290.411 24.9763 291.481 24.6532 292.741 24.6434C294.001 24.6336 294.983 24.9174 295.686 25.4948C296.413 26.0721 296.888 27.0128 297.111 28.3168C297.547 27.1242 298.217 26.2097 299.121 25.5731C300.024 24.9131 301.118 24.5782 302.401 24.5682C303.894 24.5566 304.998 24.9561 305.712 25.7666C306.448 26.5537 306.856 27.8096 306.935 29.5345L307.322 37.9606C307.342 38.4035 307.504 38.6238 307.807 38.6214L308.959 38.5425Z" fill="black"/>
<path d="M312.012 32.5707C312.09 30.0519 312.802 28.156 314.148 26.8828C315.495 25.6097 317.474 25.0294 320.084 25.1419C322.719 25.2553 324.656 26.0044 325.897 27.389C327.138 28.7736 327.72 30.7253 327.642 33.2441C327.481 38.4449 324.802 40.9334 319.603 40.7094C316.992 40.597 315.055 39.8479 313.79 38.4623C312.526 37.0767 311.933 35.1128 312.012 32.5707ZM316.905 32.8516C316.832 35.2071 317.002 36.8959 317.414 37.9178C317.85 38.9174 318.592 39.4398 319.641 39.485C320.69 39.5302 321.451 39.0726 321.924 38.1121C322.398 37.1517 322.671 35.482 322.745 33.1031C322.82 30.6776 322.651 28.9539 322.239 27.932C321.827 26.91 321.097 26.3765 320.048 26.3313C318.999 26.2861 318.226 26.7549 317.728 27.7377C317.254 28.7214 316.98 30.4261 316.905 32.8516Z" fill="black"/>
<path d="M332.051 33.5431C332.282 31.0337 333.109 29.1712 334.533 27.9557C335.958 26.7401 337.972 26.2411 340.576 26.4588C343.204 26.6783 345.096 27.5038 346.253 28.935C347.409 30.3663 347.872 32.3366 347.641 34.846C347.164 40.0274 344.333 42.4014 339.147 41.9681C336.543 41.7505 334.651 40.925 333.471 39.4918C332.291 38.0586 331.817 36.0757 332.051 33.5431ZM336.927 34.0209C336.711 36.3676 336.778 38.059 337.128 39.095C337.503 40.1097 338.213 40.6608 339.26 40.7483C340.306 40.8357 341.095 40.41 341.627 39.471C342.159 38.5321 342.533 36.8776 342.752 34.5076C342.974 32.0912 342.911 30.365 342.561 29.329C342.211 28.2929 341.513 27.7312 340.467 27.6438C339.421 27.5563 338.619 27.9927 338.062 28.9529C337.528 29.9151 337.15 31.6044 336.927 34.0209Z" fill="black"/>
<path d="M352.162 35.3722C352.56 32.8129 353.38 30.9528 354.622 29.7919C355.891 28.6109 357.556 28.1494 359.617 28.4072C360.682 28.5404 361.555 28.92 362.237 29.5459C362.945 30.1516 363.368 30.8509 363.504 31.6436L365.239 20.4725C365.311 20.0114 365.196 19.762 364.895 19.7243L363.287 19.5936L363.458 18.4869L370.057 19.3125L366.41 42.796C366.342 43.2341 366.458 43.4719 366.759 43.5096L367.916 43.5838L367.734 44.7597L361.343 43.9602C361.418 43.7815 361.47 43.6 361.499 43.4155L361.617 42.6547C361.656 42.401 361.698 42.2065 361.743 42.071C361.788 41.9356 361.814 41.8448 361.821 41.7987C361.398 42.545 360.804 43.1052 360.037 43.4795C359.275 43.8307 358.349 43.9382 357.261 43.802C355.015 43.521 353.503 42.6972 352.724 41.3304C351.945 39.9637 351.758 37.9776 352.162 35.3722ZM357.024 35.9805C356.784 37.5253 356.668 38.733 356.674 39.6035C356.704 40.4768 356.873 41.1327 357.183 41.571C357.492 42.0093 357.983 42.2705 358.654 42.3545C359.696 42.4848 360.526 42.1539 361.145 41.3616C361.791 40.5492 362.248 39.2783 362.516 37.549L362.747 36.0619C363.019 34.3095 362.964 32.9159 362.582 31.8809C362.204 30.8228 361.517 30.2315 360.521 30.1069C359.595 29.991 358.853 30.4388 358.294 31.4502C357.763 32.4414 357.339 33.9515 357.024 35.9805Z" fill="black"/>
<path d="M391.24 25.3475C392.02 25.4904 392.604 25.7986 392.992 26.2723C393.403 26.7501 393.531 27.3064 393.377 27.9412C393.217 28.5986 392.837 29.0738 392.238 29.3668C391.662 29.6639 390.984 29.741 390.204 29.5981C389.423 29.4553 388.828 29.1449 388.417 28.6671C388.029 28.1934 387.915 27.6279 388.075 26.9704C388.23 26.3357 388.595 25.8697 389.171 25.5726C389.77 25.2796 390.459 25.2046 391.24 25.3475ZM388.56 46.3833C388.449 46.8367 388.546 47.0794 388.85 47.1114L390.003 47.2514L389.721 48.4075L382.044 47.0018L382.325 45.8457L383.445 46.1217L383.514 46.1343C383.766 46.1805 383.945 45.9883 384.05 45.5575L386.726 34.5738C386.82 34.1884 386.737 33.9365 386.478 33.8181L385.326 33.6781L385.599 32.5559L391.658 33.6654L388.56 46.3833Z" fill="black"/>
<path d="M396.381 44.5697L397.564 44.7529C397.23 45.895 397.431 46.9498 398.166 47.9174C398.924 48.8899 399.987 49.5234 401.356 49.8179C402.109 49.9799 402.751 49.9396 403.283 49.697C403.844 49.4369 404.216 48.9933 404.399 48.3663C404.55 47.8512 404.497 47.4113 404.24 47.0466C404.013 46.6643 403.529 46.2865 402.79 45.9131L400.523 44.7112C399.305 44.0681 398.484 43.3084 398.062 42.4319C397.662 41.5604 397.63 40.5536 397.964 39.4115C398.37 38.0231 399.189 37.009 400.419 36.3691C401.655 35.7068 403.163 35.5672 404.942 35.9501C405.421 36.0532 405.845 36.18 406.213 36.3307C406.581 36.4813 407.027 36.6964 407.552 36.9759C408.223 37.3345 408.764 37.558 409.174 37.6464C409.539 37.7249 409.908 37.709 410.279 37.5986L408.953 41.3837L407.927 41.1628C408.176 40.3118 408.027 39.4943 407.481 38.7102C406.957 37.931 406.079 37.4088 404.848 37.1437C404.14 36.9915 403.518 37.0479 402.979 37.313C402.47 37.5605 402.141 37.9418 401.99 38.4569C401.865 38.8823 401.917 39.2862 402.144 39.6684C402.379 40.0283 402.781 40.3529 403.351 40.6422L405.535 41.7549C406.991 42.4967 407.896 43.2985 408.249 44.1602C408.626 45.0268 408.644 46.0424 408.303 47.2068C407.838 48.7968 406.927 49.9218 405.57 50.5819C404.219 51.2196 402.643 51.3446 400.841 50.9568C400.316 50.8439 399.796 50.6725 399.282 50.4427C398.783 50.2402 398.006 49.8707 396.951 49.3341C396.612 49.166 396.306 49.0525 396.032 48.9936C395.53 48.8856 395.157 48.8767 394.912 48.9668L396.381 44.5697Z" fill="black"/>
<path d="M321.759 158.586L318.143 163.628C314.909 168.138 314.909 174.207 318.143 178.717L321.759 183.759L316.717 180.143C312.208 176.909 306.138 176.909 301.629 180.143L296.587 183.759L300.202 178.717C303.437 174.207 303.437 168.138 300.202 163.628L296.587 158.586L301.629 162.202C306.138 165.436 312.208 165.436 316.717 162.202L321.759 158.586Z" fill="#262626"/>
</svg>
