<svg width="606" height="202" viewBox="0 0 606 202" fill="none" xmlns="http://www.w3.org/2000/svg">
<path d="M114.438 86.1373L164.863 73.4356L170.669 92.3916L168.923 92.8312C164.564 86.9858 160.595 83.2416 157.019 81.5988C153.427 79.8912 148.753 79.7621 143 81.2114L139.606 82.0664L147.154 112.03L150.451 111.2C153.489 110.435 155.758 108.66 157.256 105.876C158.739 103.028 159.412 99.5583 159.275 95.4678L160.73 95.1014L167.96 123.805L166.311 124.22C163.926 119.665 161.471 116.605 158.946 115.041C156.486 113.461 153.542 113.102 150.116 113.965L147.789 114.552L155.63 145.679L159.314 144.751C165.262 143.253 169.857 140.205 173.098 135.607C176.405 130.993 178.134 125.711 178.285 119.76L180.224 119.272L184.773 140.607L131.536 154.017L130.999 151.884L136.72 150.442L120.697 86.8295L114.975 88.2706L114.438 86.1373Z" fill="#131313"/>
<path d="M176.879 64.5429L201.067 60.6432L212.718 132.91L218.247 132.019L218.533 133.796L189.212 138.523L188.925 136.746L194.355 135.871L182.99 65.3809L177.166 66.32L176.879 64.5429Z" fill="#131313"/>
<path d="M244.395 127.755C235.822 128.437 229.201 126.757 224.533 122.715C219.925 118.601 217.309 112.623 216.685 104.781C216.056 96.8728 217.967 90.6349 222.419 86.0673C226.937 81.4944 232.917 78.9118 240.36 78.3194C255.446 77.1188 263.293 84.1184 263.901 99.318L235.789 101.555L236.099 105.443C236.617 111.956 237.839 116.807 239.765 119.998C241.691 123.189 244.714 124.62 248.834 124.292C256.543 123.679 261.266 119.156 263.003 110.725L264.821 110.881C263.939 115.767 261.942 119.671 258.831 122.594C255.786 125.511 250.974 127.232 244.395 127.755ZM235.73 99.5537L245.998 98.7365L245.609 93.852C245.181 88.469 244.558 84.8403 243.74 82.966C242.983 81.0199 241.641 80.1235 239.714 80.2769C237.853 80.425 236.542 81.5994 235.781 83.8C235.081 85.9289 234.934 89.552 235.342 94.6691L235.73 99.5537Z" fill="#131313"/>
<path d="M295.608 76.2713C292.675 76.2819 290.58 77.8894 289.325 81.094C288.07 84.2985 287.456 89.6008 287.483 97.0007L287.501 102.201C287.525 108.801 288.276 113.531 289.753 116.393C291.23 119.254 293.935 120.678 297.868 120.663C301.801 120.649 304.93 119.305 307.254 116.63C309.577 113.954 311.066 110.916 311.721 107.513L313.521 107.707C312.276 113.445 309.957 117.586 306.566 120.132C303.109 122.745 298.347 124.062 292.28 124.084C284.547 124.111 278.606 122.066 274.458 117.948C270.31 113.763 268.221 107.67 268.192 99.6703C268.163 91.6037 270.474 85.3953 275.125 81.0452C279.843 76.6948 286.402 74.5045 294.801 74.4742C300.735 74.4528 305.272 75.6031 308.414 77.9251C311.556 80.1804 313.132 83.0414 313.145 86.5081C313.158 89.9747 312.4 92.5108 310.872 94.1163C309.412 95.7216 307.348 96.5291 304.681 96.5387C302.081 96.5481 299.979 95.8556 298.374 94.4614C296.769 93.0672 295.961 91.0034 295.951 88.2701C295.947 87.0701 296.109 85.8695 296.438 84.6683L299.738 84.6564C300.2 83.3214 300.429 82.1206 300.425 81.0539C300.414 77.8539 298.808 76.2597 295.608 76.2713Z" fill="#131313"/>
<path d="M321.17 111.446L323.326 80.0203L317.839 79.6438L317.962 77.848L323.449 78.2245L324.333 65.3548L343.204 62.0388L342.006 79.4977L354.975 80.3876L354.852 82.1834L341.883 81.2935L339.576 114.914C339.361 118.04 339.503 120.356 340.001 121.86C340.566 123.369 341.846 124.192 343.841 124.329C345.837 124.465 347.634 123.586 349.235 121.692C350.901 119.801 352.086 117.143 352.789 113.716L354.471 114.032C353.624 118.585 351.91 122.142 349.328 124.705C346.752 127.201 342.703 128.26 337.183 127.881C331.662 127.502 327.514 126.115 324.738 123.719C321.962 121.324 320.773 117.233 321.17 111.446Z" fill="#131313"/>
<path d="M397.181 87.7144C394.737 87.3822 392.374 88.6759 390.094 91.5954C387.813 94.5149 386.377 98.1546 385.784 102.514L382.175 129.07L389.21 130.026L388.968 131.81L358.052 127.609L358.295 125.825L363.744 126.566L369.67 82.9664L364.22 82.2258L364.462 80.4422L388.343 83.6875L387.05 93.2001C388.366 89.9478 390.368 87.5959 393.055 86.1445C395.75 84.627 398.65 84.0792 401.755 84.5011C404.86 84.9231 407.249 86.156 408.922 88.2C410.671 90.1868 411.325 92.7987 410.885 96.0357C410.454 99.2065 409.395 101.552 407.709 103.072C406.022 104.592 403.659 105.146 400.62 104.733C397.648 104.329 395.569 103.037 394.385 100.858C393.268 98.6874 393.475 95.9235 395.008 92.566L398.575 93.0507C400.684 89.9062 400.22 88.1274 397.181 87.7144Z" fill="#131313"/>
<path d="M430.678 84.2592C427.211 83.5772 424.9 82.2051 423.742 80.143C422.651 78.0938 422.362 75.7609 422.877 73.1444C423.392 70.5279 424.601 68.5236 426.506 67.1317C428.476 65.7527 431.096 65.3849 434.367 66.0283C437.637 66.6717 439.969 67.9457 441.361 69.8502C442.765 71.6892 443.185 74.0479 442.618 76.926C442.065 79.7388 440.803 81.8347 438.834 83.2137C436.864 84.5927 434.145 84.9413 430.678 84.2592ZM414.53 88.1148L438.57 92.8439L429.729 137.783L435.224 138.864L434.876 140.63L405.735 134.897L406.082 133.131L411.479 134.192L419.972 91.0198L414.183 89.881L414.53 88.1148Z" fill="#131313"/>
<path d="M478.093 103.32C475.259 102.567 472.818 103.573 470.772 106.34C468.725 109.107 466.751 114.067 464.849 121.218L463.513 126.244C461.817 132.622 461.31 137.385 461.99 140.532C462.671 143.679 464.912 145.758 468.713 146.769C472.515 147.78 475.885 147.296 478.826 145.319C481.766 143.341 483.995 140.795 485.513 137.681L487.201 138.337C484.504 143.552 481.187 146.947 477.25 148.521C473.231 150.143 468.291 150.175 462.428 148.616C454.954 146.629 449.751 143.107 446.819 138.05C443.903 132.929 443.474 126.503 445.529 118.771C447.602 110.976 451.451 105.583 457.074 102.595C462.762 99.6232 469.665 99.2167 477.783 101.375C483.517 102.9 487.598 105.192 490.027 108.253C492.472 111.248 493.25 114.421 492.359 117.771C491.468 121.122 490.076 123.373 488.183 124.525C486.355 125.695 484.152 125.937 481.575 125.251C479.062 124.583 477.212 123.367 476.026 121.603C474.839 119.839 474.597 117.636 475.3 114.995C475.608 113.835 476.077 112.718 476.708 111.644L479.897 112.492C480.691 111.323 481.225 110.224 481.499 109.193C482.321 106.1 481.186 104.143 478.093 103.32Z" fill="#131313"/>
<path d="M0 201H606" stroke="black"/>
<path d="M204.482 27.1234L204.907 28.3468L203.856 28.4955C203.491 28.5719 203.251 28.8702 203.138 29.3904L201.085 39.2528L203.598 46.4942C203.759 46.9571 204.067 47.1408 204.524 47.0453L206.146 46.6355L206.57 47.8589L197.183 49.821L196.759 48.5976L198.46 48.3128C198.894 48.2221 199.027 47.9343 198.859 47.4493L196.575 40.8692L187.39 32.6111C186.97 32.2495 186.623 32.0974 186.349 32.1547L185.379 32.4285L184.954 31.2051L194.204 29.2716L194.629 30.495L192.79 30.8084L192.756 30.8156C192.505 30.8681 192.417 31.0046 192.494 31.225C192.54 31.3573 192.65 31.4997 192.826 31.6521L199.918 38.0073L201.653 29.6652C201.683 29.5407 201.679 29.4233 201.641 29.3131C201.565 29.0926 201.412 29.0063 201.184 29.054L199.425 29.4925L199.001 28.2691L204.482 27.1234Z" fill="black"/>
<path d="M211.811 39.5324C211.134 37.1052 211.261 35.1457 212.193 33.6539C213.125 32.1622 214.88 31.2055 217.46 30.784C220.062 30.3588 222.175 30.6832 223.799 31.7572C225.423 32.8313 226.574 34.5819 227.251 37.0091C228.65 42.0208 226.782 44.9463 221.647 45.7855C219.068 46.207 216.955 45.8826 215.308 44.8123C213.661 43.742 212.495 41.9821 211.811 39.5324ZM216.666 38.8095C217.3 41.0794 217.97 42.6618 218.677 43.5567C219.401 44.4253 220.282 44.775 221.318 44.6056C222.354 44.4363 222.959 43.8439 223.133 42.8285C223.307 41.8131 223.074 40.1592 222.434 37.8668C221.782 35.5295 221.102 33.9134 220.395 33.0185C219.687 32.1236 218.816 31.7609 217.779 31.9302C216.743 32.0996 216.13 32.7051 215.939 33.7467C215.771 34.7846 216.013 36.4722 216.666 38.8095Z" fill="black"/>
<path d="M249.839 40.6502L250.088 41.8139L243.728 42.5754C243.771 42.2193 243.722 41.7104 243.58 41.0487L243.251 39.5085C242.691 41.8922 241.172 43.2325 238.693 43.5294C237.187 43.7097 236.001 43.4422 235.136 42.7268C234.265 41.9886 233.641 40.7411 233.266 38.9841L231.53 30.8727C231.438 30.4391 231.241 30.2404 230.939 30.2765L229.807 30.4823L229.566 29.3528L235.717 28.6163L237.862 38.6444C238.111 39.808 238.382 40.6298 238.675 41.1095C238.99 41.5865 239.461 41.7876 240.087 41.7127C240.643 41.6461 241.136 41.3413 241.566 40.7984C242.02 40.2526 242.32 39.4912 242.468 38.5141C242.61 37.5142 242.551 36.3511 242.291 35.025L241.164 29.7542C241.066 29.2979 240.878 29.0863 240.6 29.1196L239.26 29.3504L239.018 28.2209L245.378 27.4594L248.116 40.2598C248.204 40.6705 248.401 40.8692 248.707 40.856L249.839 40.6502Z" fill="black"/>
<path d="M261.949 25.7738C262.949 25.6945 263.808 25.9182 264.524 26.445C265.264 26.9699 265.704 27.6937 265.846 28.6162C265.952 29.3081 265.822 29.8437 265.457 30.2228C265.114 30.6001 264.652 30.8119 264.071 30.858C263.582 30.8967 263.123 30.8164 262.692 30.6172C262.281 30.393 262.04 30.0503 261.969 29.589C261.944 29.4275 261.954 29.1817 261.997 28.8514C262.003 28.4307 262.003 28.1973 261.996 28.1512C261.918 27.6438 261.658 27.4076 261.216 27.4427C260.611 27.4906 260.118 27.8799 259.736 28.6106C259.373 29.3163 259.142 30.1867 259.041 31.2218C258.941 32.2569 258.952 33.2482 259.074 34.1956L259.87 39.385C259.937 39.8232 260.122 40.0303 260.424 40.0063L262.821 39.7462L263.001 40.9224L254.139 41.6253L253.959 40.449L254.946 40.4407C255.248 40.4167 255.366 40.1857 255.299 39.7474L253.585 28.5731C253.514 28.1118 253.328 27.8932 253.025 27.9172L251.919 28.0749L251.744 26.9333L258.094 26.4297C258.069 26.5717 258.058 26.8061 258.061 27.1326C258.06 27.4362 258.083 27.7378 258.129 28.0377L258.373 29.629C258.85 27.2101 260.042 25.9251 261.949 25.7738Z" fill="black"/>
<path d="M308.959 38.5425L309.013 39.7312L301.103 39.7928L301.049 38.604L302.312 38.6641C302.612 38.5918 302.754 38.3692 302.736 37.9963L302.348 29.5352C302.294 28.3464 302.162 27.4964 301.951 26.985C301.765 26.4735 301.391 26.2199 300.831 26.2243C300.318 26.2283 299.781 26.4889 299.221 27.0063C298.685 27.5234 298.241 28.273 297.889 29.2551C297.537 30.2371 297.38 31.3926 297.418 32.7213L297.662 38.0358C297.682 38.4786 297.844 38.6989 298.147 38.6965L299.369 38.6171L299.423 39.8058L291.444 39.8679L291.389 38.6791L292.652 38.7393C292.952 38.667 293.094 38.4444 293.077 38.0714L292.689 29.6103C292.632 28.3749 292.499 27.5132 292.29 27.0252C292.081 26.5372 291.685 26.2954 291.101 26.3C290.611 26.3038 290.098 26.5526 289.56 27.0464C289.046 27.5401 288.612 28.2547 288.258 29.1901C287.903 30.1022 287.719 31.1879 287.707 32.4471L287.967 38.1112C287.988 38.5773 288.15 38.7976 288.452 38.7719L289.709 38.6922L289.764 39.881L281.854 39.9425L281.799 38.7537L282.958 38.8147C283.258 38.7424 283.399 38.5198 283.382 38.1468L282.864 26.8537C282.846 26.4574 282.684 26.2255 282.377 26.158L281.225 26.2369L281.172 25.0831L287.577 25.0333C287.477 25.3838 287.436 25.7805 287.457 26.2234L287.547 28.1813C287.986 27.082 288.647 26.2258 289.529 25.6127C290.411 24.9763 291.481 24.6532 292.741 24.6434C294.001 24.6336 294.983 24.9174 295.686 25.4948C296.413 26.0721 296.888 27.0128 297.111 28.3168C297.546 27.1242 298.216 26.2097 299.121 25.5731C300.024 24.9131 301.117 24.5782 302.401 24.5682C303.894 24.5566 304.998 24.9561 305.712 25.7666C306.448 26.5537 306.856 27.8096 306.935 29.5345L307.321 37.9606C307.342 38.4035 307.503 38.6238 307.807 38.6214L308.959 38.5425Z" fill="black"/>
<path d="M312.011 32.5707C312.089 30.0519 312.802 28.156 314.148 26.8828C315.495 25.6097 317.473 25.0294 320.084 25.1419C322.718 25.2553 324.656 26.0044 325.897 27.389C327.138 28.7736 327.72 30.7253 327.642 33.2441C327.481 38.4449 324.802 40.9334 319.603 40.7094C316.992 40.597 315.055 39.8479 313.79 38.4623C312.526 37.0767 311.933 35.1128 312.011 32.5707ZM316.905 32.8516C316.832 35.2071 317.002 36.8959 317.413 37.9178C317.849 38.9174 318.592 39.4398 319.641 39.485C320.69 39.5302 321.451 39.0726 321.924 38.1121C322.397 37.1517 322.671 35.482 322.744 33.1031C322.819 30.6776 322.651 28.9539 322.239 27.932C321.827 26.91 321.097 26.3765 320.047 26.3313C318.998 26.2861 318.225 26.7549 317.728 27.7377C317.254 28.7214 316.98 30.4261 316.905 32.8516Z" fill="black"/>
<path d="M332.05 33.5431C332.281 31.0337 333.109 29.1712 334.533 27.9557C335.957 26.7401 337.972 26.2411 340.576 26.4588C343.203 26.6783 345.096 27.5038 346.252 28.935C347.409 30.3663 347.872 32.3366 347.641 34.846C347.164 40.0274 344.332 42.4014 339.147 41.9681C336.543 41.7505 334.651 40.925 333.471 39.4918C332.29 38.0586 331.817 36.0757 332.05 33.5431ZM336.927 34.0209C336.711 36.3676 336.778 38.059 337.127 39.095C337.502 40.1097 338.213 40.6608 339.26 40.7483C340.306 40.8357 341.095 40.41 341.627 39.471C342.158 38.5321 342.533 36.8776 342.752 34.5076C342.974 32.0912 342.911 30.365 342.561 29.329C342.211 28.2929 341.513 27.7312 340.467 27.6438C339.42 27.5563 338.619 27.9927 338.061 28.9529C337.528 29.9151 337.149 31.6044 336.927 34.0209Z" fill="black"/>
<path d="M352.162 35.3722C352.559 32.8129 353.379 30.9528 354.622 29.7919C355.891 28.6109 357.556 28.1494 359.616 28.4072C360.681 28.5404 361.555 28.92 362.236 29.5459C362.945 30.1516 363.367 30.8509 363.504 31.6436L365.239 20.4725C365.31 20.0114 365.196 19.762 364.895 19.7243L363.286 19.5936L363.458 18.4869L370.057 19.3125L366.41 42.796C366.342 43.2341 366.458 43.4719 366.759 43.5096L367.916 43.5838L367.733 44.7597L361.343 43.9602C361.418 43.7815 361.47 43.6 361.499 43.4155L361.617 42.6547C361.656 42.401 361.698 42.2065 361.743 42.071C361.787 41.9356 361.813 41.8448 361.821 41.7987C361.398 42.545 360.803 43.1052 360.037 43.4795C359.274 43.8307 358.349 43.9382 357.261 43.802C355.015 43.521 353.503 42.6972 352.724 41.3304C351.945 39.9637 351.757 37.9776 352.162 35.3722ZM357.024 35.9805C356.784 37.5253 356.667 38.733 356.674 39.6035C356.703 40.4768 356.873 41.1327 357.183 41.571C357.492 42.0093 357.983 42.2705 358.654 42.3545C359.696 42.4848 360.526 42.1539 361.145 41.3616C361.79 40.5492 362.247 39.2783 362.516 37.549L362.747 36.0619C363.019 34.3095 362.964 32.9159 362.582 31.8809C362.203 30.8228 361.516 30.2315 360.521 30.1069C359.595 29.991 358.852 30.4388 358.294 31.4502C357.762 32.4414 357.339 33.9515 357.024 35.9805Z" fill="black"/>
<path d="M391.239 25.3475C392.02 25.4904 392.604 25.7986 392.992 26.2723C393.403 26.7501 393.531 27.3064 393.376 27.9412C393.216 28.5986 392.837 29.0738 392.238 29.3668C391.662 29.6639 390.984 29.741 390.204 29.5981C389.423 29.4553 388.828 29.1449 388.416 28.6671C388.028 28.1934 387.914 27.6279 388.075 26.9704C388.229 26.3357 388.595 25.8697 389.17 25.5726C389.769 25.2796 390.459 25.2046 391.239 25.3475ZM388.56 46.3833C388.449 46.8367 388.546 47.0794 388.85 47.1114L390.002 47.2514L389.721 48.4075L382.043 47.0018L382.325 45.8457L383.444 46.1217L383.513 46.1343C383.766 46.1805 383.945 45.9883 384.049 45.5575L386.726 34.5738C386.819 34.1884 386.737 33.9365 386.478 33.8181L385.325 33.6781L385.599 32.5559L391.658 33.6654L388.56 46.3833Z" fill="black"/>
<path d="M396.381 44.5697L397.564 44.7529C397.23 45.895 397.43 46.9498 398.166 47.9174C398.924 48.8899 399.987 49.5234 401.356 49.8179C402.108 49.9799 402.751 49.9396 403.282 49.697C403.843 49.4369 404.216 48.9933 404.399 48.3663C404.55 47.8512 404.497 47.4113 404.24 47.0466C404.012 46.6643 403.529 46.2865 402.789 45.9131L400.523 44.7112C399.304 44.0681 398.484 43.3084 398.062 42.4319C397.662 41.5604 397.63 40.5536 397.964 39.4115C398.37 38.0231 399.188 37.009 400.418 36.3691C401.655 35.7068 403.163 35.5672 404.942 35.9501C405.421 36.0532 405.845 36.18 406.213 36.3307C406.581 36.4813 407.027 36.6964 407.552 36.9759C408.223 37.3345 408.763 37.558 409.174 37.6464C409.539 37.7249 409.907 37.709 410.279 37.5986L408.953 41.3837L407.926 41.1628C408.175 40.3118 408.027 39.4943 407.48 38.7102C406.957 37.931 406.079 37.4088 404.847 37.1437C404.14 36.9915 403.517 37.0479 402.979 37.313C402.47 37.5605 402.14 37.9418 401.99 38.4569C401.865 38.8823 401.917 39.2862 402.144 39.6684C402.378 40.0283 402.78 40.3529 403.35 40.6422L405.534 41.7549C406.99 42.4967 407.895 43.2985 408.249 44.1602C408.626 45.0268 408.644 46.0424 408.303 47.2068C407.838 48.7968 406.926 49.9218 405.569 50.5819C404.219 51.2196 402.642 51.3446 400.84 50.9568C400.316 50.8439 399.796 50.6725 399.281 50.4427C398.783 50.2402 398.006 49.8707 396.951 49.3341C396.612 49.166 396.306 49.0525 396.032 48.9936C395.53 48.8856 395.157 48.8767 394.912 48.9668L396.381 44.5697Z" fill="black"/>
<path d="M320.759 151.586L317.143 156.628C313.909 161.138 313.909 167.207 317.143 171.717L320.759 176.759L315.717 173.143C311.207 169.909 305.138 169.909 300.628 173.143L295.586 176.759L299.202 171.717C302.436 167.207 302.436 161.138 299.202 156.628L295.586 151.586L300.628 155.202C305.138 158.436 311.207 158.436 315.717 155.202L320.759 151.586Z" fill="#262626"/>
</svg>
