<svg width="604" height="201" viewBox="0 0 604 201" fill="none" xmlns="http://www.w3.org/2000/svg">
<path d="M151.963 77.0228L203.07 67.4227L207.708 86.6977L205.939 87.03C201.944 80.9294 198.212 76.95 194.742 75.0919C191.261 73.1682 186.604 72.7541 180.773 73.8495L177.333 74.4957L183.038 104.865L186.379 104.237C189.459 103.658 191.831 102.026 193.497 99.3385C195.151 96.5859 196.034 93.164 196.148 89.0728L197.622 88.7958L203.087 117.887L201.416 118.201C199.313 113.508 197.05 110.305 194.625 108.589C192.265 106.862 189.349 106.324 185.876 106.977L183.518 107.42L189.444 138.968L193.179 138.267C199.207 137.134 203.979 134.372 207.495 129.981C211.077 125.577 213.125 120.41 213.639 114.48L215.605 114.111L218.843 135.684L164.887 145.82L164.481 143.657L170.279 142.568L158.168 78.0957L152.37 79.185L151.963 77.0228Z" fill="#131313"/>
<path d="M216.812 61.158L241.177 58.5842L248.867 131.379L254.436 130.791L254.625 132.581L225.089 135.701L224.9 133.911L230.37 133.333L222.869 62.3282L217.001 62.948L216.812 61.158Z" fill="#131313"/>
<path d="M280.251 107.039L283.15 106.953L282.923 99.2565C282.737 92.9259 282.246 88.7052 281.45 86.5944C280.719 84.415 279.354 83.3547 277.355 83.4135C276.155 83.4489 275.065 83.8144 274.085 84.5102C273.17 85.1374 272.729 86.0175 272.763 87.1503C272.794 88.2165 273.026 89.3102 273.459 90.4312L275.958 90.3576C276.533 91.7413 276.849 93.4328 276.908 95.4319C276.965 97.3644 276.182 99.0882 274.559 100.603C272.935 102.052 270.856 102.813 268.324 102.888C262.593 103.057 259.646 100.375 259.483 94.8445C259.242 86.648 266.085 82.3448 280.012 81.9347C287.942 81.7012 293.447 82.9064 296.526 85.5502C299.67 88.1255 301.348 93.0115 301.559 100.208L302.157 120.5C302.259 123.965 303.276 125.669 305.209 125.612C307.474 125.545 308.706 122.074 308.904 115.199L310.406 115.255C310.312 121.127 309.331 125.191 307.464 127.446C305.596 129.702 302.463 130.895 298.065 131.025C290.068 131.26 285.398 128.93 284.053 124.034C283.261 126.592 282.017 128.496 280.32 129.746C278.622 130.997 276.108 131.671 272.776 131.769C262.913 132.06 257.864 128.173 257.626 120.11C257.487 115.379 259.258 112.092 262.938 110.249C266.684 108.338 272.455 107.268 280.251 107.039ZM276.615 119.451C276.717 122.916 276.949 125.144 277.312 126.133C277.741 127.121 278.456 127.6 279.455 127.571C280.521 127.539 281.463 126.678 282.28 124.987C283.162 123.227 283.559 120.847 283.471 117.848L283.197 108.552L282.497 108.573C278.366 108.695 276.389 111.788 276.568 117.852L276.615 119.451Z" fill="#131313"/>
<path d="M314.486 116.011L315.83 84.5394L310.335 84.3047L310.412 82.5063L315.907 82.741L316.457 69.8527L335.237 66.0505L334.49 83.5346L347.478 84.0892L347.401 85.8876L334.413 85.3329L332.975 119.002C332.842 122.133 333.043 124.443 333.58 125.934C334.184 127.428 335.484 128.218 337.483 128.303C339.481 128.388 341.255 127.463 342.806 125.528C344.423 123.595 345.539 120.907 346.153 117.463L347.843 117.735C347.114 122.308 345.492 125.909 342.978 128.538C340.466 131.1 336.446 132.262 330.918 132.026C325.389 131.79 321.207 130.511 318.37 128.187C315.533 125.864 314.239 121.805 314.486 116.011Z" fill="#131313"/>
<path d="M374 136.181C365.451 135.244 359.263 132.352 355.435 127.506C351.681 122.6 350.233 116.238 351.09 108.418C351.955 100.532 355.002 94.7632 360.232 91.1116C365.527 87.4672 371.886 86.0521 379.308 86.8661C394.352 88.5161 400.746 96.863 398.493 111.907L370.461 108.832L370.036 112.709C369.323 119.204 369.614 124.198 370.907 127.694C372.2 131.189 374.901 133.162 379.01 133.612C386.697 134.455 392.184 130.899 395.471 122.943L397.228 123.438C395.445 128.071 392.752 131.531 389.148 133.819C385.61 136.113 380.561 136.901 374 136.181ZM370.778 106.855L381.017 107.978L381.551 103.107C382.14 97.7397 382.208 94.0585 381.756 92.064C381.378 90.0105 380.228 88.8784 378.306 88.6676C376.45 88.4641 374.943 89.3717 373.782 91.3906C372.695 93.3505 371.872 96.8817 371.312 101.984L370.778 106.855Z" fill="#131313"/>
<path d="M422.372 120.285C421.198 127.186 420.778 131.848 421.109 134.271C421.452 136.629 422.577 137.97 424.483 138.294C426.455 138.629 428.276 138.06 429.947 136.585C431.683 135.122 432.836 132.715 433.406 129.363L437.06 107.871C437.541 105.045 437.39 102.551 436.608 100.39C435.826 98.2282 434.35 96.9629 432.181 96.5942C430.013 96.2254 428.288 97.4199 427.008 100.178C425.727 102.935 424.472 107.929 423.243 115.159L422.372 120.285ZM432.408 142.989L432.497 135.903C429.368 140.781 424.386 142.639 417.551 141.477C411.899 140.516 407.842 137.73 405.38 133.118C402.984 128.518 402.473 122.176 403.848 114.092C406.63 97.7273 414.528 90.651 427.541 92.8636C433.325 93.8469 436.863 96.1053 438.156 99.6386L443.1 70.556L437.087 69.5335L437.388 67.759L462.035 71.9495L449.765 144.114L454.596 144.935L454.294 146.71L432.408 142.989Z" fill="#131313"/>
<path d="M0 200H604" stroke="black"/>
<path d="M212.169 26.9631L212.603 28.1833L211.553 28.3398C211.189 28.4189 210.951 28.719 210.842 29.2401L208.863 39.1175L211.43 46.3399C211.594 46.8016 211.904 46.9831 212.36 46.8842L213.979 46.4622L214.412 47.6824L205.04 49.7146L204.606 48.4944L206.306 48.1969C206.739 48.103 206.87 47.8141 206.698 47.3305L204.365 40.7676L195.118 32.5783C194.696 32.2199 194.348 32.0704 194.075 32.1297L193.106 32.4108L192.672 31.1905L201.908 29.1881L202.341 30.4083L200.505 30.7354L200.471 30.7428C200.22 30.7972 200.134 30.9343 200.212 31.1542C200.259 31.2861 200.37 31.4276 200.547 31.5788L207.687 37.8808L209.359 29.526C209.389 29.4012 209.384 29.2839 209.345 29.174C209.267 28.9541 209.113 28.8689 208.885 28.9183L207.13 29.37L206.697 28.1497L212.169 26.9631Z" fill="black"/>
<path d="M219.591 39.3167C218.895 36.8946 219.008 34.9342 219.929 33.4355C220.849 31.9369 222.598 30.9671 225.174 30.5264C227.773 30.0817 229.888 30.3903 231.52 31.4522C233.152 32.5141 234.316 34.2561 235.012 36.6781C236.448 41.6793 234.602 44.6186 229.473 45.4962C226.897 45.9369 224.782 45.6283 223.127 44.5704C221.472 43.5124 220.293 41.7612 219.591 39.3167ZM224.44 38.5576C225.091 40.8227 225.773 42.4 226.487 43.2896C227.217 44.1528 228.1 44.4959 229.135 44.3188C230.17 44.1417 230.771 43.5448 230.937 42.5281C231.104 41.5114 230.858 39.8593 230.201 37.5718C229.531 35.2394 228.84 33.6285 228.126 32.7389C227.412 31.8493 226.537 31.4931 225.502 31.6702C224.467 31.8472 223.858 32.4573 223.675 33.5004C223.515 34.5395 223.77 36.2252 224.44 38.5576Z" fill="black"/>
<path d="M257.626 40.1506L257.884 41.3124L251.53 42.1214C251.57 41.7649 251.517 41.2564 251.37 40.5958L251.029 39.0581C250.488 41.446 248.979 42.7976 246.502 43.1129C244.997 43.3045 243.81 43.0459 242.938 42.337C242.062 41.6053 241.43 40.3624 241.041 38.6084L239.245 30.5101C239.149 30.0773 238.95 29.88 238.649 29.9184L237.519 30.1326L237.269 29.005L243.414 28.2225L245.634 38.2343C245.892 39.3961 246.169 40.2157 246.465 40.6933C246.785 41.168 247.257 41.3655 247.882 41.2859C248.437 41.2152 248.928 40.9067 249.355 40.3606C249.804 39.8114 250.099 39.0478 250.239 38.0696C250.374 37.0686 250.306 35.9061 250.037 34.5819L248.87 29.3197C248.769 28.8641 248.579 28.654 248.301 28.6894L246.963 28.9301L246.713 27.8025L253.066 26.9935L255.9 39.7731C255.991 40.1831 256.19 40.3803 256.495 40.3648L257.626 40.1506Z" fill="black"/>
<path d="M269.625 25.1842C270.624 25.0974 271.484 25.3147 272.204 25.8361C272.948 26.3555 273.394 27.0759 273.542 27.9974C273.654 28.6885 273.528 29.225 273.165 29.6069C272.826 29.9867 272.365 30.2019 271.784 30.2523C271.296 30.2947 270.836 30.2179 270.404 30.0218C269.991 29.8007 269.747 29.4598 269.673 28.9991C269.647 28.8378 269.655 28.5919 269.696 28.2613C269.699 27.8406 269.697 27.6072 269.689 27.5611C269.607 27.0543 269.346 26.8201 268.904 26.8585C268.3 26.9109 267.809 27.3039 267.432 28.0374C267.075 28.7458 266.85 29.6179 266.758 30.6538C266.665 31.6896 266.683 32.6807 266.812 33.6272L267.647 38.8105C267.717 39.2482 267.904 39.4539 268.206 39.4277L270.601 39.1496L270.79 40.3245L261.933 41.0935L261.744 39.9187L262.731 39.903C263.034 39.8768 263.149 39.6448 263.079 39.2071L261.282 28.0459C261.207 27.5851 261.019 27.3679 260.717 27.3941L259.612 27.5601L259.429 26.4198L265.775 25.8688C265.751 26.011 265.741 26.2455 265.747 26.572C265.748 26.8755 265.773 27.177 265.822 27.4765L266.078 29.066C266.536 26.6436 267.718 25.3497 269.625 25.1842Z" fill="black"/>
<path d="M316.728 37.6011L316.791 38.7895L308.882 38.9101L308.819 37.7218L310.083 37.7724C310.382 37.6979 310.522 37.4743 310.502 37.1015L310.051 28.6435C309.987 27.4552 309.849 26.6061 309.635 26.0964C309.444 25.5863 309.069 25.3355 308.509 25.344C307.996 25.3518 307.461 25.6165 306.905 26.138C306.373 26.6592 305.934 27.4121 305.59 28.3967C305.245 29.3814 305.097 30.5379 305.144 31.8664L305.428 37.1788C305.451 37.6215 305.615 37.8406 305.918 37.836L307.139 37.7474L307.203 38.9357L299.224 39.0574L299.16 37.8691L300.424 37.9198C300.723 37.8452 300.863 37.6216 300.843 37.2488L300.392 28.7908C300.326 27.5559 300.187 26.6952 299.974 26.2087C299.761 25.7223 299.363 25.4835 298.78 25.4924C298.29 25.4999 297.778 25.7525 297.244 26.2504C296.734 26.7478 296.305 27.4656 295.958 28.4037C295.61 29.3184 295.435 30.4054 295.432 31.6647L295.734 37.3267C295.759 37.7927 295.922 38.0117 296.224 37.9838L297.48 37.8947L297.544 39.083L289.635 39.2036L289.571 38.0153L290.73 38.0676C291.029 37.9931 291.169 37.7694 291.149 37.3966L290.547 26.1076C290.526 25.7115 290.362 25.4809 290.055 25.4156L288.904 25.5031L288.842 24.3497L295.246 24.2521C295.148 24.6033 295.111 25.0003 295.135 25.443L295.239 27.4003C295.671 26.2977 296.325 25.4365 297.203 24.8169C298.079 24.1739 299.147 23.8428 300.407 23.8236C301.667 23.8044 302.651 24.0808 303.358 24.653C304.089 25.2249 304.571 26.1619 304.804 27.4643C305.231 26.2685 305.894 25.3489 306.794 24.7056C307.692 24.0389 308.783 23.6958 310.066 23.6763C311.559 23.6535 312.666 24.0447 313.386 24.8499C314.128 25.6314 314.545 26.8843 314.637 28.6085L315.087 37.0315C315.11 37.4742 315.274 37.6933 315.577 37.6887L316.728 37.6011Z" fill="black"/>
<path d="M319.736 31.6069C319.795 29.0876 320.493 27.1864 321.83 25.9032C323.167 24.6201 325.142 24.025 327.753 24.1179C330.388 24.2117 332.332 24.9463 333.583 26.3216C334.834 27.6968 335.43 29.6441 335.371 32.1634C335.25 37.3654 332.589 39.8738 327.389 39.6887C324.777 39.5957 322.834 38.8611 321.559 37.485C320.284 36.1089 319.677 34.1495 319.736 31.6069ZM324.632 31.8512C324.576 34.2072 324.759 35.8946 325.178 36.9135C325.621 37.9098 326.368 38.4266 327.417 38.464C328.467 38.5013 329.224 38.038 329.69 37.0741C330.156 36.1101 330.417 34.4385 330.473 32.0591C330.53 29.6331 330.348 27.9107 329.929 26.8919C329.509 25.873 328.775 25.345 327.725 25.3076C326.676 25.2702 325.907 25.7448 325.417 26.7313C324.95 27.7185 324.688 29.4252 324.632 31.8512Z" fill="black"/>
<path d="M339.782 32.4298C339.994 29.9188 340.808 28.0502 342.223 26.824C343.638 25.5978 345.648 25.0838 348.254 25.282C350.883 25.4819 352.782 26.2932 353.949 27.7158C355.117 29.1384 355.594 31.1052 355.382 33.6162C354.943 38.801 352.13 41.1962 346.941 40.8016C344.336 40.6034 342.437 39.7921 341.247 38.3678C340.056 36.9434 339.568 34.9641 339.782 32.4298ZM344.662 32.8712C344.463 35.2194 344.543 36.9103 344.9 37.9437C345.283 38.9556 345.998 39.5013 347.045 39.5809C348.092 39.6606 348.878 39.2289 349.402 38.286C349.927 37.3431 350.289 35.6859 350.49 33.3144C350.695 30.8964 350.618 29.1707 350.261 28.1373C349.903 27.1039 349.201 26.5474 348.154 26.4678C347.107 26.3881 346.308 26.8305 345.759 27.7949C345.232 28.761 344.866 30.4531 344.662 32.8712Z" fill="black"/>
<path d="M359.907 34.1082C360.285 31.546 361.091 29.6798 362.325 28.5097C363.585 27.3193 365.246 26.8453 367.309 27.0877C368.375 27.213 369.251 27.586 369.937 28.2068C370.65 28.8072 371.078 29.5033 371.22 30.295L372.872 19.1113C372.94 18.6496 372.823 18.4011 372.522 18.3657L370.913 18.247L371.076 17.139L377.681 17.9152L374.21 41.4253C374.145 41.8639 374.263 42.1009 374.564 42.1363L375.722 42.2019L375.548 43.3791L369.152 42.6274C369.225 42.4482 369.276 42.2662 369.303 42.0816L369.416 41.3198C369.453 41.0659 369.494 40.8711 369.537 40.7353C369.581 40.5995 369.606 40.5085 369.613 40.4624C369.196 41.2118 368.606 41.7765 367.842 42.1564C367.082 42.5133 366.158 42.6277 365.068 42.4997C362.821 42.2355 361.302 41.423 360.513 40.0621C359.723 38.7012 359.521 36.7166 359.907 34.1082ZM364.773 34.6802C364.545 36.2267 364.437 37.4352 364.45 38.3056C364.486 39.1788 364.661 39.8333 364.973 40.2693C365.286 40.7053 365.779 40.9628 366.451 41.0418C367.494 41.1644 368.321 40.8272 368.934 40.0303C369.573 39.2131 370.021 37.9389 370.277 36.2076L370.496 34.7188C370.755 32.9645 370.69 31.5713 370.3 30.5391C369.914 29.4839 369.222 28.8977 368.226 28.7806C367.299 28.6717 366.56 29.125 366.009 30.1405C365.485 31.1356 365.073 32.6489 364.773 34.6802Z" fill="black"/>
<path d="M398.908 23.7921C399.689 23.9291 400.276 24.233 400.667 24.7038C401.082 25.1785 401.214 25.7339 401.065 26.3698C400.909 27.0284 400.533 27.5064 399.937 27.8038C399.363 28.1052 398.686 28.1874 397.904 28.0504C397.123 27.9133 396.525 27.6074 396.11 27.1327C395.718 26.6619 395.6 26.0972 395.756 25.4386C395.905 24.8027 396.267 24.3341 396.841 24.0326C397.438 23.7352 398.127 23.655 398.908 23.7921ZM396.385 44.8473C396.278 45.3016 396.377 45.5435 396.681 45.5732L397.835 45.7046L397.562 46.8629L389.874 45.5145L390.147 44.3563L391.269 44.6239L391.338 44.636C391.59 44.6804 391.768 44.4868 391.869 44.0553L394.463 33.0519C394.554 32.6658 394.47 32.4145 394.21 32.298L393.057 32.1666L393.322 31.0425L399.389 32.1066L396.385 44.8473Z" fill="black"/>
<path d="M404.193 42.9752L405.378 43.1496C405.052 44.2941 405.26 45.3474 406.003 46.3095C406.768 47.2763 407.836 47.9018 409.207 48.1861C409.961 48.3425 410.603 48.2974 411.133 48.0508C411.692 47.7865 412.061 47.3401 412.24 46.7118C412.386 46.1956 412.33 45.7561 412.07 45.3933C411.84 45.0128 411.354 44.6386 410.612 44.2708L408.336 43.0857C407.113 42.4518 406.287 41.6982 405.858 40.825C405.452 39.9564 405.412 38.9499 405.737 37.8054C406.133 36.414 406.944 35.3937 408.169 34.7447C409.401 34.0732 410.908 33.9223 412.69 34.2919C413.169 34.3914 413.594 34.5151 413.963 34.663C414.332 34.8109 414.78 35.0226 415.307 35.2981C415.98 35.6518 416.523 35.8712 416.934 35.9565C417.3 36.0323 417.668 36.0136 418.039 35.9004L416.741 39.6954L415.713 39.4821C415.955 38.6293 415.801 37.8129 415.248 37.0329C414.719 36.2576 413.837 35.7421 412.604 35.4862C411.895 35.3393 411.273 35.4004 410.737 35.6694C410.23 35.9207 409.903 36.3045 409.756 36.8207C409.635 37.2471 409.689 37.6505 409.92 38.031C410.156 38.3891 410.561 38.7107 411.133 38.9957L413.325 40.0921C414.787 40.823 415.698 41.618 416.058 42.4771C416.441 43.3408 416.467 44.3562 416.135 45.5232C415.681 47.1166 414.778 48.2484 413.426 48.9186C412.08 49.5664 410.505 49.7031 408.7 49.3288C408.175 49.2198 407.654 49.0523 407.137 48.8264C406.637 48.6276 405.858 48.2639 404.798 47.7353C404.458 47.5697 404.151 47.4584 403.877 47.4016C403.374 47.2973 403.001 47.2912 402.757 47.3832L404.193 42.9752Z" fill="black"/>
<path d="M321.259 150.727L317.643 155.769C314.409 160.279 314.409 166.348 317.643 170.858L321.259 175.9L316.217 172.284C311.707 169.05 305.638 169.05 301.128 172.284L296.086 175.9L299.702 170.858C302.936 166.348 302.936 160.279 299.702 155.769L296.086 150.727L301.128 154.343C305.638 157.577 311.707 157.577 316.217 154.343L321.259 150.727Z" fill="#262626"/>
</svg>
