<svg width="583" height="188" viewBox="0 0 583 188" fill="none" xmlns="http://www.w3.org/2000/svg">
<path d="M35.2775 89.7767L84.4081 72.7417L91.8393 91.1215L90.1386 91.7112C85.2873 86.2667 81.0089 82.8815 77.3034 81.5555C73.5761 80.1666 68.9094 80.444 63.3035 82.3878L59.9966 83.5343L70.1193 112.729L73.3317 111.615C76.2921 110.589 78.398 108.624 79.6492 105.721C80.8786 102.754 81.2475 99.2393 80.756 95.1761L82.1732 94.6847L91.87 122.651L90.2638 123.208C87.4921 118.877 84.7804 116.042 82.1289 114.704C79.5404 113.343 76.577 113.242 73.2387 114.4L70.9711 115.186L81.4869 145.514L85.0772 144.27C90.8721 142.26 95.1846 138.825 98.0146 133.963C100.908 129.079 102.171 123.666 101.804 117.725L103.694 117.07L110.08 137.929L58.2092 155.914L57.4885 153.835L63.0629 151.903L41.5727 89.9225L35.9983 91.8553L35.2775 89.7767Z" fill="#131313"/>
<path d="M141.355 99.69L148.848 81.0146L141.863 82.761L141.427 81.0148L155.882 77.4007L156.319 79.1469L151.274 80.4082L143.125 101.412L165.148 122.294L170.193 121.033L170.629 122.779L138.227 130.88L137.79 129.134L144.678 127.412L129.64 112.617L122.947 132.845L129.35 131.244L129.786 132.99L114.555 136.799L114.119 135.052L120.522 133.451L127.991 110.968L107.424 91.3719L101.797 92.7787L101.36 91.0325L134.151 82.834L134.587 84.5802L127.796 86.2781L141.355 99.69Z" fill="#131313"/>
<path d="M201.456 90.9982C200.375 84.2172 199.321 79.727 198.296 77.5277C197.259 75.2626 195.787 74.2823 193.877 74.5866C191.968 74.891 190.456 76.4148 189.341 79.1579C188.215 81.8352 187.982 85.2477 188.644 89.3953L191.525 107.467C191.976 110.298 192.919 112.612 194.353 114.408C195.787 116.205 197.59 116.93 199.763 116.584C201.935 116.237 203.186 114.553 203.514 111.53C203.842 108.508 203.429 103.375 202.274 96.1333L201.456 90.9982ZM185.754 72.5401L186.998 80.3415C188.631 74.0729 192.707 70.419 199.224 69.3799C204.886 68.4772 209.59 69.8202 213.335 73.4086C217.145 76.9866 219.712 82.9232 221.035 91.2185C222.357 99.5137 221.621 105.909 218.828 110.405C216.1 114.891 211.346 117.674 204.564 118.755C201.404 119.259 198.971 119.242 197.265 118.703C195.559 118.165 194.081 117.152 192.831 115.664L196.909 141.241L209.648 139.21L209.932 140.987L173.393 146.812L173.11 145.035L178.541 144.169L167.867 77.2145L162.633 78.0489L162.349 76.2713L185.754 72.5401Z" fill="#131313"/>
<path d="M256.373 67.4258C253.914 67.6172 251.878 69.3804 250.265 72.7156C248.653 76.0508 248.017 79.9117 248.358 84.2985L250.437 111.018L257.516 110.467L257.656 112.261L226.55 114.682L226.41 112.887L231.894 112.461L228.48 68.5934L222.996 69.0201L222.857 67.2255L246.884 65.3557L247.629 74.9268C248.229 71.4698 249.689 68.7483 252.009 66.7624C254.323 64.71 257.042 63.5622 260.166 63.3191C263.29 63.0761 265.886 63.7768 267.953 65.4214C270.081 66.9943 271.272 69.4092 271.526 72.666C271.774 75.8564 271.234 78.3725 269.906 80.2144C268.579 82.0563 266.386 83.0962 263.329 83.3341C260.338 83.5669 258.033 82.7432 256.416 80.863C254.865 78.9776 254.484 76.2322 255.274 72.6268L258.863 72.3475C260.261 68.8284 259.431 67.1879 256.373 67.4258Z" fill="#131313"/>
<path d="M301.54 112.047C292.94 112.063 286.469 109.875 282.128 105.483C277.853 101.025 275.708 94.8619 275.693 86.9952C275.679 79.0619 278.067 72.9908 282.86 68.782C287.719 64.573 293.881 62.4616 301.348 62.4478C316.481 62.4198 323.762 70.0063 323.19 85.2074L294.99 85.2595L294.997 89.1595C295.009 95.6929 295.852 100.625 297.525 103.955C299.198 107.285 302.101 108.946 306.234 108.939C313.967 108.925 319.026 104.782 321.411 96.5107L323.212 96.8074C321.954 101.61 319.661 105.347 316.332 108.02C313.071 110.693 308.14 112.035 301.54 112.047ZM295.086 83.2594L305.386 83.2403L305.377 78.3403C305.367 72.9403 305.027 69.2743 304.357 67.3422C303.753 65.3433 302.485 64.3457 300.551 64.3492C298.685 64.3527 297.287 65.4219 296.357 67.557C295.495 69.6253 295.068 73.2261 295.077 78.3594L295.086 83.2594Z" fill="#131313"/>
<path d="M328.884 112.537L330.141 94.6817L331.338 94.7659C332.66 100.673 334.702 104.894 337.464 107.427C340.226 109.961 343.802 111.382 348.191 111.691C354.974 112.168 358.518 110.246 358.822 105.923C358.953 104.061 358.22 102.606 356.623 101.558C354.133 99.9123 350.887 98.5477 346.887 97.4642C342.449 95.9489 338.77 94.0861 335.852 91.8757C332.363 89.2242 330.801 85.3048 331.166 80.1177C331.531 74.9305 333.417 70.9197 336.824 68.0853C340.236 65.1843 344.603 63.9211 349.923 64.2955C353.181 64.5249 356.486 65.526 359.836 67.2989C361.063 67.9199 362.008 68.2537 362.673 68.3006C363.338 68.3474 363.92 68.1544 364.418 67.7216C364.916 67.2889 365.542 66.4641 366.296 65.2474L367.394 65.3246L366.319 80.5869L365.122 80.5026C362.339 71.6186 357.39 66.9262 350.274 66.4254C347.149 66.2055 344.781 66.6069 343.172 67.6298C341.568 68.5862 340.707 69.8956 340.59 71.5582C340.52 72.5557 340.696 73.3701 341.12 74.0014C341.548 74.5662 341.885 74.991 342.133 75.2757C342.38 75.5604 342.791 75.8901 343.366 76.2647C343.946 76.5729 344.428 76.8407 344.813 77.0683C345.203 77.2294 345.788 77.471 346.567 77.7932C347.413 78.1201 348.033 78.3308 348.427 78.4254C352.87 79.8742 356.058 81.1011 357.992 82.106C359.931 83.0444 361.756 84.1754 363.468 85.4988C366.947 88.2833 368.488 92.5019 368.09 98.1546C367.697 103.741 365.735 107.88 362.204 110.572C358.678 113.198 354.022 114.307 348.236 113.899C344.113 113.609 340.191 112.364 336.469 110.164C335.709 109.576 335.096 109.266 334.63 109.233C333.167 109.13 331.651 110.259 330.081 112.622L328.884 112.537Z" fill="#131313"/>
<path d="M372.647 115.996L375.089 98.2632L376.278 98.4269C377.204 104.409 378.96 108.756 381.548 111.468C384.136 114.179 387.609 115.835 391.968 116.435C398.704 117.363 402.368 115.68 402.959 111.388C403.214 109.538 402.579 108.038 401.055 106.886C398.68 105.078 395.532 103.501 391.613 102.154C387.285 100.346 383.739 98.243 380.974 95.8434C377.669 92.9657 376.371 88.9511 377.08 83.7997C377.79 78.6483 379.939 74.7718 383.527 72.1703C387.124 69.5028 391.565 68.5328 396.848 69.2602C400.085 69.7058 403.315 70.9246 406.54 72.9164C407.722 73.6176 408.644 74.0136 409.304 74.1045C409.964 74.1955 410.558 74.0416 411.084 73.643C411.61 73.2443 412.289 72.463 413.122 71.2992L414.212 71.4492L412.125 86.6062L410.936 86.4425C408.75 77.3931 404.124 72.3818 397.057 71.4088C393.953 70.9814 391.564 71.2245 389.891 72.1381C388.226 72.9856 387.28 74.235 387.053 75.886C386.917 76.8767 387.039 77.7011 387.419 78.3591C387.809 78.9511 388.117 79.3974 388.345 79.6979C388.573 79.9985 388.961 80.3548 389.51 80.7668C390.068 81.1129 390.532 81.4122 390.901 81.6649C391.279 81.8516 391.846 82.1315 392.602 82.5048C393.424 82.8872 394.029 83.1387 394.416 83.2593C398.753 85.0004 401.852 86.4367 403.715 87.568C405.588 88.6334 407.333 89.8832 408.953 91.3175C412.24 94.3273 413.497 98.6391 412.724 104.253C411.96 109.8 409.727 113.8 406.024 116.251C402.331 118.636 397.612 119.433 391.866 118.642C387.771 118.078 383.94 116.575 380.374 114.132C379.654 113.495 379.063 113.144 378.601 113.081C377.148 112.881 375.559 113.907 373.836 116.16L372.647 115.996Z" fill="#131313"/>
<path d="M439.207 70.4699C435.742 69.7818 433.432 68.4057 432.279 66.3415C431.191 64.2904 430.906 61.957 431.426 59.3414C431.945 56.7258 433.158 54.7237 435.065 53.3351C437.037 51.9596 439.658 51.5964 442.928 52.2455C446.197 52.8947 448.526 54.1727 449.915 56.0797C451.317 57.9212 451.732 60.2806 451.16 63.1577C450.602 65.9695 449.337 68.0632 447.364 69.4388C445.392 70.8143 442.673 71.158 439.207 70.4699ZM423.053 74.2971L447.084 79.0685L438.164 123.992L443.657 125.082L443.306 126.848L414.175 121.064L414.526 119.298L419.92 120.369L428.489 77.2117L422.702 76.0626L423.053 74.2971Z" fill="#131313"/>
<path d="M458.317 83.0794L458.783 81.3406L487.665 89.0748L487.2 90.8136L481.114 89.184L484.118 124.358L503.138 95.0816L496.666 93.3485L497.132 91.6098L510.172 95.1018L509.707 96.8405L505.456 95.7024L479.313 136.115L468.301 133.167L462.278 84.1399L458.317 83.0794Z" fill="#131313"/>
<path d="M522.579 151.162C514.472 148.292 509.11 144.061 506.494 138.467C503.962 132.832 504.009 126.307 506.634 118.891C509.281 111.413 513.568 106.495 519.495 104.137C525.484 101.802 531.998 101.88 539.037 104.372C553.302 109.422 557.616 119.011 551.979 133.14L525.395 123.729L524.094 127.406C521.913 133.565 521.053 138.493 521.511 142.192C521.97 145.89 524.148 148.429 528.044 149.808C535.334 152.389 541.49 150.183 546.511 143.191L548.108 144.075C545.312 148.177 541.898 150.929 537.866 152.33C533.896 153.754 528.801 153.365 522.579 151.162ZM526.157 121.877L535.866 125.315L537.501 120.695C539.303 115.605 540.213 112.037 540.229 109.992C540.331 107.907 539.471 106.541 537.648 105.896C535.889 105.273 534.213 105.812 532.621 107.511C531.115 109.17 529.505 112.419 527.792 117.258L526.157 121.877Z" fill="#131313"/>
<path d="M0 187H583" stroke="black"/>
<path d="M204.982 27.1234L205.407 28.3468L204.356 28.4955C203.991 28.5719 203.751 28.8702 203.638 29.3904L201.585 39.2528L204.098 46.4942C204.259 46.9571 204.567 47.1408 205.024 47.0453L206.646 46.6355L207.07 47.8589L197.683 49.821L197.259 48.5976L198.96 48.3128C199.394 48.2221 199.527 47.9343 199.359 47.4493L197.075 40.8692L187.89 32.6111C187.47 32.2495 187.123 32.0974 186.849 32.1547L185.879 32.4285L185.454 31.2051L194.704 29.2716L195.129 30.495L193.29 30.8084L193.256 30.8156C193.005 30.8681 192.917 31.0046 192.994 31.225C193.04 31.3573 193.15 31.4997 193.326 31.6521L200.418 38.0073L202.153 29.6652C202.183 29.5407 202.179 29.4233 202.141 29.3131C202.065 29.0926 201.912 29.0063 201.684 29.054L199.925 29.4925L199.501 28.2691L204.982 27.1234Z" fill="black"/>
<path d="M212.311 39.5324C211.634 37.1052 211.761 35.1457 212.693 33.6539C213.625 32.1622 215.38 31.2055 217.96 30.784C220.562 30.3588 222.675 30.6832 224.299 31.7572C225.923 32.8313 227.074 34.5819 227.751 37.0091C229.15 42.0208 227.282 44.9463 222.147 45.7855C219.568 46.207 217.455 45.8826 215.808 44.8123C214.161 43.742 212.995 41.9821 212.311 39.5324ZM217.166 38.8095C217.8 41.0794 218.47 42.6618 219.177 43.5567C219.901 44.4253 220.782 44.775 221.818 44.6056C222.854 44.4363 223.459 43.8439 223.633 42.8285C223.807 41.8131 223.574 40.1592 222.934 37.8668C222.282 35.5295 221.602 33.9134 220.895 33.0185C220.188 32.1236 219.316 31.7609 218.279 31.9302C217.243 32.0996 216.63 32.7051 216.439 33.7467C216.271 34.7846 216.513 36.4722 217.166 38.8095Z" fill="black"/>
<path d="M250.339 40.6502L250.588 41.8139L244.228 42.5754C244.271 42.2193 244.222 41.7104 244.08 41.0487L243.751 39.5085C243.191 41.8922 241.672 43.2325 239.193 43.5294C237.687 43.7097 236.501 43.4422 235.636 42.7268C234.765 41.9886 234.141 40.7411 233.766 38.9841L232.03 30.8727C231.938 30.4391 231.741 30.2404 231.439 30.2765L230.307 30.4823L230.066 29.3528L236.217 28.6163L238.362 38.6444C238.611 39.808 238.882 40.6298 239.175 41.1095C239.49 41.5865 239.961 41.7876 240.587 41.7127C241.143 41.6461 241.636 41.3413 242.066 40.7984C242.52 40.2526 242.82 39.4912 242.968 38.5141C243.11 37.5142 243.051 36.3511 242.791 35.025L241.664 29.7542C241.566 29.2979 241.378 29.0863 241.1 29.1196L239.76 29.3504L239.518 28.2209L245.878 27.4594L248.616 40.2598C248.704 40.6705 248.901 40.8692 249.207 40.856L250.339 40.6502Z" fill="black"/>
<path d="M262.449 25.7738C263.449 25.6945 264.308 25.9182 265.024 26.445C265.764 26.9699 266.204 27.6937 266.346 28.6162C266.452 29.3081 266.322 29.8437 265.957 30.2228C265.614 30.6001 265.152 30.8119 264.571 30.858C264.082 30.8967 263.623 30.8164 263.192 30.6172C262.781 30.393 262.54 30.0503 262.469 29.589C262.444 29.4275 262.454 29.1817 262.497 28.8514C262.503 28.4307 262.503 28.1973 262.496 28.1512C262.418 27.6438 262.158 27.4076 261.716 27.4427C261.111 27.4906 260.618 27.8799 260.236 28.6106C259.873 29.3163 259.642 30.1867 259.541 31.2218C259.441 32.2569 259.452 33.2482 259.574 34.1956L260.37 39.385C260.437 39.8232 260.622 40.0303 260.924 40.0063L263.321 39.7462L263.501 40.9224L254.639 41.6253L254.459 40.449L255.446 40.4407C255.749 40.4167 255.866 40.1857 255.799 39.7474L254.085 28.5731C254.014 28.1118 253.828 27.8932 253.525 27.9172L252.419 28.0749L252.244 26.9333L258.594 26.4297C258.569 26.5717 258.558 26.8061 258.561 27.1326C258.56 27.4362 258.583 27.7378 258.629 28.0377L258.873 29.629C259.35 27.2101 260.542 25.9251 262.449 25.7738Z" fill="black"/>
<path d="M309.459 38.5425L309.513 39.7312L301.603 39.7928L301.549 38.604L302.812 38.6641C303.112 38.5918 303.254 38.3692 303.236 37.9963L302.848 29.5352C302.794 28.3464 302.662 27.4964 302.451 26.985C302.265 26.4735 301.891 26.2199 301.331 26.2243C300.818 26.2283 300.281 26.4889 299.721 27.0063C299.185 27.5234 298.741 28.273 298.389 29.2551C298.037 30.2371 297.88 31.3926 297.918 32.7213L298.162 38.0358C298.182 38.4786 298.344 38.6989 298.647 38.6965L299.869 38.6171L299.923 39.8058L291.944 39.8679L291.889 38.6791L293.152 38.7393C293.452 38.667 293.594 38.4444 293.577 38.0714L293.189 29.6103C293.132 28.3749 292.999 27.5132 292.79 27.0252C292.581 26.5372 292.185 26.2954 291.601 26.3C291.111 26.3038 290.598 26.5526 290.06 27.0464C289.546 27.5401 289.112 28.2547 288.758 29.1901C288.403 30.1022 288.219 31.1879 288.207 32.4471L288.467 38.1112C288.488 38.5773 288.65 38.7976 288.952 38.7719L290.209 38.6922L290.264 39.881L282.354 39.9425L282.299 38.7537L283.458 38.8147C283.758 38.7424 283.899 38.5198 283.882 38.1468L283.364 26.8537C283.346 26.4574 283.184 26.2255 282.877 26.158L281.725 26.2369L281.672 25.0831L288.077 25.0333C287.977 25.3838 287.936 25.7805 287.957 26.2234L288.047 28.1813C288.486 27.082 289.147 26.2258 290.029 25.6127C290.911 24.9763 291.981 24.6532 293.241 24.6434C294.501 24.6336 295.483 24.9174 296.186 25.4948C296.913 26.0721 297.388 27.0128 297.611 28.3168C298.046 27.1242 298.716 26.2097 299.621 25.5731C300.524 24.9131 301.617 24.5782 302.901 24.5682C304.394 24.5566 305.498 24.9561 306.212 25.7666C306.948 26.5537 307.356 27.8096 307.435 29.5345L307.821 37.9606C307.842 38.4035 308.003 38.6238 308.307 38.6214L309.459 38.5425Z" fill="black"/>
<path d="M312.511 32.5707C312.589 30.0519 313.301 28.156 314.648 26.8828C315.995 25.6097 317.973 25.0294 320.584 25.1419C323.218 25.2553 325.156 26.0044 326.397 27.389C327.638 28.7736 328.22 30.7253 328.142 33.2441C327.981 38.4449 325.302 40.9334 320.103 40.7094C317.492 40.597 315.555 39.8479 314.29 38.4623C313.026 37.0767 312.433 35.1128 312.511 32.5707ZM317.405 32.8516C317.332 35.2071 317.501 36.8959 317.913 37.9178C318.349 38.9174 319.092 39.4398 320.141 39.485C321.19 39.5302 321.951 39.0726 322.424 38.1121C322.897 37.1517 323.171 35.482 323.244 33.1031C323.319 30.6776 323.151 28.9539 322.739 27.932C322.327 26.91 321.596 26.3765 320.547 26.3313C319.498 26.2861 318.725 26.7549 318.228 27.7377C317.754 28.7214 317.48 30.4261 317.405 32.8516Z" fill="black"/>
<path d="M332.55 33.5431C332.781 31.0337 333.609 29.1712 335.033 27.9557C336.457 26.7401 338.472 26.2411 341.076 26.4588C343.703 26.6783 345.596 27.5038 346.752 28.935C347.909 30.3663 348.372 32.3366 348.141 34.846C347.664 40.0274 344.832 42.4014 339.647 41.9681C337.043 41.7505 335.151 40.925 333.971 39.4918C332.79 38.0586 332.317 36.0757 332.55 33.5431ZM337.427 34.0209C337.211 36.3676 337.278 38.059 337.627 39.095C338.002 40.1097 338.713 40.6608 339.76 40.7483C340.806 40.8357 341.595 40.41 342.127 39.471C342.658 38.5321 343.033 36.8776 343.252 34.5076C343.474 32.0912 343.411 30.365 343.061 29.329C342.711 28.2929 342.013 27.7312 340.967 27.6438C339.92 27.5563 339.119 27.9927 338.561 28.9529C338.028 29.9151 337.649 31.6044 337.427 34.0209Z" fill="black"/>
<path d="M352.662 35.3722C353.059 32.8129 353.879 30.9528 355.122 29.7919C356.391 28.6109 358.056 28.1494 360.116 28.4072C361.181 28.5404 362.055 28.92 362.736 29.5459C363.445 30.1516 363.867 30.8509 364.004 31.6436L365.739 20.4725C365.81 20.0114 365.696 19.762 365.395 19.7243L363.786 19.5936L363.958 18.4869L370.557 19.3125L366.91 42.796C366.842 43.2341 366.958 43.4719 367.259 43.5096L368.416 43.5838L368.233 44.7597L361.843 43.9602C361.918 43.7815 361.97 43.6 361.999 43.4155L362.117 42.6547C362.156 42.401 362.198 42.2065 362.243 42.071C362.287 41.9356 362.313 41.8448 362.321 41.7987C361.898 42.545 361.303 43.1052 360.537 43.4795C359.775 43.8307 358.849 43.9382 357.761 43.802C355.515 43.521 354.003 42.6972 353.224 41.3304C352.445 39.9637 352.257 37.9776 352.662 35.3722ZM357.524 35.9805C357.284 37.5253 357.167 38.733 357.174 39.6035C357.203 40.4768 357.373 41.1327 357.683 41.571C357.992 42.0093 358.483 42.2705 359.154 42.3545C360.196 42.4848 361.026 42.1539 361.645 41.3616C362.29 40.5492 362.747 39.2783 363.016 37.549L363.247 36.0619C363.519 34.3095 363.464 32.9159 363.082 31.8809C362.703 30.8228 362.016 30.2315 361.021 30.1069C360.095 29.991 359.352 30.4388 358.794 31.4502C358.262 32.4414 357.839 33.9515 357.524 35.9805Z" fill="black"/>
<path d="M391.739 25.3475C392.52 25.4904 393.104 25.7986 393.492 26.2723C393.903 26.7501 394.031 27.3064 393.877 27.9412C393.716 28.5986 393.337 29.0738 392.738 29.3668C392.162 29.6639 391.484 29.741 390.704 29.5981C389.923 29.4553 389.328 29.1449 388.917 28.6671C388.528 28.1934 388.414 27.6279 388.575 26.9704C388.729 26.3357 389.095 25.8697 389.67 25.5726C390.269 25.2796 390.959 25.2046 391.739 25.3475ZM389.06 46.3833C388.949 46.8367 389.046 47.0794 389.35 47.1114L390.502 47.2514L390.221 48.4075L382.543 47.0018L382.825 45.8457L383.945 46.1217L384.013 46.1343C384.266 46.1805 384.445 45.9883 384.55 45.5575L387.226 34.5738C387.32 34.1884 387.237 33.9365 386.978 33.8181L385.826 33.6781L386.099 32.5559L392.158 33.6654L389.06 46.3833Z" fill="black"/>
<path d="M396.881 44.5697L398.064 44.7529C397.73 45.895 397.93 46.9498 398.666 47.9174C399.424 48.8899 400.487 49.5234 401.856 49.8179C402.608 49.9799 403.251 49.9396 403.782 49.697C404.343 49.4369 404.716 48.9933 404.899 48.3663C405.05 47.8512 404.997 47.4113 404.74 47.0466C404.512 46.6643 404.029 46.2865 403.29 45.9131L401.023 44.7112C399.804 44.0681 398.984 43.3084 398.562 42.4319C398.162 41.5604 398.13 40.5536 398.464 39.4115C398.87 38.0231 399.688 37.009 400.918 36.3691C402.155 35.7068 403.663 35.5672 405.442 35.9501C405.921 36.0532 406.345 36.18 406.713 36.3307C407.081 36.4813 407.527 36.6964 408.052 36.9759C408.723 37.3345 409.263 37.558 409.674 37.6464C410.039 37.7249 410.407 37.709 410.779 37.5986L409.453 41.3837L408.426 41.1628C408.675 40.3118 408.527 39.4943 407.98 38.7102C407.457 37.931 406.579 37.4088 405.347 37.1437C404.64 36.9915 404.017 37.0479 403.479 37.313C402.97 37.5605 402.64 37.9418 402.49 38.4569C402.365 38.8823 402.417 39.2862 402.644 39.6684C402.878 40.0283 403.28 40.3529 403.85 40.6422L406.034 41.7549C407.49 42.4967 408.395 43.2985 408.749 44.1602C409.126 45.0268 409.144 46.0424 408.803 47.2068C408.338 48.7968 407.426 49.9218 406.069 50.5819C404.719 51.2196 403.142 51.3446 401.34 50.9568C400.816 50.8439 400.296 50.6725 399.781 50.4427C399.283 50.2402 398.506 49.8707 397.451 49.3341C397.112 49.166 396.806 49.0525 396.532 48.9936C396.03 48.8856 395.657 48.8767 395.412 48.9668L396.881 44.5697Z" fill="black"/>
<path d="M321.259 137.586L317.643 142.628C314.409 147.138 314.409 153.207 317.643 157.717L321.259 162.759L316.217 159.143C311.707 155.909 305.638 155.909 301.128 159.143L296.086 162.759L299.702 157.717C302.936 153.207 302.936 147.138 299.702 142.628L296.086 137.586L301.128 141.202C305.638 144.436 311.707 144.436 316.217 141.202L321.259 137.586Z" fill="#262626"/>
</svg>
