<svg width="604" height="201" viewBox="0 0 604 201" fill="none" xmlns="http://www.w3.org/2000/svg">
<path d="M0 200H604" stroke="black"/>
<path d="M321.259 150.586L317.643 155.628C314.409 160.138 314.409 166.207 317.643 170.717L321.259 175.759L316.217 172.143C311.708 168.909 305.638 168.909 301.129 172.143L296.087 175.759L299.702 170.717C302.937 166.207 302.937 160.138 299.702 155.628L296.087 150.586L301.129 154.202C305.638 157.436 311.708 157.436 316.217 154.202L321.259 150.586Z" fill="#131313"/>
<path d="M91.695 162.126L78.7682 146.262L62.1279 152.638L62.4483 173.332L68.7515 170.917L69.3489 172.519L56.4904 177.446L55.893 175.844L59.843 174.33L59.6725 108.185L66.5639 105.545L109.344 155.364L113.21 153.883L113.807 155.485L86.3254 166.015L85.728 164.412L91.695 162.126ZM61.8544 125.371L62.1925 150.493L77.4042 144.664L61.8544 125.371Z" fill="black"/>
<path d="M113.984 90.1522L140.07 83.5404C148.154 81.4912 154.476 81.0648 159.035 82.2613C163.638 83.3847 166.578 86.5387 167.857 91.7233C169.826 99.7041 166.206 105.697 156.997 109.703L157.041 109.877C169.032 108.385 176.098 111.979 178.239 120.659C179.805 127.009 178.52 132.069 174.383 135.841C170.232 139.555 163.678 142.547 154.721 144.818L129.072 151.319L128.663 149.659L134.333 148.221L120.065 90.3751L114.394 91.8125L113.984 90.1522ZM144.125 114.637L151.345 143.909L155.446 142.87C158.644 142.059 160.611 140.385 161.344 137.847C162.078 135.309 161.913 131.884 160.849 127.574L159.707 122.942C158.759 119.098 157.262 116.413 155.218 114.889C153.173 113.364 150.144 113.111 146.131 114.128L144.125 114.637ZM137.077 86.063L143.715 112.976L145.983 112.401C149.008 111.635 150.879 110.201 151.597 108.1C152.358 105.927 152.272 102.947 151.338 99.1601L150.325 95.0532C149.262 90.7424 147.998 87.875 146.535 86.451C145.057 84.9687 142.835 84.6035 139.868 85.3554L137.077 86.063Z" fill="black"/>
<path d="M184.958 87.7917C181.832 88.3751 179.446 87.9964 177.8 86.6556C176.213 85.3038 175.205 83.4473 174.776 81.0859C174.347 78.7245 174.701 76.6443 175.838 74.8452C177.034 73.0352 179.106 71.8549 182.055 71.3046C185.005 70.7542 187.374 71.0444 189.165 72.175C190.945 73.2466 192.071 75.0812 192.543 77.6787C193.004 80.2172 192.637 82.3915 191.441 84.2015C190.245 86.0116 188.084 87.2083 184.958 87.7917ZM172.708 96.3949L194.384 92.3498L201.749 132.906L206.704 131.982L206.993 133.576L180.717 138.479L180.428 136.885L185.294 135.977L178.218 97.0147L172.998 97.9888L172.708 96.3949Z" fill="black"/>
<path d="M212.698 119.716L209.052 91.6019L204.145 92.2558L203.937 90.6492L208.844 89.9953L207.35 78.4817L223.411 72.1646L225.437 87.7838L237.034 86.2382L237.243 87.8447L225.645 89.3904L229.546 119.468C229.909 122.265 230.443 124.282 231.148 125.52C231.912 126.75 233.187 127.246 234.971 127.008C236.755 126.77 238.186 125.671 239.263 123.712C240.399 121.745 240.975 119.186 240.99 116.037L242.53 116.013C242.586 120.182 241.702 123.629 239.878 126.354C238.045 129.019 234.661 130.681 229.725 131.339C224.788 131.997 220.884 131.518 218.013 129.904C215.141 128.289 213.37 124.893 212.698 119.716Z" fill="black"/>
<path d="M298.443 124.662C301.382 124.591 303.229 124.006 303.983 122.907C304.797 121.807 305.174 119.967 305.113 117.388L304.7 99.9327L298.942 100.073L298.895 98.0931L324.807 97.4637L324.854 99.4432L321.345 99.5284L321.945 124.901L320.595 124.934C319.48 123.461 317.933 122.748 315.954 122.796C315.114 122.817 312.607 123.418 308.434 124.599C304.321 125.78 300.795 126.405 297.855 126.477C288.078 126.714 280.428 124.259 274.905 119.112C269.442 113.963 266.586 106.11 266.336 95.5529C266.085 84.9359 268.681 76.6804 274.123 70.7865C279.625 64.8912 287.115 61.8284 296.592 61.5983C300.251 61.5094 303.921 61.9004 307.603 62.7713C311.343 63.5807 313.513 63.9781 314.113 63.9635C314.713 63.949 315.16 63.8181 315.454 63.5709C315.747 63.2637 316.065 62.7758 316.41 62.1072L317.399 62.0832L318.581 81.5903L316.961 81.6296C313.884 75.8826 310.808 71.396 307.731 68.1698C304.712 64.8821 301.373 63.2827 297.714 63.3715C288.537 63.5944 284.16 72.6734 284.584 90.6084L284.752 97.7164C284.965 106.714 286.236 113.495 288.564 118.06C290.951 122.563 294.244 124.764 298.443 124.662Z" fill="black"/>
<path d="M329.642 58.2221L351.666 59.2925L348.554 125.099L353.588 125.344L353.511 126.962L326.813 125.664L326.889 124.046L331.833 124.286L334.869 60.098L329.566 59.8403L329.642 58.2221Z" fill="black"/>
<path d="M387.079 112.546L387.893 104.939C388.513 99.1522 388.635 94.9101 388.26 92.2129C387.952 89.4627 386.664 87.9628 384.398 87.7134C383.086 87.569 381.971 87.8387 381.053 88.5223C380.201 89.1529 379.503 90.3136 378.96 92.0043C378.136 94.6299 377.43 98.687 376.842 104.176L376.094 111.156C375.398 117.658 375.158 121.586 375.376 122.938C375.652 124.296 375.955 125.416 376.283 126.297C376.786 127.801 377.991 128.658 379.9 128.868C382.226 129.124 383.89 127.949 384.893 125.343C385.635 123.493 386.363 119.227 387.079 112.546ZM379.548 130.459C372.093 129.639 366.662 127.11 363.254 122.871C359.846 118.633 358.522 112.964 359.282 105.865C360.049 98.7058 362.664 93.4403 367.129 90.0685C371.659 86.6435 377.622 85.338 385.017 86.1518C392.413 86.9657 397.738 89.3626 400.993 93.3425C404.254 97.2627 405.494 102.862 404.715 110.14C403.086 125.353 394.697 132.126 379.548 130.459Z" fill="black"/>
<path d="M434.984 120.265L436.351 112.738C437.391 107.012 437.822 102.79 437.645 100.071C437.538 97.3043 436.363 95.7119 434.122 95.2936C432.824 95.0514 431.693 95.237 430.728 95.8504C429.833 96.4157 429.052 97.5214 428.388 99.1673C427.374 101.725 426.375 105.719 425.388 111.15L424.134 118.057C422.965 124.492 422.44 128.392 422.558 129.757C422.735 131.132 422.955 132.272 423.218 133.176C423.609 134.714 424.749 135.659 426.636 136.011C428.936 136.44 430.682 135.393 431.872 132.868C432.746 131.078 433.783 126.877 434.984 120.265ZM426.17 137.572C418.797 136.196 413.566 133.267 410.478 128.784C407.389 124.301 406.482 118.547 407.758 111.522C409.045 104.438 412.036 99.3813 416.733 96.3515C421.5 93.2738 427.54 92.4174 434.854 93.7822C442.168 95.1471 447.302 97.9363 450.256 102.15C453.222 106.304 454.05 111.983 452.742 119.185C450.009 134.239 441.151 140.368 426.17 137.572Z" fill="black"/>
<path d="M461.027 99.3551L481.867 105.366L479.63 113.338C483.186 107.994 488.192 106.253 494.649 108.116C501.164 109.995 504.237 114.253 503.87 120.891C507.639 115.234 512.751 113.337 519.208 115.199C527.683 117.643 530.566 123.689 527.859 133.336L520.538 159.418L525.381 160.815L524.943 162.375L500.989 155.466L501.427 153.906L504.454 154.779L512.358 126.617C513.59 122.227 513.937 119.548 513.398 118.581C513.15 118.135 512.737 117.828 512.161 117.662C510.489 117.18 508.702 117.882 506.802 119.77C504.901 121.657 503.464 124.333 502.492 127.799L495.633 152.235L498.746 153.133L498.309 154.693L476.085 148.283L476.522 146.723L479.549 147.596L487.453 119.434C488.685 115.044 489.032 112.365 488.493 111.398C488.245 110.952 487.832 110.646 487.256 110.479C485.641 110.014 483.823 110.832 481.8 112.933C479.85 114.994 478.397 117.728 477.441 121.136L470.728 145.052L473.842 145.95L473.404 147.51L449.45 140.601L449.888 139.042L454.644 140.413L465.345 102.287L460.589 100.915L461.027 99.3551Z" fill="black"/>
<path d="M535.424 123.634L536.005 122.122L560.279 131.712L559.698 133.224L555.178 131.439L553.579 162.933L574.011 138.88L568.403 136.664L568.984 135.152L580.787 139.815L580.205 141.327L576.02 139.673L542.959 178.768C539.093 183.304 535.618 186.157 532.534 187.325C529.427 188.549 526.228 188.511 522.936 187.21C519.643 185.909 517.339 184.128 516.023 181.866C514.708 179.605 514.502 177.298 515.406 174.946C516.31 172.594 517.613 171.044 519.315 170.297C521.016 169.55 522.871 169.573 524.88 170.367C529.512 172.197 531.085 175.044 529.599 178.908C529.276 179.748 528.721 180.69 527.934 181.734L525.004 180.576C524.063 181.688 523.598 182.73 523.61 183.702C523.621 184.675 524.213 185.392 525.385 185.855C527.673 186.759 530.151 186.416 532.82 184.825C535.467 183.291 538.493 180.519 541.898 176.51L545.742 172.029L538.376 169.119L538.856 124.99L535.424 123.634Z" fill="black"/>
<path d="M204.982 27.1234L205.407 28.3468L204.356 28.4955C203.991 28.5719 203.751 28.8702 203.638 29.3904L201.585 39.2528L204.098 46.4942C204.259 46.9571 204.568 47.1408 205.025 47.0453L206.646 46.6355L207.071 47.8589L197.683 49.821L197.259 48.5976L198.961 48.3128C199.395 48.2221 199.527 47.9343 199.359 47.4493L197.076 40.8692L187.89 32.6111C187.47 32.2495 187.124 32.0974 186.85 32.1547L185.879 32.4285L185.454 31.2051L194.705 29.2716L195.129 30.495L193.29 30.8084L193.256 30.8156C193.005 30.8681 192.917 31.0046 192.994 31.225C193.04 31.3573 193.151 31.4997 193.326 31.6521L200.418 38.0073L202.153 29.6652C202.184 29.5407 202.18 29.4233 202.141 29.3131C202.065 29.0926 201.912 29.0063 201.684 29.054L199.925 29.4925L199.501 28.2691L204.982 27.1234Z" fill="black"/>
<path d="M212.312 39.5324C211.634 37.1052 211.761 35.1457 212.693 33.6539C213.625 32.1622 215.381 31.2055 217.96 30.784C220.562 30.3588 222.675 30.6832 224.299 31.7572C225.923 32.8313 227.074 34.5819 227.752 37.0091C229.151 42.0208 227.283 44.9463 222.147 45.7855C219.568 46.207 217.455 45.8826 215.808 44.8123C214.161 43.742 212.995 41.9821 212.312 39.5324ZM217.166 38.8095C217.8 41.0794 218.47 42.6618 219.178 43.5567C219.902 44.4253 220.782 44.775 221.818 44.6056C222.854 44.4363 223.459 43.8439 223.633 42.8285C223.808 41.8131 223.575 40.1592 222.935 37.8668C222.282 35.5295 221.602 33.9134 220.895 33.0185C220.188 32.1236 219.316 31.7609 218.28 31.9302C217.243 32.0996 216.63 32.7051 216.439 33.7467C216.271 34.7846 216.514 36.4722 217.166 38.8095Z" fill="black"/>
<path d="M250.339 40.6502L250.588 41.8139L244.229 42.5754C244.271 42.2193 244.222 41.7104 244.08 41.0487L243.751 39.5085C243.192 41.8922 241.672 43.2325 239.193 43.5294C237.688 43.7097 236.502 43.4422 235.636 42.7268C234.765 41.9886 234.142 40.7411 233.766 38.9841L232.031 30.8727C231.938 30.4391 231.741 30.2404 231.44 30.2765L230.308 30.4823L230.066 29.3528L236.217 28.6163L238.362 38.6444C238.611 39.808 238.882 40.6298 239.175 41.1095C239.491 41.5865 239.961 41.7876 240.587 41.7127C241.143 41.6461 241.636 41.3413 242.066 40.7984C242.52 40.2526 242.82 39.4912 242.968 38.5141C243.11 37.5142 243.052 36.3511 242.792 35.025L241.664 29.7542C241.567 29.2979 241.379 29.0863 241.101 29.1196L239.76 29.3504L239.518 28.2209L245.878 27.4594L248.616 40.2598C248.704 40.6705 248.901 40.8692 249.207 40.856L250.339 40.6502Z" fill="black"/>
<path d="M262.449 25.7738C263.45 25.6945 264.308 25.9182 265.024 26.445C265.764 26.9699 266.205 27.6937 266.346 28.6162C266.452 29.3081 266.323 29.8437 265.957 30.2228C265.615 30.6001 265.153 30.8119 264.571 30.858C264.083 30.8967 263.623 30.8164 263.192 30.6172C262.781 30.393 262.54 30.0503 262.469 29.589C262.445 29.4275 262.454 29.1817 262.498 28.8514C262.504 28.4307 262.503 28.1973 262.496 28.1512C262.418 27.6438 262.158 27.4076 261.716 27.4427C261.112 27.4906 260.618 27.8799 260.236 28.6106C259.873 29.3163 259.642 30.1867 259.542 31.2218C259.441 32.2569 259.452 33.2482 259.574 34.1956L260.37 39.385C260.437 39.8232 260.622 40.0303 260.924 40.0063L263.321 39.7462L263.501 40.9224L254.639 41.6253L254.459 40.449L255.446 40.4407C255.749 40.4167 255.866 40.1857 255.799 39.7474L254.085 28.5731C254.015 28.1118 253.828 27.8932 253.526 27.9172L252.42 28.0749L252.245 26.9333L258.595 26.4297C258.569 26.5717 258.558 26.8061 258.561 27.1326C258.561 27.4362 258.583 27.7378 258.629 28.0377L258.873 29.629C259.35 27.2101 260.542 25.9251 262.449 25.7738Z" fill="black"/>
<path d="M309.459 38.5425L309.513 39.7312L301.604 39.7928L301.549 38.604L302.812 38.6641C303.112 38.5918 303.254 38.3692 303.237 37.9963L302.849 29.5352C302.794 28.3464 302.662 27.4964 302.452 26.985C302.265 26.4735 301.891 26.2199 301.331 26.2243C300.818 26.2283 300.282 26.4889 299.722 27.0063C299.185 27.5234 298.741 28.273 298.389 29.2551C298.038 30.2371 297.881 31.3926 297.918 32.7213L298.162 38.0358C298.182 38.4786 298.344 38.6989 298.647 38.6965L299.869 38.6171L299.924 39.8058L291.944 39.8679L291.889 38.6791L293.152 38.7393C293.453 38.667 293.594 38.4444 293.577 38.0714L293.189 29.6103C293.132 28.3749 292.999 27.5132 292.79 27.0252C292.581 26.5372 292.185 26.2954 291.602 26.3C291.112 26.3038 290.598 26.5526 290.06 27.0464C289.546 27.5401 289.112 28.2547 288.758 29.1901C288.403 30.1022 288.22 31.1879 288.207 32.4471L288.467 38.1112C288.489 38.5773 288.65 38.7976 288.953 38.7719L290.209 38.6922L290.264 39.881L282.354 39.9425L282.3 38.7537L283.458 38.8147C283.758 38.7424 283.899 38.5198 283.882 38.1468L283.364 26.8537C283.346 26.4574 283.184 26.2255 282.877 26.158L281.726 26.2369L281.673 25.0831L288.077 25.0333C287.977 25.3838 287.937 25.7805 287.957 26.2234L288.047 28.1813C288.487 27.082 289.148 26.2258 290.03 25.6127C290.911 24.9763 291.981 24.6532 293.241 24.6434C294.501 24.6336 295.483 24.9174 296.186 25.4948C296.913 26.0721 297.388 27.0128 297.611 28.3168C298.047 27.1242 298.717 26.2097 299.621 25.5731C300.524 24.9131 301.618 24.5782 302.901 24.5682C304.394 24.5566 305.498 24.9561 306.212 25.7666C306.948 26.5537 307.356 27.8096 307.435 29.5345L307.822 37.9606C307.842 38.4035 308.004 38.6238 308.307 38.6214L309.459 38.5425Z" fill="black"/>
<path d="M312.512 32.5707C312.59 30.0519 313.302 28.156 314.648 26.8828C315.995 25.6097 317.974 25.0294 320.584 25.1419C323.219 25.2553 325.156 26.0044 326.397 27.389C327.638 28.7736 328.22 30.7253 328.142 33.2441C327.981 38.4449 325.302 40.9334 320.103 40.7094C317.492 40.597 315.555 39.8479 314.29 38.4623C313.026 37.0767 312.433 35.1128 312.512 32.5707ZM317.405 32.8516C317.332 35.2071 317.502 36.8959 317.914 37.9178C318.35 38.9174 319.092 39.4398 320.141 39.485C321.19 39.5302 321.951 39.0726 322.424 38.1121C322.898 37.1517 323.171 35.482 323.245 33.1031C323.32 30.6776 323.151 28.9539 322.739 27.932C322.327 26.91 321.597 26.3765 320.548 26.3313C319.499 26.2861 318.726 26.7549 318.228 27.7377C317.754 28.7214 317.48 30.4261 317.405 32.8516Z" fill="black"/>
<path d="M332.551 33.5431C332.782 31.0337 333.609 29.1712 335.033 27.9557C336.458 26.7401 338.472 26.2411 341.076 26.4588C343.704 26.6783 345.596 27.5038 346.753 28.935C347.909 30.3663 348.372 32.3366 348.141 34.846C347.664 40.0274 344.833 42.4014 339.647 41.9681C337.043 41.7505 335.151 40.925 333.971 39.4918C332.791 38.0586 332.317 36.0757 332.551 33.5431ZM337.427 34.0209C337.211 36.3676 337.278 38.059 337.628 39.095C338.003 40.1097 338.713 40.6608 339.76 40.7483C340.806 40.8357 341.595 40.41 342.127 39.471C342.659 38.5321 343.033 36.8776 343.252 34.5076C343.474 32.0912 343.411 30.365 343.061 29.329C342.711 28.2929 342.013 27.7312 340.967 27.6438C339.921 27.5563 339.119 27.9927 338.562 28.9529C338.028 29.9151 337.65 31.6044 337.427 34.0209Z" fill="black"/>
<path d="M352.662 35.3722C353.06 32.8129 353.88 30.9528 355.122 29.7919C356.391 28.6109 358.056 28.1494 360.117 28.4072C361.182 28.5404 362.055 28.92 362.737 29.5459C363.445 30.1516 363.868 30.8509 364.004 31.6436L365.739 20.4725C365.811 20.0114 365.696 19.762 365.395 19.7243L363.787 19.5936L363.958 18.4869L370.557 19.3125L366.91 42.796C366.842 43.2341 366.958 43.4719 367.259 43.5096L368.416 43.5838L368.234 44.7597L361.843 43.9602C361.918 43.7815 361.97 43.6 361.999 43.4155L362.117 42.6547C362.156 42.401 362.198 42.2065 362.243 42.071C362.288 41.9356 362.314 41.8448 362.321 41.7987C361.898 42.545 361.304 43.1052 360.537 43.4795C359.775 43.8307 358.849 43.9382 357.761 43.802C355.515 43.521 354.003 42.6972 353.224 41.3304C352.445 39.9637 352.258 37.9776 352.662 35.3722ZM357.524 35.9805C357.284 37.5253 357.168 38.733 357.174 39.6035C357.204 40.4768 357.373 41.1327 357.683 41.571C357.992 42.0093 358.483 42.2705 359.154 42.3545C360.196 42.4848 361.026 42.1539 361.645 41.3616C362.291 40.5492 362.748 39.2783 363.016 37.549L363.247 36.0619C363.519 34.3095 363.464 32.9159 363.082 31.8809C362.704 30.8228 362.017 30.2315 361.021 30.1069C360.095 29.991 359.353 30.4388 358.794 31.4502C358.263 32.4414 357.839 33.9515 357.524 35.9805Z" fill="black"/>
<path d="M391.74 25.3475C392.52 25.4904 393.104 25.7986 393.492 26.2723C393.903 26.7501 394.031 27.3064 393.877 27.9412C393.717 28.5986 393.337 29.0738 392.738 29.3668C392.162 29.6639 391.484 29.741 390.704 29.5981C389.923 29.4553 389.328 29.1449 388.917 28.6671C388.529 28.1934 388.415 27.6279 388.575 26.9704C388.73 26.3357 389.095 25.8697 389.671 25.5726C390.27 25.2796 390.959 25.2046 391.74 25.3475ZM389.06 46.3833C388.949 46.8367 389.046 47.0794 389.35 47.1114L390.503 47.2514L390.221 48.4075L382.544 47.0018L382.825 45.8457L383.945 46.1217L384.014 46.1343C384.266 46.1805 384.445 45.9883 384.55 45.5575L387.226 34.5738C387.32 34.1884 387.237 33.9365 386.978 33.8181L385.826 33.6781L386.099 32.5559L392.158 33.6654L389.06 46.3833Z" fill="black"/>
<path d="M396.881 44.5697L398.064 44.7529C397.73 45.895 397.931 46.9498 398.666 47.9174C399.424 48.8899 400.487 49.5234 401.856 49.8179C402.609 49.9799 403.251 49.9396 403.783 49.697C404.344 49.4369 404.716 48.9933 404.899 48.3663C405.05 47.8512 404.997 47.4113 404.74 47.0466C404.513 46.6643 404.029 46.2865 403.29 45.9131L401.023 44.7112C399.805 44.0681 398.984 43.3084 398.562 42.4319C398.162 41.5604 398.13 40.5536 398.464 39.4115C398.87 38.0231 399.689 37.009 400.919 36.3691C402.155 35.7068 403.663 35.5672 405.442 35.9501C405.921 36.0532 406.345 36.18 406.713 36.3307C407.081 36.4813 407.527 36.6964 408.052 36.9759C408.723 37.3345 409.264 37.558 409.674 37.6464C410.039 37.7249 410.408 37.709 410.779 37.5986L409.453 41.3837L408.427 41.1628C408.676 40.3118 408.527 39.4943 407.981 38.7102C407.457 37.931 406.579 37.4088 405.348 37.1437C404.64 36.9915 404.018 37.0479 403.479 37.313C402.97 37.5605 402.641 37.9418 402.49 38.4569C402.365 38.8823 402.417 39.2862 402.644 39.6684C402.879 40.0283 403.281 40.3529 403.851 40.6422L406.035 41.7549C407.491 42.4967 408.396 43.2985 408.749 44.1602C409.126 45.0268 409.144 46.0424 408.803 47.2068C408.338 48.7968 407.427 49.9218 406.07 50.5819C404.719 51.2196 403.143 51.3446 401.341 50.9568C400.816 50.8439 400.296 50.6725 399.782 50.4427C399.283 50.2402 398.506 49.8707 397.451 49.3341C397.112 49.166 396.806 49.0525 396.532 48.9936C396.03 48.8856 395.657 48.8767 395.412 48.9668L396.881 44.5697Z" fill="black"/>
</svg>
