<svg width="606" height="195" viewBox="0 0 606 195" fill="none" xmlns="http://www.w3.org/2000/svg">
<path d="M0 194H606" stroke="black"/>
<path d="M320.759 144.586L317.143 149.628C313.909 154.138 313.909 160.207 317.143 164.717L320.759 169.759L315.717 166.143C311.208 162.909 305.138 162.909 300.629 166.143L295.587 169.759L299.202 164.717C302.437 160.207 302.437 154.138 299.202 149.628L295.587 144.586L300.629 148.202C305.138 151.436 311.208 151.436 315.717 148.202L320.759 144.586Z" fill="black"/>
<path d="M179.418 62.8877L192.064 122.859L179.852 125.964L137.92 76.5936L149.581 131.898L154.379 130.678L154.731 132.351L142.782 135.389L142.429 133.716L147.226 132.496L134.933 74.1983L130.136 75.418L129.783 73.7448L153.857 67.6238L186.032 106.021L177.063 63.4865L172.265 64.7062L171.913 63.033L183.862 59.9947L184.215 61.6679L179.418 62.8877Z" fill="black"/>
<path d="M222.811 118.553C215.164 119.754 209.159 118.693 204.795 115.371C200.482 111.98 197.869 106.775 196.955 99.7539C196.033 92.6737 197.461 86.9244 201.241 82.5059C205.08 78.0781 210.319 75.3431 216.957 74.3007C230.412 72.188 237.757 77.9562 238.99 91.6055L213.917 95.5423L214.37 99.023C215.129 104.854 216.444 109.14 218.313 111.882C220.182 114.625 222.954 115.707 226.629 115.13C233.505 114.051 237.529 109.654 238.702 101.942L240.338 101.958C239.769 106.419 238.158 110.072 235.504 112.917C232.91 115.753 228.679 117.632 222.811 118.553ZM213.773 93.7435L222.931 92.3055L222.362 87.9324C221.734 83.1131 221.012 79.8873 220.194 78.2549C219.428 76.5538 218.186 75.8381 216.467 76.108C214.807 76.3686 213.686 77.516 213.104 79.5503C212.574 81.5157 212.607 84.7891 213.204 89.3704L213.773 93.7435Z" fill="black"/>
<path d="M273.008 71.7297C270.794 71.8956 268.939 73.4785 267.442 76.4784C265.945 79.4784 265.32 82.9545 265.565 86.9069L267.061 110.981L273.433 110.503L273.533 112.12L245.532 114.218L245.431 112.601L250.368 112.231L247.912 72.7073L242.976 73.077L242.875 71.4602L264.505 69.8398L265.041 78.4632C265.629 75.3508 266.979 72.9033 269.093 71.1205C271.202 69.2779 273.663 68.2513 276.475 68.0406C279.287 67.83 281.611 68.4681 283.447 69.955C285.339 71.3775 286.376 73.556 286.558 76.4903C286.736 79.3648 286.216 81.6298 284.996 83.2854C283.777 84.941 281.791 85.8719 279.039 86.0781C276.346 86.2798 274.286 85.5317 272.858 83.8337C271.49 82.1313 271.186 79.6573 271.946 76.4117L275.177 76.1697C276.483 73.0035 275.76 71.5235 273.008 71.7297Z" fill="black"/>
<path d="M289.63 69.779L289.64 68.1591L316.549 68.3518L316.54 69.9718L310.87 69.9312L321.492 99.888L331.389 70.0781L325.36 70.0349L325.369 68.415L337.519 68.502L337.509 70.1219L333.549 70.0936L319.985 111.217L309.725 111.144L293.32 69.8055L289.63 69.779Z" fill="black"/>
<path d="M368.136 96.623L368.721 88.9954C369.166 83.1924 369.161 78.9444 368.706 76.2514C368.315 73.504 366.984 72.0253 364.714 71.8152C363.4 71.6936 362.295 71.983 361.398 72.6833C360.567 73.3294 359.905 74.5032 359.413 76.205C358.669 78.8473 358.086 82.9204 357.664 88.4242L357.126 95.4236C356.626 101.944 356.505 105.88 356.762 107.229C357.079 108.584 357.415 109.699 357.769 110.575C358.316 112.072 359.545 112.909 361.457 113.086C363.787 113.301 365.414 112.096 366.338 109.47C367.022 107.606 367.622 103.323 368.136 96.623ZM361.154 114.684C353.686 113.993 348.187 111.557 344.657 107.374C341.127 103.192 339.635 97.5408 340.182 90.4217C340.732 83.2428 343.186 77.9269 347.543 74.474C351.963 70.9669 357.878 69.556 365.286 70.2414C372.695 70.9269 378.083 73.2329 381.452 77.1595C384.826 81.0264 386.233 86.609 385.673 93.9076C384.502 109.163 376.329 116.088 361.154 114.684Z" fill="black"/>
<path d="M437.821 125.945L417.642 122.217L417.663 115.543C416.356 117.741 414.658 119.318 412.57 120.274C410.55 121.181 407.711 121.297 404.053 120.622C394.908 118.932 391.094 113.135 392.611 103.231L396.714 76.4532L391.758 75.5377L392.003 73.9364L413.42 77.8928L408.746 108.407C408.201 111.965 408.078 114.352 408.377 115.566C408.735 116.791 409.652 117.539 411.127 117.812C412.661 118.095 414.159 117.427 415.621 115.806C417.083 114.185 418.063 111.744 418.563 108.482L422.733 81.2598L418.662 80.5078L418.908 78.9064L439.44 82.6994L433.198 123.444L438.066 124.343L437.821 125.945Z" fill="black"/>
<path d="M440.879 128.377L444.423 112.661L445.465 112.945C445.822 118.446 447.044 122.568 449.129 125.309C451.215 128.05 454.168 129.94 457.989 130.98C463.895 132.585 467.276 131.486 468.134 127.682C468.504 126.043 468.057 124.617 466.795 123.404C464.827 121.502 462.157 119.72 458.783 118.057C455.084 115.933 452.101 113.631 449.833 111.151C447.124 108.178 446.284 104.409 447.314 99.8434C448.343 95.278 450.551 92.027 453.938 90.0904C457.337 88.0952 461.353 87.7273 465.984 88.9868C468.821 89.7583 471.593 91.2264 474.301 93.3913C475.295 94.1587 476.082 94.6211 476.661 94.7785C477.24 94.936 477.778 94.865 478.276 94.5655C478.773 94.2659 479.437 93.6389 480.267 92.6842L481.222 92.944L478.193 106.377L477.151 106.093C475.914 97.6814 472.198 92.6332 466.003 90.9486C463.282 90.2086 461.143 90.1551 459.587 90.788C458.044 91.3624 457.108 92.3812 456.778 93.8444C456.58 94.7224 456.624 95.4799 456.911 96.1168C457.21 96.6953 457.45 97.1331 457.628 97.4302C457.807 97.7272 458.124 98.093 458.579 98.5273C459.047 98.9031 459.435 99.2261 459.743 99.4961C460.064 99.7076 460.546 100.025 461.188 100.448C461.888 100.887 462.405 101.183 462.739 101.336C466.451 103.401 469.09 105.051 470.656 106.284C472.234 107.459 473.686 108.785 475.012 110.264C477.695 113.354 478.475 117.386 477.353 122.362C476.244 127.278 473.952 130.63 470.477 132.419C467.014 134.148 462.764 134.328 457.727 132.958C454.138 131.982 450.855 130.189 447.88 127.578C447.291 126.921 446.793 126.537 446.388 126.427C445.114 126.081 443.625 126.825 441.921 128.66L440.879 128.377Z" fill="black"/>
<path d="M204.482 27.1234L204.907 28.3468L203.856 28.4955C203.491 28.5719 203.251 28.8702 203.138 29.3904L201.085 39.2528L203.598 46.4942C203.759 46.9571 204.068 47.1408 204.525 47.0453L206.146 46.6355L206.571 47.8589L197.183 49.821L196.759 48.5976L198.461 48.3128C198.895 48.2221 199.027 47.9343 198.859 47.4493L196.576 40.8692L187.39 32.6111C186.97 32.2495 186.624 32.0974 186.35 32.1547L185.379 32.4285L184.954 31.2051L194.205 29.2716L194.629 30.495L192.79 30.8084L192.756 30.8156C192.505 30.8681 192.418 31.0046 192.494 31.225C192.54 31.3573 192.651 31.4997 192.826 31.6521L199.918 38.0073L201.653 29.6652C201.684 29.5407 201.68 29.4233 201.641 29.3131C201.565 29.0926 201.412 29.0063 201.184 29.054L199.425 29.4925L199.001 28.2691L204.482 27.1234Z" fill="black"/>
<path d="M211.812 39.5324C211.134 37.1052 211.261 35.1457 212.193 33.6539C213.125 32.1622 214.881 31.2055 217.46 30.784C220.062 30.3588 222.175 30.6832 223.799 31.7572C225.423 32.8313 226.574 34.5819 227.252 37.0091C228.651 42.0208 226.783 44.9463 221.647 45.7855C219.068 46.207 216.955 45.8826 215.308 44.8123C213.661 43.742 212.495 41.9821 211.812 39.5324ZM216.666 38.8095C217.3 41.0794 217.97 42.6618 218.678 43.5567C219.402 44.4253 220.282 44.775 221.318 44.6056C222.354 44.4363 222.959 43.8439 223.133 42.8285C223.308 41.8131 223.075 40.1592 222.435 37.8668C221.782 35.5295 221.102 33.9134 220.395 33.0185C219.688 32.1236 218.816 31.7609 217.78 31.9302C216.743 32.0996 216.13 32.7051 215.939 33.7467C215.771 34.7846 216.014 36.4722 216.666 38.8095Z" fill="black"/>
<path d="M249.839 40.6502L250.088 41.8139L243.729 42.5754C243.771 42.2193 243.722 41.7104 243.58 41.0487L243.251 39.5085C242.692 41.8922 241.172 43.2325 238.693 43.5294C237.188 43.7097 236.002 43.4422 235.136 42.7268C234.265 41.9886 233.642 40.7411 233.266 38.9841L231.531 30.8727C231.438 30.4391 231.241 30.2404 230.94 30.2765L229.808 30.4823L229.566 29.3528L235.717 28.6163L237.862 38.6444C238.111 39.808 238.382 40.6298 238.675 41.1095C238.991 41.5865 239.461 41.7876 240.087 41.7127C240.643 41.6461 241.136 41.3413 241.566 40.7984C242.02 40.2526 242.32 39.4912 242.468 38.5141C242.61 37.5142 242.552 36.3511 242.292 35.025L241.164 29.7542C241.067 29.2979 240.879 29.0863 240.601 29.1196L239.26 29.3504L239.018 28.2209L245.378 27.4594L248.116 40.2598C248.204 40.6705 248.401 40.8692 248.707 40.856L249.839 40.6502Z" fill="black"/>
<path d="M261.949 25.7738C262.95 25.6945 263.808 25.9182 264.524 26.445C265.264 26.9699 265.705 27.6937 265.846 28.6162C265.952 29.3081 265.822 29.8437 265.457 30.2228C265.115 30.6001 264.653 30.8119 264.071 30.858C263.583 30.8967 263.123 30.8164 262.692 30.6172C262.281 30.393 262.04 30.0503 261.969 29.589C261.945 29.4275 261.954 29.1817 261.998 28.8514C262.004 28.4307 262.003 28.1973 261.996 28.1512C261.918 27.6438 261.658 27.4076 261.216 27.4427C260.612 27.4906 260.118 27.8799 259.736 28.6106C259.373 29.3163 259.142 30.1867 259.042 31.2218C258.941 32.2569 258.952 33.2482 259.074 34.1956L259.87 39.385C259.937 39.8232 260.122 40.0303 260.424 40.0063L262.821 39.7462L263.001 40.9224L254.139 41.6253L253.959 40.449L254.946 40.4407C255.249 40.4167 255.366 40.1857 255.299 39.7474L253.585 28.5731C253.515 28.1118 253.328 27.8932 253.026 27.9172L251.92 28.0749L251.745 26.9333L258.095 26.4297C258.069 26.5717 258.058 26.8061 258.061 27.1326C258.061 27.4362 258.083 27.7378 258.129 28.0377L258.373 29.629C258.85 27.2101 260.042 25.9251 261.949 25.7738Z" fill="black"/>
<path d="M308.959 38.5425L309.013 39.7312L301.104 39.7928L301.049 38.604L302.312 38.6641C302.612 38.5918 302.754 38.3692 302.737 37.9963L302.349 29.5352C302.294 28.3464 302.162 27.4964 301.952 26.985C301.765 26.4735 301.391 26.2199 300.831 26.2243C300.318 26.2283 299.782 26.4889 299.222 27.0063C298.685 27.5234 298.241 28.273 297.889 29.2551C297.538 30.2371 297.381 31.3926 297.418 32.7213L297.662 38.0358C297.682 38.4786 297.844 38.6989 298.147 38.6965L299.369 38.6171L299.424 39.8058L291.444 39.8679L291.389 38.6791L292.652 38.7393C292.953 38.667 293.094 38.4444 293.077 38.0714L292.689 29.6103C292.632 28.3749 292.499 27.5132 292.29 27.0252C292.081 26.5372 291.685 26.2954 291.102 26.3C290.612 26.3038 290.098 26.5526 289.56 27.0464C289.046 27.5401 288.612 28.2547 288.258 29.1901C287.903 30.1022 287.72 31.1879 287.707 32.4471L287.967 38.1112C287.989 38.5773 288.15 38.7976 288.453 38.7719L289.709 38.6922L289.764 39.881L281.854 39.9425L281.8 38.7537L282.958 38.8147C283.258 38.7424 283.399 38.5198 283.382 38.1468L282.864 26.8537C282.846 26.4574 282.684 26.2255 282.377 26.158L281.226 26.2369L281.173 25.0831L287.577 25.0333C287.477 25.3838 287.437 25.7805 287.457 26.2234L287.547 28.1813C287.987 27.082 288.647 26.2258 289.53 25.6127C290.411 24.9763 291.481 24.6532 292.741 24.6434C294.001 24.6336 294.983 24.9174 295.686 25.4948C296.413 26.0721 296.888 27.0128 297.111 28.3168C297.547 27.1242 298.217 26.2097 299.121 25.5731C300.024 24.9131 301.118 24.5782 302.401 24.5682C303.894 24.5566 304.998 24.9561 305.712 25.7666C306.448 26.5537 306.856 27.8096 306.935 29.5345L307.322 37.9606C307.342 38.4035 307.504 38.6238 307.807 38.6214L308.959 38.5425Z" fill="black"/>
<path d="M312.012 32.5707C312.09 30.0519 312.802 28.156 314.148 26.8828C315.495 25.6097 317.474 25.0294 320.084 25.1419C322.719 25.2553 324.656 26.0044 325.897 27.389C327.138 28.7736 327.72 30.7253 327.642 33.2441C327.481 38.4449 324.802 40.9334 319.603 40.7094C316.992 40.597 315.055 39.8479 313.79 38.4623C312.526 37.0767 311.933 35.1128 312.012 32.5707ZM316.905 32.8516C316.832 35.2071 317.002 36.8959 317.414 37.9178C317.85 38.9174 318.592 39.4398 319.641 39.485C320.69 39.5302 321.451 39.0726 321.925 38.1121C322.398 37.1517 322.671 35.482 322.745 33.1031C322.82 30.6776 322.651 28.9539 322.239 27.932C321.827 26.91 321.097 26.3765 320.048 26.3313C318.999 26.2861 318.226 26.7549 317.728 27.7377C317.254 28.7214 316.98 30.4261 316.905 32.8516Z" fill="black"/>
<path d="M332.051 33.5431C332.282 31.0337 333.109 29.1712 334.533 27.9557C335.958 26.7401 337.972 26.2411 340.576 26.4588C343.204 26.6783 345.096 27.5038 346.253 28.935C347.41 30.3663 347.872 32.3366 347.641 34.846C347.164 40.0274 344.333 42.4014 339.147 41.9681C336.543 41.7505 334.651 40.925 333.471 39.4918C332.291 38.0586 331.817 36.0757 332.051 33.5431ZM336.927 34.0209C336.711 36.3676 336.778 38.059 337.128 39.095C337.503 40.1097 338.213 40.6608 339.26 40.7483C340.306 40.8357 341.095 40.41 341.627 39.471C342.159 38.5321 342.534 36.8776 342.752 34.5076C342.974 32.0912 342.911 30.365 342.561 29.329C342.211 28.2929 341.513 27.7312 340.467 27.6438C339.421 27.5563 338.619 27.9927 338.062 28.9529C337.528 29.9151 337.15 31.6044 336.927 34.0209Z" fill="black"/>
<path d="M352.162 35.3722C352.56 32.8129 353.38 30.9528 354.622 29.7919C355.891 28.6109 357.556 28.1494 359.617 28.4072C360.682 28.5404 361.555 28.92 362.237 29.5459C362.945 30.1516 363.368 30.8509 363.504 31.6436L365.239 20.4725C365.311 20.0114 365.196 19.762 364.895 19.7243L363.287 19.5936L363.458 18.4869L370.057 19.3125L366.41 42.796C366.342 43.2341 366.458 43.4719 366.759 43.5096L367.916 43.5838L367.734 44.7597L361.343 43.9602C361.418 43.7815 361.47 43.6 361.499 43.4155L361.617 42.6547C361.656 42.401 361.698 42.2065 361.743 42.071C361.788 41.9356 361.814 41.8448 361.821 41.7987C361.398 42.545 360.804 43.1052 360.037 43.4795C359.275 43.8307 358.349 43.9382 357.261 43.802C355.015 43.521 353.503 42.6972 352.724 41.3304C351.945 39.9637 351.758 37.9776 352.162 35.3722ZM357.024 35.9805C356.784 37.5253 356.668 38.733 356.674 39.6035C356.704 40.4768 356.873 41.1327 357.183 41.571C357.492 42.0093 357.983 42.2705 358.654 42.3545C359.696 42.4848 360.526 42.1539 361.145 41.3616C361.791 40.5492 362.248 39.2783 362.516 37.549L362.747 36.0619C363.019 34.3095 362.964 32.9159 362.582 31.8809C362.204 30.8228 361.517 30.2315 360.521 30.1069C359.595 29.991 358.853 30.4388 358.294 31.4502C357.763 32.4414 357.339 33.9515 357.024 35.9805Z" fill="black"/>
<path d="M391.239 25.3475C392.02 25.4904 392.604 25.7986 392.992 26.2723C393.403 26.7501 393.531 27.3064 393.377 27.9412C393.217 28.5986 392.837 29.0738 392.238 29.3668C391.662 29.6639 390.984 29.741 390.204 29.5981C389.423 29.4553 388.828 29.1449 388.417 28.6671C388.029 28.1934 387.915 27.6279 388.075 26.9704C388.23 26.3357 388.595 25.8697 389.171 25.5726C389.77 25.2796 390.459 25.2046 391.239 25.3475ZM388.56 46.3833C388.449 46.8367 388.546 47.0794 388.85 47.1114L390.003 47.2514L389.721 48.4075L382.044 47.0018L382.325 45.8457L383.445 46.1217L383.514 46.1343C383.766 46.1805 383.945 45.9883 384.05 45.5575L386.726 34.5738C386.82 34.1884 386.737 33.9365 386.478 33.8181L385.326 33.6781L385.599 32.5559L391.658 33.6654L388.56 46.3833Z" fill="black"/>
<path d="M396.381 44.5697L397.564 44.7529C397.23 45.895 397.431 46.9498 398.166 47.9174C398.924 48.8899 399.987 49.5234 401.356 49.8179C402.109 49.9799 402.751 49.9396 403.283 49.697C403.844 49.4369 404.216 48.9933 404.399 48.3663C404.55 47.8512 404.497 47.4113 404.24 47.0466C404.013 46.6643 403.529 46.2865 402.79 45.9131L400.523 44.7112C399.305 44.0681 398.484 43.3084 398.062 42.4319C397.662 41.5604 397.63 40.5536 397.964 39.4115C398.37 38.0231 399.189 37.009 400.419 36.3691C401.655 35.7068 403.163 35.5672 404.942 35.9501C405.421 36.0532 405.845 36.18 406.213 36.3307C406.581 36.4813 407.027 36.6964 407.552 36.9759C408.223 37.3345 408.764 37.558 409.174 37.6464C409.539 37.7249 409.908 37.709 410.279 37.5986L408.953 41.3837L407.927 41.1628C408.176 40.3118 408.027 39.4943 407.481 38.7102C406.957 37.931 406.079 37.4088 404.848 37.1437C404.14 36.9915 403.518 37.0479 402.979 37.313C402.47 37.5605 402.141 37.9418 401.99 38.4569C401.865 38.8823 401.917 39.2862 402.144 39.6684C402.379 40.0283 402.781 40.3529 403.351 40.6422L405.535 41.7549C406.991 42.4967 407.896 43.2985 408.249 44.1602C408.626 45.0268 408.644 46.0424 408.303 47.2068C407.838 48.7968 406.927 49.9218 405.57 50.5819C404.219 51.2196 402.643 51.3446 400.841 50.9568C400.316 50.8439 399.796 50.6725 399.282 50.4427C398.783 50.2402 398.006 49.8707 396.951 49.3341C396.612 49.166 396.306 49.0525 396.032 48.9936C395.53 48.8856 395.157 48.8767 394.912 48.9668L396.381 44.5697Z" fill="black"/>
</svg>
